<svg width="24" height="24" viewBox="0 0 24 24" fill="none" xmlns="http://www.w3.org/2000/svg">
<path d="M18 7H16C15.45 7 15 7.45 15 8V10C15 10.55 15.45 11 16 11V13H13V5H14C14.41 5 14.65 4.53 14.4 4.2L12.4 1.53C12.2 1.26 11.8 1.26 11.6 1.53L9.59999 4.2C9.34999 4.53 9.58999 5 9.99999 5H11V13H7.99999V10.93C8.82999 10.49 9.37999 9.57 9.13999 8.5C8.96999 7.73 8.36999 7.1 7.61999 6.89C6.14999 6.48 4.79999 7.59 4.79999 9C4.79999 9.85 5.29999 10.56 5.99999 10.93V13C5.99999 14.1 6.89999 15 7.99999 15H11V18.05C10.14 18.5 9.60999 19.47 9.86999 20.54C10.05 21.29 10.66 21.92 11.41 22.12C12.87 22.51 14.21 21.42 14.21 20C14.21 19.15 13.72 18.42 13.01 18.05V15H16.01C17.11 15 18.01 14.1 18.01 13V11C18.56 11 19.01 10.55 19.01 10V8C19 7.45 18.55 7 18 7Z" fill="white"/>
</svg>
