<svg width="16" height="16" viewBox="0 0 16 16" fill="none" xmlns="http://www.w3.org/2000/svg">
<g clip-path="url(#clip0_631_350)">
<path fill-rule="evenodd" clip-rule="evenodd" d="M13.1046 3.00983C13.2474 3.15268 13.2973 3.36397 13.2334 3.55561L9.83931 13.7379C9.77425 13.9331 9.60272 14.0735 9.39851 14.0986C9.19431 14.1238 8.99386 14.0292 8.8834 13.8556L6.30716 9.80725L2.2588 7.23101C2.08522 7.12056 1.99066 6.9201 2.0158 6.7159C2.04094 6.51169 2.18129 6.34016 2.37648 6.2751L12.5588 2.88099C12.7504 2.81711 12.9617 2.86699 13.1046 3.00983ZM7.37313 9.49553L9.18172 12.3376L11.8842 4.23023L3.7768 6.93269L6.61888 8.74128L9.33335 6.02682C9.54163 5.81854 9.87931 5.81854 10.0876 6.02682C10.2959 6.2351 10.2959 6.57278 10.0876 6.78106L7.37313 9.49553Z" fill="#A692ED"/>
</g>
<defs>
<clipPath id="clip0_631_350">
<rect width="16" height="16" fill="white"/>
</clipPath>
</defs>
</svg>
