<svg width="25" height="24" viewBox="0 0 25 24" fill="none" xmlns="http://www.w3.org/2000/svg">
<path d="M16.75 7L18.75 7C19.8546 7 20.75 7.89543 20.75 9V19C20.75 20.1046 19.8546 21 18.75 21H11.75C10.6454 21 9.75 20.1046 9.75 19V17M5.75 14V15C5.75 16.1046 6.64543 17 7.75 17H14.75C15.8546 17 16.75 16.1046 16.75 15V5C16.75 3.89543 15.8546 3 14.75 3H7.75C6.64543 3 5.75 3.89543 5.75 5V6M9.75 7L12.75 10M12.75 10L9.75 13M12.75 10L3.75 10" stroke="url(#paint0_linear_609_949)" stroke-width="2" stroke-linecap="round" stroke-linejoin="round"/>
<defs>
<linearGradient id="paint0_linear_609_949" x1="8.88541" y1="21" x2="9.07827" y2="2.8758" gradientUnits="userSpaceOnUse">
<stop stop-color="#532BDC"/>
<stop offset="1" stop-color="#7656E3"/>
</linearGradient>
</defs>
</svg>
