<svg width="17" height="16" viewBox="0 0 17 16" fill="none" xmlns="http://www.w3.org/2000/svg">
<path fill-rule="evenodd" clip-rule="evenodd" d="M8.50001 2.66666C5.55449 2.66666 3.16668 5.05448 3.16668 8C3.16668 10.9455 5.55449 13.3333 8.50001 13.3333C11.4455 13.3333 13.8333 10.9455 13.8333 8C13.8333 5.05448 11.4455 2.66666 8.50001 2.66666ZM1.83334 8C1.83334 4.3181 4.81811 1.33333 8.50001 1.33333C12.1819 1.33333 15.1667 4.3181 15.1667 8C15.1667 11.6819 12.1819 14.6667 8.50001 14.6667C4.81811 14.6667 1.83334 11.6819 1.83334 8ZM8.50001 4.66666C8.8682 4.66666 9.16668 4.96514 9.16668 5.33333L9.16668 9.05719L10.0286 8.19526C10.289 7.93491 10.7111 7.93491 10.9714 8.19526C11.2318 8.45561 11.2318 8.87772 10.9714 9.13807L8.97141 11.1381C8.71106 11.3984 8.28895 11.3984 8.02861 11.1381L6.02861 9.13807C5.76826 8.87772 5.76826 8.45561 6.02861 8.19526C6.28895 7.93491 6.71106 7.93491 6.97141 8.19526L7.83334 9.05719L7.83334 5.33333C7.83334 4.96514 8.13182 4.66666 8.50001 4.66666Z" fill="#A692ED"/>
</svg>
