<svg width="20" height="20" viewBox="0 0 20 20" fill="none" xmlns="http://www.w3.org/2000/svg">
<path fill-rule="evenodd" clip-rule="evenodd" d="M19.6 10C19.6 15.302 15.302 19.6 10 19.6C4.69809 19.6 0.400024 15.302 0.400024 10C0.400024 4.69809 4.69809 0.400024 10 0.400024C15.302 0.400024 19.6 4.69809 19.6 10ZM11.2 14.8C11.2 15.4628 10.6628 16 10 16C9.33728 16 8.80002 15.4628 8.80002 14.8C8.80002 14.1373 9.33728 13.6 10 13.6C10.6628 13.6 11.2 14.1373 11.2 14.8ZM10 4.00002C9.33728 4.00002 8.80002 4.53728 8.80002 5.20002V10C8.80002 10.6628 9.33728 11.2 10 11.2C10.6628 11.2 11.2 10.6628 11.2 10V5.20002C11.2 4.53728 10.6628 4.00002 10 4.00002Z" fill="#AB6626"/>
</svg>
