<svg width="17" height="16" viewBox="0 0 17 16" fill="none" xmlns="http://www.w3.org/2000/svg">
<path fill-rule="evenodd" clip-rule="evenodd" d="M8.5 2.66668C5.55448 2.66668 3.16666 5.05449 3.16666 8.00001C3.16666 10.9455 5.55448 13.3333 8.5 13.3333C11.4455 13.3333 13.8333 10.9455 13.8333 8.00001C13.8333 5.05449 11.4455 2.66668 8.5 2.66668ZM1.83333 8.00001C1.83333 4.31811 4.8181 1.33334 8.5 1.33334C12.1819 1.33334 15.1667 4.31811 15.1667 8.00001C15.1667 11.6819 12.1819 14.6667 8.5 14.6667C4.8181 14.6667 1.83333 11.6819 1.83333 8.00001ZM7.83333 6.94282L6.9714 7.80475C6.71105 8.0651 6.28894 8.0651 6.02859 7.80475C5.76824 7.5444 5.76824 7.12229 6.02859 6.86194L8.02859 4.86194C8.28894 4.60159 8.71105 4.60159 8.9714 4.86194L10.9714 6.86194C11.2317 7.12229 11.2317 7.5444 10.9714 7.80475C10.7111 8.0651 10.2889 8.0651 10.0286 7.80475L9.16666 6.94282L9.16666 10.6667C9.16666 11.0349 8.86818 11.3333 8.49999 11.3333C8.1318 11.3333 7.83333 11.0349 7.83333 10.6667L7.83333 6.94282Z" fill="#A692ED"/>
</svg>
