<svg width="16" height="16" viewBox="0 0 16 16" fill="none" xmlns="http://www.w3.org/2000/svg">
<path fill-rule="evenodd" clip-rule="evenodd" d="M8 2.66668C5.05448 2.66668 2.66667 5.05449 2.66667 8.00001C2.66667 10.9455 5.05448 13.3333 8 13.3333C10.9455 13.3333 13.3333 10.9455 13.3333 8.00001C13.3333 5.05449 10.9455 2.66668 8 2.66668ZM1.33333 8.00001C1.33333 4.31811 4.3181 1.33334 8 1.33334C11.6819 1.33334 14.6667 4.31811 14.6667 8.00001C14.6667 11.6819 11.6819 14.6667 8 14.6667C4.3181 14.6667 1.33333 11.6819 1.33333 8.00001ZM8 4.66668C8.36819 4.66668 8.66667 4.96515 8.66667 5.33334L8.66667 9.0572L9.52859 8.19527C9.78894 7.93492 10.2111 7.93492 10.4714 8.19527C10.7318 8.45562 10.7318 8.87773 10.4714 9.13808L8.4714 11.1381C8.21105 11.3984 7.78894 11.3984 7.52859 11.1381L5.52859 9.13808C5.26824 8.87773 5.26824 8.45562 5.52859 8.19527C5.78894 7.93492 6.21105 7.93492 6.4714 8.19527L7.33333 9.0572L7.33333 5.33334C7.33333 4.96515 7.63181 4.66668 8 4.66668Z" fill="#A692ED"/>
</svg>
