<svg width="27" height="13" viewBox="0 0 27 13" fill="none" xmlns="http://www.w3.org/2000/svg">
<path d="M20.4822 0C17.416 0 14.8404 2.13172 14.157 4.97984H0V8.02016H14.157C14.8404 10.8683 17.416 13 20.4822 13C24.074 13 27 10.082 27 6.5C27 2.91801 24.074 0 20.4822 0ZM20.4822 10.082C18.5023 10.082 16.8903 8.47446 16.8903 6.5C16.8903 4.52554 18.5023 2.91801 20.4822 2.91801C22.462 2.91801 24.074 4.52554 24.074 6.5C24.074 8.47446 22.462 10.082 20.4822 10.082Z" fill="white"/>
<path d="M20 5V8C21.1136 8 22 7.33523 22 6.5C22 5.66477 21.0909 5 20 5Z" fill="white"/>
<path d="M10.406 0.0913243C10.406 1.07763 9.61791 1.88128 8.63284 1.86301C7.66567 1.86301 6.87761 1.05936 6.89552 0.0547947C6.89552 0.0365298 6.89552 0.0365297 6.89552 0.0182648H5.98209H5.96418H5.21194C5.21194 0.0365297 5.21194 0.0365299 5.21194 0.0365299C5.21194 1.02283 4.42388 1.82648 3.43881 1.80822C2.47164 1.80822 1.68358 1.00457 1.70149 0H0.0179104L0 4H11.9821L12 0.0730595L10.406 0.0547947C10.406 0.0730595 10.406 0.0730595 10.406 0.0913243Z" fill="white"/>
</svg>
