<svg width="180" height="180" viewBox="0 0 180 180" fill="none" xmlns="http://www.w3.org/2000/svg">
<g clip-path="url(#clip0_272_857)">
<path opacity="0.2" d="M10.306 93.3694C4.72923 83.3745 9.84256 79.9221 13.0959 79.446C18.9367 80.432 28.4329 83.3715 47.9532 93.3694C67.4734 103.364 63.9868 81.2306 55.97 59.8125C47.9532 38.3914 80.7171 27.6838 92.2206 55.884C103.724 84.0871 113.484 82.3026 150.432 101.58C187.379 120.857 170.998 142.991 147.295 138.35C123.591 133.708 156.358 169.05 127.428 167.622C98.4941 166.196 17.2793 105.865 10.306 93.3694Z" fill="url(#paint0_linear_272_857)"/>
<path opacity="0.08" d="M28.6968 48.6597C25.2102 32.239 15.1032 41.5183 14.4065 54.3728C13.7098 67.2243 30.4401 80.432 39.8535 80.432" fill="url(#paint1_linear_272_857)"/>
<path opacity="0.1" d="M111.587 50.8865C104.056 43.7451 97.0393 33.3878 94.4734 29.0998C67.9461 -8.00169 147.295 0.469709 141.709 25.0085C136.123 49.5504 121.001 59.8125 111.587 50.8865Z" fill="url(#paint2_linear_272_857)"/>
<path opacity="0.08" d="M94.4734 173.912C86.7144 177.184 76.5 176.821 72.6942 170.1C71.2792 167.757 78.3998 159.98 85.2473 160.563C92.0917 161.147 104.172 169.824 94.4734 173.912Z" fill="url(#paint3_linear_272_857)"/>
<path opacity="0.08" d="M16.1191 168.645C9.27476 165.616 12.1261 158.812 14.4065 155.79C21.5363 150.823 25.247 155.79 25.247 162.508C25.247 169.231 24.6761 172.432 16.1191 168.645Z" fill="url(#paint4_linear_272_857)"/>
<path d="M145.987 103.911C146.31 105.911 146.549 107.926 146.699 109.947C146.862 111.968 146.939 113.995 146.963 116.022C146.976 118.05 146.936 120.077 146.813 122.101C146.696 124.125 146.497 126.143 146.208 128.149L146.334 122.083C146.362 120.065 146.374 118.043 146.349 116.025C146.337 114.007 146.285 111.989 146.221 109.971L145.987 103.911Z" fill="white"/>
<path d="M34.6757 83.7708C35.5473 92.4757 36.109 102.099 36.1059 112.508C36.1029 122.844 35.5412 132.403 34.6757 141.056C42.272 144.57 51.1789 148.108 61.3135 151.14C73.9035 154.905 85.4192 156.997 95.2284 158.152C96.4684 148.615 97.3002 137.646 97.1774 125.514C97.073 115.301 96.3088 105.96 95.2284 97.6543C85.6524 96.1984 75.4381 94.3063 64.6927 91.8429C53.9473 89.3826 43.9263 86.6335 34.6757 83.7708Z" fill="#988CF4"/>
<path d="M143.173 112.25C143.118 122.537 142.264 131.798 141.095 139.809C137.716 141.882 133.944 144.011 129.773 146.087C127.201 147.368 124.475 148.627 121.605 149.843C118.806 151.026 116.068 152.083 113.407 153.023C106.79 155.363 100.649 156.997 95.2254 158.155C96.4684 148.618 97.3002 137.649 97.1743 125.517C97.07 115.304 96.3057 105.963 95.2254 97.6605C101.054 96.3029 107.238 94.6626 113.717 92.6661C115.627 92.0794 117.563 91.459 119.524 90.8078C122.855 89.699 126.071 88.5594 129.174 87.3953C133.354 85.8288 137.332 84.2224 141.095 82.6036C142.341 91.1273 143.234 101.104 143.173 112.25Z" fill="#C8B9FC"/>
<path opacity="0.6" d="M130.699 119.932C130.709 129.166 130.362 137.904 129.773 146.087C127.201 147.368 124.475 148.627 121.605 149.843C118.806 151.026 116.068 152.083 113.407 153.023C114.258 143.605 114.801 133.414 114.847 122.537C114.893 111.894 114.457 101.908 113.721 92.6661C115.63 92.0794 117.566 91.459 119.527 90.8078C122.858 89.6989 126.074 88.5594 129.177 87.3953C130.098 97.3625 130.684 108.245 130.699 119.932Z" fill="white"/>
<path d="M34.6757 83.7708C33.2516 87.1649 31.3578 91.0197 28.8288 95.0834C25.7013 100.109 22.4049 104.157 19.4738 107.308C27.0272 110.724 35.9832 114.179 46.2405 117.073C58.0294 120.399 68.7901 122.205 77.9456 123.173C81.2143 119.963 85.0079 115.672 88.602 110.168C91.5576 105.637 93.6877 101.343 95.2284 97.6543C85.3701 96.1063 74.8979 94.122 63.9131 91.5818C53.5207 89.1829 43.7636 86.5352 34.6757 83.7708Z" fill="#C8B9FC"/>
<path d="M110.627 123.173C107.68 119.742 104.424 115.426 101.333 110.168C98.6844 105.662 96.7078 101.405 95.2254 97.6543C103.15 95.6394 111.541 93.2128 120.304 90.2825C127.67 87.8191 134.604 85.2329 141.095 82.6005C142.455 85.7212 144.37 89.4041 147.071 93.265C150.61 98.3178 154.372 102.062 157.466 104.71C150.92 107.837 143.9 110.948 136.417 113.952C127.415 117.564 118.782 120.605 110.627 123.173Z" fill="#988CF4"/>
<path d="M34.6757 83.7708C41.5323 80.4689 49.4755 77.127 58.456 74.1568C66.2795 71.5705 73.6241 69.6815 80.2844 68.2962C80.2844 77.1853 80.2844 86.0745 80.2844 94.9636C73.5628 93.7503 66.5312 92.2913 59.2356 90.5436C50.5221 88.455 42.3273 86.1605 34.6757 83.7708Z" fill="#988CF4"/>
<path d="M141.095 82.6005C131.823 79.1757 121.13 75.84 109.129 73.1186C98.7273 70.7596 89.0347 69.2484 80.2813 68.2962C80.2813 77.1853 80.2813 86.0745 80.2813 94.9636C85.2626 95.8605 90.244 96.7574 95.2254 97.6543C103.15 95.6394 111.541 93.2128 120.304 90.2825C127.67 87.8222 134.604 85.2329 141.095 82.6005Z" fill="#7872F7"/>
<path d="M95.2254 97.6574C95.5875 99.7799 95.8791 101.915 96.1584 104.052C96.4162 106.19 96.6372 108.334 96.8306 110.481C97.2173 114.775 97.4076 119.085 97.4905 123.397C97.5119 125.553 97.515 127.71 97.472 129.866C97.4137 132.022 97.3585 134.175 97.2204 136.329C97.0884 138.479 96.9411 140.629 96.7446 142.776C96.5267 144.92 96.3057 147.064 96.008 149.195C96.1461 147.045 96.3027 144.898 96.4009 142.751C96.5267 140.604 96.6157 138.454 96.6802 136.307C96.806 132.01 96.8551 127.71 96.7876 123.413C96.7231 119.115 96.5513 114.818 96.2934 110.527C96.1645 108.38 96.0049 106.236 95.8177 104.092C95.6551 101.942 95.431 99.8014 95.2254 97.6574Z" fill="white"/>
<path d="M28.9577 114.081C31.2074 114.984 33.4695 115.838 35.7499 116.643C38.0303 117.441 40.3261 118.188 42.6495 118.851C43.8066 119.192 44.9729 119.512 46.1423 119.81C47.3086 120.117 48.4841 120.396 49.6596 120.673C52.0137 121.207 54.3832 121.702 56.768 122.141C51.9339 121.735 47.1459 120.783 42.4807 119.438C40.1481 118.759 37.8431 117.982 35.5872 117.088C33.3191 116.207 31.1092 115.199 28.9577 114.081Z" fill="white"/>
<path d="M65.3066 24.4587C65.2482 27.3307 64.7633 32.2851 62.0961 37.6634C58.2565 45.413 52.201 49.3753 49.6167 50.8681C53.0296 52.9783 58.0755 55.583 64.5914 57.2908C70.5396 58.8511 75.7542 59.146 79.5662 59.0754C82.353 57.0205 87.2607 52.8309 90.9776 45.8707C94.7681 38.7692 95.4801 32.2175 95.6121 28.7405C91.5607 27.3644 86.518 26.0007 80.6373 25.1713C74.7782 24.3451 69.5697 24.256 65.3066 24.4587Z" stroke="white" stroke-miterlimit="10" stroke-linecap="round" stroke-dasharray="4 4"/>
<path d="M102.487 68.8276C102.524 70.7105 102.843 73.9571 104.59 77.4802C107.106 82.5575 111.075 85.1561 112.769 86.1328C110.532 87.515 107.226 89.2228 102.954 90.3409C99.0558 91.3637 95.6397 91.5572 93.1383 91.5112C91.3121 90.1627 88.0956 87.4198 85.6617 82.8585C83.1756 78.2051 82.7121 73.911 82.6231 71.6319C85.278 70.7289 88.5836 69.8381 92.4385 69.2945C96.2812 68.7539 99.6911 68.6986 102.487 68.8276Z" stroke="white" stroke-miterlimit="10" stroke-linecap="round" stroke-dasharray="4 4"/>
<path d="M62.222 25.1345C62.1729 27.0419 61.8966 28.9463 61.4178 30.7984C60.939 32.6506 60.2485 34.4505 59.3768 36.1583C58.4929 37.8569 57.4401 39.4695 56.2094 40.9377C55.5955 41.6718 54.9448 42.3721 54.2573 43.0387C53.5637 43.696 52.8455 44.3257 52.0843 44.9C53.5176 43.6468 54.8497 42.2769 56.0252 40.7872C57.2038 39.3006 58.2473 37.7095 59.1006 36.017C59.9845 34.34 60.6628 32.5585 61.1876 30.737C61.4516 29.8248 61.6634 28.9002 61.8322 27.9634C62.0133 27.0296 62.1299 26.0836 62.222 25.1345Z" fill="white"/>
</g>
<defs>
<linearGradient id="paint0_linear_272_857" x1="7.82608" y1="103.257" x2="172.175" y2="103.257" gradientUnits="userSpaceOnUse">
<stop stop-color="#7F47DD"/>
<stop offset="1" stop-color="#2C10A9"/>
</linearGradient>
<linearGradient id="paint1_linear_272_857" x1="14.3853" y1="60.1455" x2="39.8519" y2="60.1455" gradientUnits="userSpaceOnUse">
<stop stop-color="#7F47DD"/>
<stop offset="1" stop-color="#2C10A9"/>
</linearGradient>
<linearGradient id="paint2_linear_272_857" x1="89.0296" y1="28.9895" x2="141.991" y2="28.9895" gradientUnits="userSpaceOnUse">
<stop stop-color="#7F47DD"/>
<stop offset="1" stop-color="#2C10A9"/>
</linearGradient>
<linearGradient id="paint3_linear_272_857" x1="72.5133" y1="168.227" x2="98.0977" y2="168.227" gradientUnits="userSpaceOnUse">
<stop stop-color="#7F47DD"/>
<stop offset="1" stop-color="#2C10A9"/>
</linearGradient>
<linearGradient id="paint4_linear_272_857" x1="11.8262" y1="162.019" x2="25.2456" y2="162.019" gradientUnits="userSpaceOnUse">
<stop stop-color="#7F47DD"/>
<stop offset="1" stop-color="#2C10A9"/>
</linearGradient>
<clipPath id="clip0_272_857">
<rect width="164.348" height="172.008" fill="white" transform="translate(7.82608 3.91296)"/>
</clipPath>
</defs>
</svg>
