<svg width="1980" height="830" viewBox="0 0 1980 830" fill="none" xmlns="http://www.w3.org/2000/svg">
<g filter="url(#filter0_b_547_485)">
<path d="M1980 582.72L0 830V0H1980V582.72Z" fill="url(#paint0_linear_547_485)"/>
</g>
<g opacity="0.4">
<mask id="mask0_547_485" style="mask-type:alpha" maskUnits="userSpaceOnUse" x="0" y="0" width="1276" height="620">
<rect width="1276" height="619.181" rx="20" fill="url(#paint1_linear_547_485)"/>
</mask>
<g mask="url(#mask0_547_485)">
<path d="M95.8778 -259.822L92.6339 -220.16C68.4804 75.1471 402.383 269.785 719.159 145.053L763.321 127.665C1060.98 10.4596 1374.25 194.686 1349.14 472.174L1341.17 560.28C1322.86 762.696 1527.43 911.536 1756.1 862.17V862.17" stroke="white" stroke-width="0.653416"/>
<path d="M78.3107 -238.36L75.0667 -198.698C50.9133 96.6088 384.816 291.247 701.592 166.515L745.753 149.126C1043.41 31.9213 1356.68 216.148 1331.58 493.636L1323.6 581.742C1305.29 784.157 1509.86 932.998 1738.53 883.631V883.631" stroke="white" stroke-width="0.653416"/>
<path d="M60.7384 -216.892L57.4945 -177.231C33.341 118.077 367.243 312.715 684.02 187.983L728.181 170.594C1025.84 53.3891 1339.11 237.616 1314 515.103L1306.03 603.21C1287.72 805.625 1492.29 954.465 1720.96 905.099V905.099" stroke="white" stroke-width="0.653416"/>
<path d="M43.1664 -195.431L39.9224 -155.769C15.769 139.538 349.672 334.176 666.448 209.444L710.609 192.056C1008.27 74.8507 1321.54 259.077 1296.43 536.565L1288.46 624.672C1270.15 827.087 1474.72 975.927 1703.39 926.561V926.561" stroke="white" stroke-width="0.653416"/>
<path d="M25.5937 -173.965L22.3497 -134.303C-1.80376 161.004 332.099 355.642 648.875 230.91L693.036 213.521C990.697 96.3163 1303.97 280.543 1278.86 558.031L1270.89 646.137C1252.57 848.552 1457.15 997.393 1685.82 948.026V948.026" stroke="white" stroke-width="0.653416"/>
<path d="M8.0214 -152.501L4.77742 -112.839C-19.376 182.468 314.526 377.106 631.303 252.374L675.464 234.985C973.124 117.78 1286.39 302.007 1261.29 579.495L1253.32 667.601C1235 870.016 1439.57 1018.86 1668.24 969.49V969.49" stroke="white" stroke-width="0.653416"/>
<path d="M-9.55062 -131.038L-12.7946 -91.3762C-36.9481 203.931 296.954 398.569 613.731 273.837L657.892 256.448C955.552 139.244 1268.82 323.47 1243.72 600.958L1235.74 689.064C1217.43 891.48 1422 1040.32 1650.67 990.954V990.954" stroke="white" stroke-width="0.653416"/>
<path d="M-27.12 -109.572L-30.3639 -69.9103C-54.5174 225.397 279.385 420.035 596.161 295.303L640.323 277.914C937.983 160.709 1251.25 344.936 1226.15 622.424L1218.17 710.53C1199.86 912.945 1404.43 1061.79 1633.1 1012.42V1012.42" stroke="white" stroke-width="0.653416"/>
<path d="M-44.6961 -88.1084L-47.9401 -48.4466C-72.0936 246.861 261.809 441.499 578.585 316.767L622.747 299.378C920.407 182.173 1233.68 366.4 1208.57 643.887L1200.6 731.994C1182.28 934.409 1386.86 1083.25 1615.53 1033.88V1033.88" stroke="white" stroke-width="0.653416"/>
<path d="M-62.2633 -66.645L-65.5072 -26.9832C-89.6607 268.324 244.242 462.962 561.018 338.23L605.179 320.841C902.84 203.637 1216.11 387.863 1191 665.351L1183.03 753.457C1164.72 955.873 1369.29 1104.71 1597.96 1055.35V1055.35" stroke="white" stroke-width="0.653416"/>
<path d="M-79.837 -45.1811L-83.081 -5.51924C-107.234 289.788 226.668 484.426 543.444 359.694L587.606 342.305C885.266 225.1 1198.53 409.327 1173.43 686.815L1165.46 774.921C1147.14 977.336 1351.72 1126.18 1580.39 1076.81V1076.81" stroke="white" stroke-width="0.653416"/>
<path d="M-97.409 -23.7155L-100.653 15.9463C-124.806 311.254 209.096 505.892 525.872 381.16L570.034 363.771C867.694 246.566 1180.96 430.793 1155.86 708.28L1147.89 796.387C1129.57 998.802 1334.14 1147.64 1562.81 1098.28V1098.28" stroke="white" stroke-width="0.653416"/>
<path d="M-114.976 -2.25143L-118.22 37.4104C-142.373 332.718 191.529 527.356 508.306 402.624L552.467 385.235C850.127 268.03 1163.4 452.257 1138.29 729.744L1130.32 817.851C1112 1020.27 1316.58 1169.11 1545.25 1119.74V1119.74" stroke="white" stroke-width="0.653416"/>
<path d="M-132.549 19.214L-135.793 58.8758C-159.947 354.183 173.956 548.821 490.732 424.089L534.893 406.7C832.554 289.496 1145.82 473.722 1120.72 751.21L1112.74 839.316C1094.43 1041.73 1299 1190.57 1527.67 1141.21V1141.21" stroke="white" stroke-width="0.653416"/>
<path d="M-150.12 40.6798L-153.364 80.3416C-177.517 375.649 156.385 570.287 473.161 445.555L517.323 428.166C814.983 310.961 1128.25 495.188 1103.15 772.676L1095.17 860.782C1076.86 1063.2 1281.43 1212.04 1510.1 1162.67V1162.67" stroke="white" stroke-width="0.653416"/>
<path d="M-167.279 61.6341L-170.523 101.296C-194.676 396.603 139.226 591.241 456.002 466.509L500.164 449.121C797.824 331.916 1111.09 516.142 1085.99 793.63L1078.02 881.736C1059.7 1084.15 1264.27 1232.99 1492.94 1183.63V1183.63" stroke="white" stroke-width="0.653416"/>
<path d="M-184.431 82.5904L-187.675 122.252C-211.828 417.559 122.074 612.197 438.85 487.466L483.012 470.077C780.672 352.872 1093.94 537.098 1068.83 814.586L1060.86 902.693C1042.55 1105.11 1247.12 1253.95 1475.79 1204.58V1204.58" stroke="white" stroke-width="0.653416"/>
<path d="M-201.588 103.547L-204.832 143.209C-228.986 438.516 104.917 633.154 421.693 508.422L465.854 491.033C763.515 373.828 1076.78 558.055 1051.68 835.543L1043.71 923.649C1025.39 1126.06 1229.96 1274.9 1458.64 1225.54V1225.54" stroke="white" stroke-width="0.653416"/>
<path d="M-218.743 124.505L-221.987 164.167C-246.14 459.474 87.7623 654.112 404.538 529.38L448.7 511.992C746.36 394.787 1059.63 579.013 1034.52 856.501L1026.55 944.607C1008.24 1147.02 1212.81 1295.86 1441.48 1246.5V1246.5" stroke="white" stroke-width="0.653416"/>
<path d="M-235.9 145.46L-239.144 185.121C-263.298 480.429 70.6048 675.067 387.381 550.335L431.542 532.946C729.203 415.741 1042.47 599.968 1017.37 877.455L1009.39 965.562C991.08 1167.98 1195.65 1316.82 1424.32 1267.45V1267.45" stroke="white" stroke-width="0.653416"/>
<path d="M-253.055 166.418L-256.299 206.08C-280.452 501.387 53.4503 696.025 370.226 571.293L414.388 553.904C712.048 436.699 1025.32 620.926 1000.21 898.414L992.239 986.52C973.926 1188.94 1178.5 1337.78 1407.17 1288.41V1288.41" stroke="white" stroke-width="0.653416"/>
<path d="M-270.212 187.372L-273.456 227.034C-297.61 522.341 36.2928 716.979 353.069 592.247L397.23 574.858C694.891 457.653 1008.16 641.88 983.054 919.368L975.082 1007.47C956.768 1209.89 1161.34 1358.73 1390.01 1309.36V1309.36" stroke="white" stroke-width="0.653416"/>
<path d="M-287.365 208.328L-290.609 247.99C-314.763 543.297 19.14 737.935 335.916 613.203L380.078 595.815C677.738 478.61 991.007 662.836 965.901 940.324L957.929 1028.43C939.615 1230.85 1144.19 1379.69 1372.86 1330.32V1330.32" stroke="white" stroke-width="0.653416"/>
<path d="M-304.523 229.287L-307.767 268.948C-331.92 564.256 1.98249 758.894 318.759 634.162L362.92 616.773C660.581 499.568 973.849 683.795 948.743 961.282L940.772 1049.39C922.458 1251.8 1127.03 1400.64 1355.7 1351.28V1351.28" stroke="white" stroke-width="0.653416"/>
<path d="M-321.68 250.241L-324.924 289.903C-349.077 585.21 -15.175 779.848 301.601 655.116L345.763 637.728C643.423 520.523 956.692 704.749 931.586 982.237L923.614 1070.34C905.3 1272.76 1109.87 1421.6 1338.54 1372.23V1372.23" stroke="white" stroke-width="0.653416"/>
<path d="M-338.836 271.197L-342.08 310.859C-366.233 606.166 -32.331 800.804 284.445 676.072L328.607 658.684C626.267 541.479 939.536 725.705 914.43 1003.19L906.458 1091.3C888.144 1293.71 1092.72 1442.56 1321.39 1393.19V1393.19" stroke="white" stroke-width="0.653416"/>
<path d="M-355.989 292.154L-359.233 331.815C-383.387 627.123 -49.4841 821.761 267.292 697.029L311.454 679.64C609.114 562.435 922.383 746.662 897.277 1024.15L889.305 1112.26C870.991 1314.67 1075.56 1463.51 1304.23 1414.15V1414.15" stroke="white" stroke-width="0.653416"/>
<path d="M-373.147 313.11L-376.391 352.772C-400.544 648.079 -66.6415 842.717 250.135 717.985L294.296 700.596C591.957 583.392 905.225 767.618 880.119 1045.11L872.148 1133.21C853.834 1335.63 1058.41 1484.47 1287.08 1435.1V1435.1" stroke="white" stroke-width="0.653416"/>
<path d="M-390.301 334.068L-393.545 373.73C-417.699 669.037 -83.7961 863.675 232.98 738.943L277.142 721.555C574.802 604.35 888.071 788.576 862.965 1066.06L854.993 1154.17C836.679 1356.59 1041.25 1505.43 1269.92 1456.06V1456.06" stroke="white" stroke-width="0.653416"/>
</g>
</g>
<defs>
<filter id="filter0_b_547_485" x="-320" y="-320" width="2620" height="1470" filterUnits="userSpaceOnUse" color-interpolation-filters="sRGB">
<feFlood flood-opacity="0" result="BackgroundImageFix"/>
<feGaussianBlur in="BackgroundImage" stdDeviation="160"/>
<feComposite in2="SourceAlpha" operator="in" result="effect1_backgroundBlur_547_485"/>
<feBlend mode="normal" in="SourceGraphic" in2="effect1_backgroundBlur_547_485" result="shape"/>
</filter>
<linearGradient id="paint0_linear_547_485" x1="19.4999" y1="6.78521e-05" x2="1440" y2="643.499" gradientUnits="userSpaceOnUse">
<stop stop-color="#5F3BDC"/>
<stop offset="1" stop-color="#7A4FE8"/>
</linearGradient>
<linearGradient id="paint1_linear_547_485" x1="2.00843e-05" y1="48.1585" x2="730.64" y2="640.445" gradientUnits="userSpaceOnUse">
<stop stop-color="#C4C4C4"/>
<stop offset="1" stop-color="#C4C4C4" stop-opacity="0"/>
</linearGradient>
</defs>
</svg>
