<svg width="1980" height="830" viewBox="0 0 1980 830" fill="none" xmlns="http://www.w3.org/2000/svg">
<g filter="url(#filter0_b_547_485)">
<path d="M1980 582.72L0 830V0H1980V582.72Z" fill="url(#paint0_linear_547_485)"/>
</g>
<g opacity="0.4">
<mask id="mask0_547_485" style="mask-type:alpha" maskUnits="userSpaceOnUse" x="0" y="80" width="1276" height="620">
<rect y="80" width="1276" height="619.181" rx="20" fill="url(#paint1_linear_547_485)"/>
</mask>
<g mask="url(#mask0_547_485)">
<path d="M95.8778 -179.822L92.6339 -140.16C68.4804 155.147 402.383 349.785 719.159 225.053L763.321 207.665C1060.98 90.4596 1374.25 274.686 1349.14 552.174L1341.17 640.28C1322.86 842.696 1527.43 991.536 1756.1 942.17V942.17" stroke="white" stroke-width="0.653416"/>
<path d="M78.3107 -158.36L75.0667 -118.698C50.9133 176.609 384.816 371.247 701.592 246.515L745.753 229.126C1043.41 111.921 1356.68 296.148 1331.58 573.636L1323.6 661.742C1305.29 864.157 1509.86 1013 1738.53 963.631V963.631" stroke="white" stroke-width="0.653416"/>
<path d="M60.7384 -136.892L57.4945 -97.2307C33.341 198.077 367.243 392.715 684.02 267.983L728.181 250.594C1025.84 133.389 1339.11 317.616 1314 595.103L1306.03 683.21C1287.72 885.625 1492.29 1034.47 1720.96 985.099V985.099" stroke="white" stroke-width="0.653416"/>
<path d="M43.1664 -115.431L39.9224 -75.7689C15.769 219.538 349.672 414.176 666.448 289.444L710.609 272.056C1008.27 154.851 1321.54 339.077 1296.43 616.565L1288.46 704.672C1270.15 907.087 1474.72 1055.93 1703.39 1006.56V1006.56" stroke="white" stroke-width="0.653416"/>
<path d="M25.5937 -93.9652L22.3497 -54.3034C-1.80376 241.004 332.099 435.642 648.875 310.91L693.036 293.521C990.697 176.316 1303.97 360.543 1278.86 638.031L1270.89 726.137C1252.57 928.552 1457.15 1077.39 1685.82 1028.03V1028.03" stroke="white" stroke-width="0.653416"/>
<path d="M8.0214 -72.5012L4.77742 -32.8394C-19.376 262.468 314.526 457.106 631.303 332.374L675.464 314.985C973.124 197.78 1286.39 382.007 1261.29 659.495L1253.32 747.601C1235 950.016 1439.57 1098.86 1668.24 1049.49V1049.49" stroke="white" stroke-width="0.653416"/>
<path d="M-9.55062 -51.038L-12.7946 -11.3762C-36.9481 283.931 296.954 478.569 613.731 353.837L657.892 336.448C955.552 219.244 1268.82 403.47 1243.72 680.958L1235.74 769.064C1217.43 971.48 1422 1120.32 1650.67 1070.95V1070.95" stroke="white" stroke-width="0.653416"/>
<path d="M-27.12 -29.5721L-30.3639 10.0897C-54.5174 305.397 279.385 500.035 596.161 375.303L640.323 357.914C937.983 240.709 1251.25 424.936 1226.15 702.424L1218.17 790.53C1199.86 992.945 1404.43 1141.79 1633.1 1092.42V1092.42" stroke="white" stroke-width="0.653416"/>
<path d="M-44.6961 -8.10837L-47.9401 31.5534C-72.0936 326.861 261.809 521.499 578.585 396.767L622.747 379.378C920.407 262.173 1233.68 446.4 1208.57 723.887L1200.6 811.994C1182.28 1014.41 1386.86 1163.25 1615.53 1113.88V1113.88" stroke="white" stroke-width="0.653416"/>
<path d="M-62.2633 13.355L-65.5072 53.0168C-89.6607 348.324 244.242 542.962 561.018 418.23L605.179 400.841C902.84 283.637 1216.11 467.863 1191 745.351L1183.03 833.457C1164.72 1035.87 1369.29 1184.71 1597.96 1135.35V1135.35" stroke="white" stroke-width="0.653416"/>
<path d="M-79.837 34.8189L-83.081 74.4808C-107.234 369.788 226.668 564.426 543.444 439.694L587.606 422.305C885.266 305.1 1198.53 489.327 1173.43 766.815L1165.46 854.921C1147.14 1057.34 1351.72 1206.18 1580.39 1156.81V1156.81" stroke="white" stroke-width="0.653416"/>
<path d="M-97.409 56.2845L-100.653 95.9463C-124.806 391.254 209.096 585.892 525.872 461.16L570.034 443.771C867.694 326.566 1180.96 510.793 1155.86 788.28L1147.89 876.387C1129.57 1078.8 1334.14 1227.64 1562.81 1178.28V1178.28" stroke="white" stroke-width="0.653416"/>
<path d="M-114.976 77.7486L-118.22 117.41C-142.373 412.718 191.529 607.356 508.306 482.624L552.467 465.235C850.127 348.03 1163.4 532.257 1138.29 809.744L1130.32 897.851C1112 1100.27 1316.58 1249.11 1545.25 1199.74V1199.74" stroke="white" stroke-width="0.653416"/>
<path d="M-132.549 99.214L-135.793 138.876C-159.947 434.183 173.956 628.821 490.732 504.089L534.893 486.7C832.554 369.496 1145.82 553.722 1120.72 831.21L1112.74 919.316C1094.43 1121.73 1299 1270.57 1527.67 1221.21V1221.21" stroke="white" stroke-width="0.653416"/>
<path d="M-150.12 120.68L-153.364 160.342C-177.517 455.649 156.385 650.287 473.161 525.555L517.323 508.166C814.983 390.961 1128.25 575.188 1103.15 852.676L1095.17 940.782C1076.86 1143.2 1281.43 1292.04 1510.1 1242.67V1242.67" stroke="white" stroke-width="0.653416"/>
<path d="M-167.279 141.634L-170.523 181.296C-194.676 476.603 139.226 671.241 456.002 546.509L500.164 529.121C797.824 411.916 1111.09 596.142 1085.99 873.63L1078.02 961.736C1059.7 1164.15 1264.27 1312.99 1492.94 1263.63V1263.63" stroke="white" stroke-width="0.653416"/>
<path d="M-184.431 162.59L-187.675 202.252C-211.828 497.559 122.074 692.197 438.85 567.466L483.012 550.077C780.672 432.872 1093.94 617.098 1068.83 894.586L1060.86 982.693C1042.55 1185.11 1247.12 1333.95 1475.79 1284.58V1284.58" stroke="white" stroke-width="0.653416"/>
<path d="M-201.588 183.547L-204.832 223.209C-228.986 518.516 104.917 713.154 421.693 588.422L465.854 571.033C763.515 453.828 1076.78 638.055 1051.68 915.543L1043.71 1003.65C1025.39 1206.06 1229.96 1354.9 1458.64 1305.54V1305.54" stroke="white" stroke-width="0.653416"/>
<path d="M-218.743 204.505L-221.987 244.167C-246.14 539.474 87.7623 734.112 404.538 609.38L448.7 591.992C746.36 474.787 1059.63 659.013 1034.52 936.501L1026.55 1024.61C1008.24 1227.02 1212.81 1375.86 1441.48 1326.5V1326.5" stroke="white" stroke-width="0.653416"/>
<path d="M-235.9 225.46L-239.144 265.121C-263.298 560.429 70.6048 755.067 387.381 630.335L431.542 612.946C729.203 495.741 1042.47 679.968 1017.37 957.455L1009.39 1045.56C991.08 1247.98 1195.65 1396.82 1424.32 1347.45V1347.45" stroke="white" stroke-width="0.653416"/>
<path d="M-253.055 246.418L-256.299 286.08C-280.452 581.387 53.4503 776.025 370.226 651.293L414.388 633.904C712.048 516.699 1025.32 700.926 1000.21 978.414L992.239 1066.52C973.926 1268.94 1178.5 1417.78 1407.17 1368.41V1368.41" stroke="white" stroke-width="0.653416"/>
<path d="M-270.212 267.372L-273.456 307.034C-297.61 602.341 36.2928 796.979 353.069 672.247L397.23 654.858C694.891 537.653 1008.16 721.88 983.054 999.368L975.082 1087.47C956.768 1289.89 1161.34 1438.73 1390.01 1389.36V1389.36" stroke="white" stroke-width="0.653416"/>
<path d="M-287.365 288.328L-290.609 327.99C-314.763 623.297 19.14 817.935 335.916 693.203L380.078 675.815C677.738 558.61 991.007 742.836 965.901 1020.32L957.929 1108.43C939.615 1310.85 1144.19 1459.69 1372.86 1410.32V1410.32" stroke="white" stroke-width="0.653416"/>
<path d="M-304.523 309.287L-307.767 348.948C-331.92 644.256 1.98249 838.894 318.759 714.162L362.92 696.773C660.581 579.568 973.849 763.795 948.743 1041.28L940.772 1129.39C922.458 1331.8 1127.03 1480.64 1355.7 1431.28V1431.28" stroke="white" stroke-width="0.653416"/>
<path d="M-321.68 330.241L-324.924 369.903C-349.077 665.21 -15.175 859.848 301.601 735.116L345.763 717.728C643.423 600.523 956.692 784.749 931.586 1062.24L923.614 1150.34C905.3 1352.76 1109.87 1501.6 1338.54 1452.23V1452.23" stroke="white" stroke-width="0.653416"/>
<path d="M-338.836 351.197L-342.08 390.859C-366.233 686.166 -32.331 880.804 284.445 756.072L328.607 738.684C626.267 621.479 939.536 805.705 914.43 1083.19L906.458 1171.3C888.144 1373.71 1092.72 1522.56 1321.39 1473.19V1473.19" stroke="white" stroke-width="0.653416"/>
<path d="M-355.989 372.154L-359.233 411.815C-383.387 707.123 -49.4841 901.761 267.292 777.029L311.454 759.64C609.114 642.435 922.383 826.662 897.277 1104.15L889.305 1192.26C870.991 1394.67 1075.56 1543.51 1304.23 1494.15V1494.15" stroke="white" stroke-width="0.653416"/>
<path d="M-373.147 393.11L-376.391 432.772C-400.544 728.079 -66.6415 922.717 250.135 797.985L294.296 780.596C591.957 663.391 905.225 847.618 880.119 1125.11L872.148 1213.21C853.834 1415.63 1058.41 1564.47 1287.08 1515.1V1515.1" stroke="white" stroke-width="0.653416"/>
<path d="M-390.301 414.068L-393.545 453.73C-417.699 749.037 -83.7961 943.675 232.98 818.944L277.142 801.555C574.802 684.35 888.071 868.576 862.965 1146.06L854.993 1234.17C836.679 1436.59 1041.25 1585.43 1269.92 1536.06V1536.06" stroke="white" stroke-width="0.653416"/>
</g>
</g>
<defs>
<filter id="filter0_b_547_485" x="-320" y="-320" width="2620" height="1470" filterUnits="userSpaceOnUse" color-interpolation-filters="sRGB">
<feFlood flood-opacity="0" result="BackgroundImageFix"/>
<feGaussianBlur in="BackgroundImage" stdDeviation="160"/>
<feComposite in2="SourceAlpha" operator="in" result="effect1_backgroundBlur_547_485"/>
<feBlend mode="normal" in="SourceGraphic" in2="effect1_backgroundBlur_547_485" result="shape"/>
</filter>
<linearGradient id="paint0_linear_547_485" x1="19.4999" y1="6.78521e-05" x2="1440" y2="643.499" gradientUnits="userSpaceOnUse">
<stop stop-color="#5F3BDC"/>
<stop offset="1" stop-color="#7A4FE8"/>
</linearGradient>
<linearGradient id="paint1_linear_547_485" x1="2.00843e-05" y1="128.158" x2="730.64" y2="720.445" gradientUnits="userSpaceOnUse">
<stop stop-color="#C4C4C4"/>
<stop offset="1" stop-color="#C4C4C4" stop-opacity="0"/>
</linearGradient>
</defs>
</svg>
