<svg width="16" height="16" viewBox="0 0 16 16" fill="none" xmlns="http://www.w3.org/2000/svg">
<path d="M0.5 12.0625V3.9375L1.4375 2.375H6.125L8 2.6875L9.875 2.375H14.5625L15.5 3.9375V12.0625L14.5625 13.625H9.875L8 13.3125L6.125 13.625H1.4375L0.5 12.0625Z" fill="#0053B5"/>
<path d="M0.5 6.125H15.5V9.875H0.5V6.125Z" fill="white"/>
<path d="M0.5 6.75H15.5V9.25H0.5V6.75Z" fill="#D80027"/>
<path d="M6.125 2.375H9.875V13.625H6.125V2.375Z" fill="white"/>
<path d="M6.75 2.375H9.25V13.625H6.75V2.375Z" fill="#D80027"/>
<path d="M15.5 2.375H14.5625L9.875 5.5V6.4375L12.375 6.125L15.5 3.9375V2.375Z" fill="white"/>
<path d="M15.5 2.375L9.875 6.125H11.4375L15.5 3.3125V2.375Z" fill="#D80027"/>
<path d="M0.5 2.375H1.4375L6.125 5.5V6.4375L3.625 6.125L0.5 3.9375V2.375Z" fill="white"/>
<path d="M0.5 2.375L6.125 6.125H4.5625L0.5 3.3125V2.375Z" fill="#D80027"/>
<path d="M0.5 13.625H1.4375L6.125 10.5V9.5625L3.625 9.875L0.5 12.0625V13.625Z" fill="white"/>
<path d="M0.5 13.625L6.125 9.875H4.5625L0.5 12.6875V13.625Z" fill="#D80027"/>
<path d="M15.5 13.625H14.5625L9.875 10.5V9.5625L12.375 9.875L15.5 12.0625V13.625Z" fill="white"/>
<path d="M15.5 13.625L9.875 9.875H11.4375L15.5 12.6875V13.625Z" fill="#D80027"/>
</svg>
