<svg width="184" height="62" viewBox="0 0 184 62" fill="none" xmlns="http://www.w3.org/2000/svg">
<path d="M49.0828 32.14L46.8628 34.42V38H44.2628V24H46.8628V31.18L53.7828 24H56.7028L50.8228 30.26L57.0628 38H54.0228L49.0828 32.14ZM69.1816 27.32V38H66.8016V36.64C66.4016 37.12 65.9016 37.4933 65.3016 37.76C64.7016 38.0133 64.0549 38.14 63.3616 38.14C61.9349 38.14 60.8082 37.7467 59.9816 36.96C59.1682 36.16 58.7616 34.98 58.7616 33.42V27.32H61.2616V33.08C61.2616 34.04 61.4749 34.76 61.9016 35.24C62.3416 35.7067 62.9616 35.94 63.7616 35.94C64.6549 35.94 65.3616 35.6667 65.8816 35.12C66.4149 34.56 66.6816 33.76 66.6816 32.72V27.32H69.1816ZM79.1148 27.2C80.4615 27.2 81.5415 27.5933 82.3548 28.38C83.1682 29.1667 83.5748 30.3333 83.5748 31.88V38H81.0748V32.2C81.0748 31.2667 80.8548 30.5667 80.4148 30.1C79.9748 29.62 79.3482 29.38 78.5348 29.38C77.6148 29.38 76.8882 29.66 76.3548 30.22C75.8215 30.7667 75.5548 31.56 75.5548 32.6V38H73.0548V27.32H75.4348V28.7C75.8482 28.2067 76.3682 27.8333 76.9948 27.58C77.6215 27.3267 78.3282 27.2 79.1148 27.2ZM92.3439 38.14C91.2372 38.14 90.2439 37.9067 89.3639 37.44C88.4839 36.9733 87.7972 36.3267 87.3039 35.5C86.8106 34.66 86.5639 33.7133 86.5639 32.66C86.5639 31.6067 86.8106 30.6667 87.3039 29.84C87.7972 29.0133 88.4772 28.3667 89.3439 27.9C90.2239 27.4333 91.2239 27.2 92.3439 27.2C93.3972 27.2 94.3172 27.4133 95.1039 27.84C95.9039 28.2667 96.5039 28.88 96.9039 29.68L94.9839 30.8C94.6772 30.3067 94.2906 29.94 93.8239 29.7C93.3706 29.4467 92.8706 29.32 92.3239 29.32C91.3906 29.32 90.6172 29.6267 90.0039 30.24C89.3906 30.84 89.0839 31.6467 89.0839 32.66C89.0839 33.6733 89.3839 34.4867 89.9839 35.1C90.5972 35.7 91.3772 36 92.3239 36C92.8706 36 93.3706 35.88 93.8239 35.64C94.2906 35.3867 94.6772 35.0133 94.9839 34.52L96.9039 35.64C96.4906 36.44 95.8839 37.06 95.0839 37.5C94.2972 37.9267 93.3839 38.14 92.3439 38.14ZM99.665 27.32H102.165V38H99.665V27.32ZM100.925 25.56C100.472 25.56 100.092 25.42 99.785 25.14C99.4783 24.8467 99.325 24.4867 99.325 24.06C99.325 23.6333 99.4783 23.28 99.785 23C100.092 22.7067 100.472 22.56 100.925 22.56C101.378 22.56 101.758 22.7 102.065 22.98C102.372 23.2467 102.525 23.5867 102.525 24C102.525 24.44 102.372 24.8133 102.065 25.12C101.772 25.4133 101.392 25.56 100.925 25.56ZM126.551 24L121.911 38H119.151L115.691 27.64L112.171 38H109.391L104.751 24H107.451L110.931 34.64L114.551 24H116.951L120.491 34.7L124.071 24H126.551ZM132.308 27.2C133.882 27.2 135.082 27.58 135.908 28.34C136.748 29.0867 137.168 30.22 137.168 31.74V38H134.808V36.7C134.502 37.1667 134.062 37.5267 133.488 37.78C132.928 38.02 132.248 38.14 131.448 38.14C130.648 38.14 129.948 38.0067 129.348 37.74C128.748 37.46 128.282 37.08 127.948 36.6C127.628 36.1067 127.468 35.5533 127.468 34.94C127.468 33.98 127.822 33.2133 128.528 32.64C129.248 32.0533 130.375 31.76 131.908 31.76H134.668V31.6C134.668 30.8533 134.442 30.28 133.988 29.88C133.548 29.48 132.888 29.28 132.008 29.28C131.408 29.28 130.815 29.3733 130.228 29.56C129.655 29.7467 129.168 30.0067 128.768 30.34L127.788 28.52C128.348 28.0933 129.022 27.7667 129.808 27.54C130.595 27.3133 131.428 27.2 132.308 27.2ZM131.968 36.32C132.595 36.32 133.148 36.18 133.628 35.9C134.122 35.6067 134.468 35.1933 134.668 34.66V33.42H132.088C130.648 33.42 129.928 33.8933 129.928 34.84C129.928 35.2933 130.108 35.6533 130.468 35.92C130.828 36.1867 131.328 36.32 131.968 36.32ZM140.977 23.16H143.477V38H140.977V23.16ZM147.358 23.16H149.858V38H147.358V23.16ZM163.779 32.72C163.779 32.8933 163.766 33.14 163.739 33.46H155.359C155.506 34.2467 155.886 34.8733 156.499 35.34C157.126 35.7933 157.899 36.02 158.819 36.02C159.993 36.02 160.959 35.6333 161.719 34.86L163.059 36.4C162.579 36.9733 161.973 37.4067 161.239 37.7C160.506 37.9933 159.679 38.14 158.759 38.14C157.586 38.14 156.553 37.9067 155.659 37.44C154.766 36.9733 154.073 36.3267 153.579 35.5C153.099 34.66 152.859 33.7133 152.859 32.66C152.859 31.62 153.093 30.6867 153.559 29.86C154.039 29.02 154.699 28.3667 155.539 27.9C156.379 27.4333 157.326 27.2 158.379 27.2C159.419 27.2 160.346 27.4333 161.159 27.9C161.986 28.3533 162.626 29 163.079 29.84C163.546 30.6667 163.779 31.6267 163.779 32.72ZM158.379 29.2C157.579 29.2 156.899 29.44 156.339 29.92C155.793 30.3867 155.459 31.0133 155.339 31.8H161.399C161.293 31.0267 160.966 30.4 160.419 29.92C159.873 29.44 159.193 29.2 158.379 29.2ZM173.201 37.42C172.907 37.66 172.547 37.84 172.121 37.96C171.707 38.08 171.267 38.14 170.801 38.14C169.627 38.14 168.721 37.8333 168.081 37.22C167.441 36.6067 167.121 35.7133 167.121 34.54V29.4H165.361V27.4H167.121V24.96H169.621V27.4H172.481V29.4H169.621V34.48C169.621 35 169.747 35.4 170.001 35.68C170.254 35.9467 170.621 36.08 171.101 36.08C171.661 36.08 172.127 35.9333 172.501 35.64L173.201 37.42Z" fill="white"/>
<path d="M30.4822 26C27.416 26 24.8404 28.1317 24.157 30.9798H10V34.0202H24.157C24.8404 36.8683 27.416 39 30.4822 39C34.074 39 37 36.082 37 32.5C37 28.918 34.074 26 30.4822 26ZM30.4822 36.082C28.5023 36.082 26.8903 34.4745 26.8903 32.5C26.8903 30.5255 28.5023 28.918 30.4822 28.918C32.462 28.918 34.074 30.5255 34.074 32.5C34.074 34.4745 32.462 36.082 30.4822 36.082Z" fill="white"/>
<path d="M30 31V34C31.1136 34 32 33.3352 32 32.5C32 31.6648 31.0909 31 30 31Z" fill="white"/>
<path d="M20.406 26.0913C20.406 27.0776 19.6179 27.8813 18.6328 27.863C17.6657 27.863 16.8776 27.0594 16.8955 26.0548C16.8955 26.0365 16.8955 26.0365 16.8955 26.0183H15.9821H15.9642H15.2119C15.2119 26.0365 15.2119 26.0365 15.2119 26.0365C15.2119 27.0228 14.4239 27.8265 13.4388 27.8082C12.4716 27.8082 11.6836 27.0046 11.7015 26H10.0179L10 30H21.9821L22 26.0731L20.406 26.0548C20.406 26.0731 20.406 26.0731 20.406 26.0913Z" fill="white"/>
</svg>
