<svg width="65" height="36" viewBox="0 0 65 36" fill="none" xmlns="http://www.w3.org/2000/svg">
<path d="M11 22.0625V13.9375L11.9375 12.375H16.625L18.5 12.6875L20.375 12.375H25.0625L26 13.9375V22.0625L25.0625 23.625H20.375L18.5 23.3125L16.625 23.625H11.9375L11 22.0625Z" fill="#0053B5"/>
<path d="M11 16.125H26V19.875H11V16.125Z" fill="white"/>
<path d="M11 16.75H26V19.25H11V16.75Z" fill="#D80027"/>
<path d="M16.625 12.375H20.375V23.625H16.625V12.375Z" fill="white"/>
<path d="M17.25 12.375H19.75V23.625H17.25V12.375Z" fill="#D80027"/>
<path d="M26 12.375H25.0625L20.375 15.5V16.4375L22.875 16.125L26 13.9375V12.375Z" fill="white"/>
<path d="M26 12.375L20.375 16.125H21.9375L26 13.3125V12.375Z" fill="#D80027"/>
<path d="M11 12.375H11.9375L16.625 15.5V16.4375L14.125 16.125L11 13.9375V12.375Z" fill="white"/>
<path d="M11 12.375L16.625 16.125H15.0625L11 13.3125V12.375Z" fill="#D80027"/>
<path d="M11 23.625H11.9375L16.625 20.5V19.5625L14.125 19.875L11 22.0625V23.625Z" fill="white"/>
<path d="M11 23.625L16.625 19.875H15.0625L11 22.6875V23.625Z" fill="#D80027"/>
<path d="M26 23.625H25.0625L20.375 20.5V19.5625L22.875 19.875L26 22.0625V23.625Z" fill="white"/>
<path d="M26 23.625L20.375 19.875H21.9375L26 22.6875V23.625Z" fill="#D80027"/>
<path d="M39.4092 14.558V17.414H42.7692V18.716H39.4092V21.698H43.1892V23H37.8132V13.256H43.1892V14.558H39.4092ZM53.191 23H51.595L46.793 15.734V23H45.197V13.256H46.793L51.595 20.508V13.256H53.191V23Z" fill="white"/>
</svg>
