<svg width="142" height="24" viewBox="0 0 142 24" fill="none" xmlns="http://www.w3.org/2000/svg">
<path d="M42.3662 13.312L40.5902 15.136V18H38.5102V6.8H40.5902V12.544L46.1262 6.8H48.4622L43.7582 11.808L48.7502 18H46.3182L42.3662 13.312ZM58.4452 9.456V18H56.5412V16.912C56.2212 17.296 55.8212 17.5947 55.3412 17.808C54.8612 18.0107 54.3439 18.112 53.7892 18.112C52.6479 18.112 51.7466 17.7973 51.0852 17.168C50.4346 16.528 50.1092 15.584 50.1092 14.336V9.456H52.1092V14.064C52.1092 14.832 52.2799 15.408 52.6212 15.792C52.9732 16.1653 53.4692 16.352 54.1092 16.352C54.8239 16.352 55.3892 16.1333 55.8052 15.696C56.2319 15.248 56.4452 14.608 56.4452 13.776V9.456H58.4452ZM66.3919 9.36C67.4692 9.36 68.3332 9.67467 68.9839 10.304C69.6345 10.9333 69.9599 11.8667 69.9599 13.104V18H67.9599V13.36C67.9599 12.6133 67.7839 12.0533 67.4319 11.68C67.0799 11.296 66.5785 11.104 65.9279 11.104C65.1919 11.104 64.6105 11.328 64.1839 11.776C63.7572 12.2133 63.5439 12.848 63.5439 13.68V18H61.5439V9.456H63.4479V10.56C63.7785 10.1653 64.1945 9.86667 64.6959 9.664C65.1972 9.46133 65.7625 9.36 66.3919 9.36ZM76.9751 18.112C76.0898 18.112 75.2951 17.9253 74.5911 17.552C73.8871 17.1787 73.3378 16.6613 72.9431 16C72.5485 15.328 72.3511 14.5707 72.3511 13.728C72.3511 12.8853 72.5485 12.1333 72.9431 11.472C73.3378 10.8107 73.8818 10.2933 74.5751 9.92C75.2791 9.54667 76.0791 9.36 76.9751 9.36C77.8178 9.36 78.5538 9.53067 79.1831 9.872C79.8231 10.2133 80.3031 10.704 80.6231 11.344L79.0871 12.24C78.8418 11.8453 78.5325 11.552 78.1591 11.36C77.7965 11.1573 77.3965 11.056 76.9591 11.056C76.2125 11.056 75.5938 11.3013 75.1031 11.792C74.6125 12.272 74.3671 12.9173 74.3671 13.728C74.3671 14.5387 74.6071 15.1893 75.0871 15.68C75.5778 16.16 76.2018 16.4 76.9591 16.4C77.3965 16.4 77.7965 16.304 78.1591 16.112C78.5325 15.9093 78.8418 15.6107 79.0871 15.216L80.6231 16.112C80.2925 16.752 79.8071 17.248 79.1671 17.6C78.5378 17.9413 77.8071 18.112 76.9751 18.112ZM82.832 9.456H84.832V18H82.832V9.456ZM83.84 8.048C83.4773 8.048 83.1733 7.936 82.928 7.712C82.6827 7.47733 82.56 7.18933 82.56 6.848C82.56 6.50667 82.6827 6.224 82.928 6C83.1733 5.76533 83.4773 5.648 83.84 5.648C84.2027 5.648 84.5067 5.76 84.752 5.984C84.9973 6.19733 85.12 6.46933 85.12 6.8C85.12 7.152 84.9973 7.45067 84.752 7.696C84.5173 7.93067 84.2133 8.048 83.84 8.048ZM104.341 6.8L100.629 18H98.4208L95.6528 9.712L92.8368 18H90.6128L86.9008 6.8H89.0608L91.8448 15.312L94.7408 6.8H96.6608L99.4928 15.36L102.357 6.8H104.341ZM108.947 9.36C110.205 9.36 111.165 9.664 111.827 10.272C112.499 10.8693 112.835 11.776 112.835 12.992V18H110.947V16.96C110.701 17.3333 110.349 17.6213 109.891 17.824C109.443 18.016 108.899 18.112 108.259 18.112C107.619 18.112 107.059 18.0053 106.579 17.792C106.099 17.568 105.725 17.264 105.459 16.88C105.203 16.4853 105.075 16.0427 105.075 15.552C105.075 14.784 105.357 14.1707 105.923 13.712C106.499 13.2427 107.4 13.008 108.627 13.008H110.835V12.88C110.835 12.2827 110.653 11.824 110.291 11.504C109.939 11.184 109.411 11.024 108.707 11.024C108.227 11.024 107.752 11.0987 107.283 11.248C106.824 11.3973 106.435 11.6053 106.115 11.872L105.331 10.416C105.779 10.0747 106.317 9.81333 106.947 9.632C107.576 9.45067 108.243 9.36 108.947 9.36ZM108.675 16.656C109.176 16.656 109.619 16.544 110.003 16.32C110.397 16.0853 110.675 15.7547 110.835 15.328V14.336H108.771C107.619 14.336 107.043 14.7147 107.043 15.472C107.043 15.8347 107.187 16.1227 107.475 16.336C107.763 16.5493 108.163 16.656 108.675 16.656ZM115.881 6.128H117.881V18H115.881V6.128ZM120.986 6.128H122.986V18H120.986V6.128ZM134.123 13.776C134.123 13.9147 134.113 14.112 134.091 14.368H127.387C127.505 14.9973 127.809 15.4987 128.299 15.872C128.801 16.2347 129.419 16.416 130.155 16.416C131.094 16.416 131.867 16.1067 132.475 15.488L133.547 16.72C133.163 17.1787 132.678 17.5253 132.091 17.76C131.505 17.9947 130.843 18.112 130.107 18.112C129.169 18.112 128.342 17.9253 127.627 17.552C126.913 17.1787 126.358 16.6613 125.963 16C125.579 15.328 125.387 14.5707 125.387 13.728C125.387 12.896 125.574 12.1493 125.947 11.488C126.331 10.816 126.859 10.2933 127.531 9.92C128.203 9.54667 128.961 9.36 129.803 9.36C130.635 9.36 131.377 9.54667 132.027 9.92C132.689 10.2827 133.201 10.8 133.563 11.472C133.937 12.1333 134.123 12.9013 134.123 13.776ZM129.803 10.96C129.163 10.96 128.619 11.152 128.171 11.536C127.734 11.9093 127.467 12.4107 127.371 13.04H132.219C132.134 12.4213 131.873 11.92 131.435 11.536C130.998 11.152 130.454 10.96 129.803 10.96ZM141.661 17.536C141.426 17.728 141.138 17.872 140.797 17.968C140.466 18.064 140.114 18.112 139.741 18.112C138.802 18.112 138.077 17.8667 137.565 17.376C137.053 16.8853 136.797 16.1707 136.797 15.232V11.12H135.389V9.52H136.797V7.568H138.797V9.52H141.085V11.12H138.797V15.184C138.797 15.6 138.898 15.92 139.101 16.144C139.303 16.3573 139.597 16.464 139.981 16.464C140.429 16.464 140.802 16.3467 141.101 16.112L141.661 17.536Z" fill="white"/>
<path d="M20.4822 7C17.416 7 14.8404 9.13172 14.157 11.9798H0V15.0202H14.157C14.8404 17.8683 17.416 20 20.4822 20C24.074 20 27 17.082 27 13.5C27 9.91801 24.074 7 20.4822 7ZM20.4822 17.082C18.5023 17.082 16.8903 15.4745 16.8903 13.5C16.8903 11.5255 18.5023 9.91801 20.4822 9.91801C22.462 9.91801 24.074 11.5255 24.074 13.5C24.074 15.4745 22.462 17.082 20.4822 17.082Z" fill="white"/>
<path d="M20 12V15C21.1136 15 22 14.3352 22 13.5C22 12.6648 21.0909 12 20 12Z" fill="white"/>
<path d="M10.406 7.09132C10.406 8.07763 9.61791 8.88128 8.63284 8.86301C7.66567 8.86301 6.87761 8.05936 6.89552 7.05479C6.89552 7.03653 6.89552 7.03653 6.89552 7.01826H5.98209H5.96418H5.21194C5.21194 7.03653 5.21194 7.03653 5.21194 7.03653C5.21194 8.02283 4.42388 8.82648 3.43881 8.80822C2.47164 8.80822 1.68358 8.00457 1.70149 7H0.0179104L0 11H11.9821L12 7.07306L10.406 7.05479C10.406 7.07306 10.406 7.07306 10.406 7.09132Z" fill="white"/>
</svg>
