<svg width="24" height="24" viewBox="0 0 24 24" fill="none" xmlns="http://www.w3.org/2000/svg">
<path fill-rule="evenodd" clip-rule="evenodd" d="M21.6 11.9999C21.6 17.3018 17.3019 21.5999 12 21.5999C6.69806 21.5999 2.39999 17.3018 2.39999 11.9999C2.39999 6.69797 6.69806 2.3999 12 2.3999C17.3019 2.3999 21.6 6.69797 21.6 11.9999ZM13.2 16.7999C13.2 17.4626 12.6627 17.9999 12 17.9999C11.3373 17.9999 10.8 17.4626 10.8 16.7999C10.8 16.1372 11.3373 15.5999 12 15.5999C12.6627 15.5999 13.2 16.1372 13.2 16.7999ZM12 5.9999C11.3373 5.9999 10.8 6.53716 10.8 7.1999V11.9999C10.8 12.6626 11.3373 13.1999 12 13.1999C12.6627 13.1999 13.2 12.6626 13.2 11.9999V7.1999C13.2 6.53716 12.6627 5.9999 12 5.9999Z" fill="#AB6626"/>
</svg>
