<svg width="24" height="24" viewBox="0 0 24 24" fill="none" xmlns="http://www.w3.org/2000/svg">
<path fill-rule="evenodd" clip-rule="evenodd" d="M7 6.90479C4.79086 6.90479 3 8.69565 3 10.9048V16.9048C3 19.1139 4.79086 20.9048 7 20.9048H17C19.1252 20.9048 20.8633 19.2475 20.9923 17.1548H16.5208C14.7259 17.1548 13.2708 15.6997 13.2708 13.9048C13.2708 12.1099 14.7259 10.6548 16.5208 10.6548H20.9923C20.8633 8.5621 19.1252 6.90479 17 6.90479H7Z" fill="white"/>
<path d="M14.8489 4.88016C13.8122 4.28159 12.9764 3.799 12.2666 3.4943C11.532 3.17892 10.8435 3.01311 10.1125 3.1358C9.87684 3.17535 9.64548 3.23734 9.4216 3.32093C8.72717 3.58019 8.21389 4.06799 7.73537 4.70843C7.64044 4.83548 7.54466 4.97169 7.44719 5.1169C7.2263 5.44601 7.11586 5.61057 7.12851 5.72035C7.13801 5.8028 7.16876 5.86047 7.23193 5.91431C7.31603 5.986 7.54402 5.986 7.99999 5.986H8.67027H13.7639H16.0179C16.3178 5.986 16.4678 5.986 16.4877 5.91188C16.5075 5.83776 16.3777 5.76277 16.1179 5.61279L14.8489 4.88016Z" fill="white"/>
<circle cx="16.5105" cy="13.9048" r="1" fill="white"/>
</svg>
