<svg width="812" height="913" viewBox="0 0 812 913" fill="none" xmlns="http://www.w3.org/2000/svg">
<g opacity="0.7">
<g opacity="0.1" filter="url(#filter0_f_4_1690)">
<path d="M494.366 580.457C477.311 589.996 459.787 591.891 442.811 580.914C425.913 570.003 424.349 555.172 430.92 536.877C408.781 540.863 388.832 540.798 375.767 524.267C364.58 510.155 367.239 496.303 378.348 482.975C379.756 481.864 381.087 480.753 382.495 479.643C390.396 474.873 399.627 470.299 408.78 471.802C425.6 474.612 422.549 468.078 423.41 458.212C424.661 444.557 422.94 438.938 404.556 441.159C397.906 441.943 390.24 436.978 382.964 434.626C381.008 432.992 379.131 431.424 377.175 429.791C367.396 416.201 364.423 402.284 376.236 388.498C389.301 373.209 407.841 371.902 430.607 376.999C424.818 358.312 425.678 341.913 445.393 331.067C462.213 321.789 478.72 324.141 494.601 333.288C495.931 334.465 497.26 335.575 498.59 336.751C501.798 343.416 508.839 350.537 507.587 356.548C504.301 372.752 513.532 369.812 526.988 370.726C543.182 371.837 544.59 368.178 544.121 356.614C543.886 350.08 549.989 343.35 553.274 336.751C554.683 335.51 556.169 334.334 557.577 333.092C574.553 323.161 591.999 321.463 609.053 332.243C626.029 343.024 628.064 357.855 621.492 376.019C643.084 372.882 663.268 372.098 676.411 388.759C687.598 402.872 685.095 416.658 674.455 430.117C672.812 431.489 671.169 432.861 669.526 434.168C661.469 436.782 653.019 442.205 645.431 441.486C629.002 439.918 629.159 444.818 629.394 456.448C629.628 467.686 628.768 473.174 645.509 471.606C653.098 470.887 661.547 476.31 669.526 478.989C671.169 480.361 672.89 481.733 674.533 483.171C685.877 497.349 688.145 511.919 675.081 526.032C662.172 540.014 644.727 542.235 622.822 536.289C627.281 555.172 626.499 572.355 605.689 583.201C589.652 591.499 573.771 589.212 558.594 581.11C556.56 579.412 554.448 577.648 552.413 575.949C544.356 566.018 542.322 554.845 544.512 543.215C521.59 541.059 502.502 541.582 504.849 566.998C505.162 570.068 501.094 573.335 499.059 576.537C497.417 577.909 495.93 579.216 494.366 580.457ZM604.281 522.046C591.138 515.382 618.754 494.409 589.417 494.343C574.397 494.278 570.954 498.59 571.033 510.155C571.267 534.395 595.989 511.396 604.281 522.046ZM448.522 522.307C456.58 513.095 485.917 534.917 480.832 504.993C476.764 481.211 458.692 499.962 448.678 493.821C452.746 503.752 448.444 512.05 448.522 522.307ZM605.298 391.895C570.563 394.901 571.424 394.966 570.407 401.761C566.965 425.152 588.166 417.181 604.594 420.84C599.666 409.994 603.421 401.108 605.298 391.895ZM448.209 390.589C450.165 401.173 451.338 410.19 449.461 420.448C459.005 413.261 478.25 430.967 481.457 407.445C485.447 378.305 455.954 401.435 448.209 390.589ZM512.672 454.945C513.22 461.152 507.665 469.973 522.842 467.555C530.509 466.314 540.444 470.887 539.115 457.493C538.254 448.412 537.706 444.883 525.267 445.537C515.958 446.06 509.23 445.275 512.672 454.945Z" fill="#947CE9"/>
<path d="M498.591 336.816C497.261 335.64 495.931 334.529 494.601 333.353C494.367 331.916 494.601 330.282 493.897 329.041C485.057 312.772 484.744 297.353 502.894 285.462C517.601 275.792 534.264 275.726 549.05 285.331C567.278 297.091 567.044 312.576 558.36 328.845C557.656 330.152 557.812 331.72 557.578 333.157C556.17 334.399 554.683 335.575 553.275 336.816C535.047 343.088 516.819 342.892 498.591 336.816Z" fill="#947CE9"/>
<path d="M674.455 483.301C672.812 481.929 671.091 480.557 669.448 479.12C661.782 464.158 661.938 449.261 669.448 434.299C671.091 432.927 672.734 431.555 674.377 430.248C680.166 428.745 685.877 426.85 691.822 425.936C708.72 423.257 723.272 426.654 732.972 439.199C741.812 450.633 741.813 462.72 733.051 474.219C723.35 486.764 708.877 490.227 691.979 487.614C686.033 486.699 680.323 484.739 674.455 483.301Z" fill="#947CE9"/>
<path d="M552.258 576.014C554.292 577.778 556.404 579.477 558.438 581.176C559.533 584.704 560.706 588.167 561.802 591.695C566.496 606.592 563.679 619.855 547.798 629.068C533.247 637.431 517.601 637.3 503.284 628.61C487.716 619.136 485.213 605.808 490.454 590.976C491.706 587.448 493.036 583.985 494.288 580.523C495.774 579.216 497.339 577.974 498.825 576.668C516.584 570.395 534.421 570.526 552.258 576.014Z" fill="#947CE9"/>
<path d="M382.417 479.708C381.009 480.818 379.678 481.929 378.27 483.04C356.913 488.724 335.478 493.82 319.519 474.611C310.209 463.439 310.053 451.221 318.893 439.722C334.07 420.055 355.584 424.433 377.175 429.856C379.131 431.489 381.009 433.057 382.964 434.691C390.084 449.784 389.379 464.746 382.417 479.708Z" fill="#947CE9"/>
<path d="M737.823 553.734C738.214 570.264 720.455 585.161 700.662 584.834C681.887 584.508 665.146 570.591 664.754 554.91C664.363 538.315 682.044 523.483 701.914 523.81C720.69 524.137 737.431 538.053 737.823 553.734Z" fill="#947CE9"/>
<path d="M351.123 584.573C331.566 584.769 313.964 569.807 314.589 553.473C315.137 537.922 331.878 524.202 350.497 524.071C370.055 523.875 387.658 538.837 387.032 555.171C386.406 570.722 369.743 584.442 351.123 584.573Z" fill="#947CE9"/>
<path d="M445.55 602.084C446.332 618.418 428.887 633.51 409.172 633.51C390.553 633.51 373.655 619.855 372.873 604.24C372.091 587.905 389.536 572.813 409.25 572.813C427.87 572.813 444.768 586.403 445.55 602.084Z" fill="#947CE9"/>
<path d="M699.254 389.609C679.461 388.563 663.033 372.621 664.988 356.417C666.944 340.671 684.781 327.8 703.322 328.78C723.115 329.825 739.622 345.768 737.588 361.971C735.632 377.717 717.717 390.589 699.254 389.609Z" fill="#947CE9"/>
<path d="M349.48 328.911C367.943 328.323 385.389 341.39 386.875 357.005C388.44 373.209 371.698 388.759 351.984 389.412C332.426 390.066 314.433 375.496 314.511 359.096C314.589 343.611 330.861 329.564 349.48 328.911Z" fill="#947CE9"/>
<path d="M679.305 310.551C679.227 327.081 661.077 341.586 641.362 340.867C622.587 340.149 606.315 325.971 606.393 310.29C606.471 293.76 624.699 279.255 644.335 279.974C663.111 280.692 679.383 294.936 679.305 310.551Z" fill="#947CE9"/>
<path d="M409.326 280.169C428.962 280.235 446.33 295.393 445.391 311.662C444.53 327.277 427.554 340.736 409.014 340.671C389.377 340.606 372.01 325.448 372.948 309.179C373.809 293.563 390.785 280.039 409.326 280.169Z" fill="#947CE9"/>
<path d="M679.305 602.737C679.539 619.202 661.702 633.968 641.988 633.51C623.212 633.053 606.706 619.136 606.471 603.455C606.236 586.925 623.995 572.225 643.787 572.682C662.563 573.139 678.992 587.056 679.305 602.737Z" fill="#947CE9"/>
<path d="M433.814 650.172C436.787 632.988 448.366 623.776 469.097 623.972C488.889 624.168 503.362 638.215 500.859 654.811C498.199 672.19 485.213 680.88 464.794 679.638C443.828 678.397 434.44 667.094 433.814 650.172Z" fill="#947CE9"/>
<path d="M759.649 533.937C739.074 532.434 727.027 523.483 726.01 506.038C725.071 489.443 741.187 476.245 761.058 477.486C781.789 478.793 793.524 488.92 793.211 506.169C792.82 523.614 780.146 532.5 759.649 533.937Z" fill="#947CE9"/>
<path d="M325.855 505.254C324.29 522.438 313.807 533.022 292.685 533.153C271.797 533.284 259.514 523.418 259.28 505.908C259.045 488.463 270.936 478.27 291.902 478.009C313.025 477.682 323.821 488.005 325.855 505.254Z" fill="#947CE9"/>
<path d="M618.441 651.609C616.955 668.662 606.472 679.377 585.584 679.9C564.931 680.422 552.57 670.753 550.771 653.438C549.05 636.843 564.696 623.252 584.567 623.84C605.455 624.429 616.329 634.36 618.441 651.609Z" fill="#947CE9"/>
<path d="M759.102 436.324C738.449 434.495 726.635 425.348 726.009 407.903C725.384 391.307 741.89 378.305 761.683 379.873C782.414 381.507 793.915 391.83 793.132 409.079C792.428 426.524 779.52 435.148 759.102 436.324Z" fill="#947CE9"/>
<path d="M293.702 380.004C314.277 382.095 326.168 391.569 325.386 409.079C324.604 426.589 311.852 436.194 291.042 435.54C270.076 434.952 258.654 424.302 259.28 406.923C259.984 389.282 273.049 380.919 293.702 380.004Z" fill="#947CE9"/>
<path d="M501.406 260.961C499.216 279.32 488.263 289.578 467.141 289.317C446.096 289.056 434.205 278.732 434.44 261.222C434.675 243.646 447.113 233.78 468.079 233.911C489.358 233.976 499.45 244.953 501.406 260.961Z" fill="#947CE9"/>
<path d="M618.207 261.941C616.251 279.059 605.455 288.99 584.645 289.578C564.775 290.166 549.363 276.772 551.006 260.177C552.727 242.862 564.931 233.323 585.506 233.781C606.394 234.238 616.721 244.888 618.207 261.941Z" fill="#947CE9"/>
<path d="M351.671 677.613C333.287 675.848 321.082 667.812 320.691 652.458C320.3 637.103 331.878 627.172 350.106 626.78C368.413 626.388 380.382 636.123 380.851 651.347C381.321 666.767 369.351 675.064 351.671 677.613Z" fill="#947CE9"/>
<path d="M526.52 726.55C508.449 724.786 496.166 716.684 495.775 701.264C495.384 685.845 507.041 675.849 525.347 675.457C543.81 675.065 555.779 684.865 556.248 700.154C556.796 715.639 544.748 724.067 526.52 726.55Z" fill="#947CE9"/>
<path d="M820.279 431.032C836.63 433.253 847.739 441.42 848.756 456.775C849.616 470.626 832.484 484.151 816.133 482.321C798.218 480.296 787.735 470.953 787.501 455.664C787.266 442.531 803.225 430.705 820.279 431.032Z" fill="#947CE9"/>
<path d="M264.6 456.579C261.628 472.325 251.614 482.191 233.229 481.798C215.001 481.406 203.501 471.475 203.971 456.252C204.44 441.028 216.331 431.489 234.559 431.816C253.022 432.012 262.253 442.466 264.6 456.579Z" fill="#947CE9"/>
<path d="M525.581 187.195C543.574 188.959 555.778 196.996 556.091 212.35C556.404 227.704 544.826 237.635 526.598 237.962C508.214 238.289 496.401 228.553 495.931 213.33C495.462 197.911 507.431 189.547 525.581 187.195Z" fill="#947CE9"/>
<path d="M381.321 261.222C379.287 276.184 369.742 286.311 351.436 286.638C333.13 286.965 321.317 277.36 320.848 262.202C320.378 246.979 331.957 237.047 350.106 236.655C368.491 236.198 378.504 246.064 381.321 261.222Z" fill="#947CE9"/>
<path d="M732.19 652.393C729.217 667.616 719.125 677.613 700.584 677.221C682.278 676.763 670.543 666.767 671.012 651.347C671.482 636.059 683.53 626.323 701.914 626.65C720.455 626.977 730.077 637.3 732.19 652.393Z" fill="#947CE9"/>
<path d="M700.741 235.806C718.813 237.57 731.095 245.672 731.486 261.091C731.877 276.511 720.221 286.507 701.837 286.899C683.374 287.291 671.404 277.491 670.935 262.202C670.544 246.652 682.592 238.289 700.741 235.806Z" fill="#947CE9"/>
<path d="M292.06 577.517C310.913 579.934 322.726 588.297 322.335 603.652C321.866 618.875 310.053 628.48 291.746 628.153C273.597 627.826 262.097 617.895 262.41 602.606C262.722 587.252 275.162 579.542 292.06 577.517Z" fill="#947CE9"/>
<path d="M760.119 336.228C742.047 334.399 729.764 326.297 729.451 310.878C729.139 295.458 740.795 285.462 759.102 285.135C777.564 284.808 789.455 294.609 789.925 309.898C790.394 325.382 778.347 333.811 760.119 336.228Z" fill="#947CE9"/>
<path d="M322.961 309.636C320.849 324.925 311.304 335.118 292.998 335.379C274.692 335.706 262.879 326.101 262.409 310.878C262.018 295.654 273.518 285.723 291.746 285.331C310.13 285.004 319.988 295.001 322.961 309.636Z" fill="#947CE9"/>
<path d="M790.707 603.717C787.734 618.679 777.877 627.957 759.571 628.741C742.908 629.459 726.792 615.02 729.139 601.43C731.642 586.468 742.907 576.994 761.135 577.778C779.207 578.497 788.829 588.689 790.707 603.717Z" fill="#947CE9"/>
<path d="M818.949 335.706C836.864 337.274 846.643 345.506 845.782 360.468C844.843 375.626 833.578 383.206 815.82 382.291C799.156 381.442 790.081 372.817 790.316 358.966C790.629 343.808 801.268 336.49 818.949 335.706Z" fill="#947CE9"/>
<path d="M818.869 578.039C800.172 576.602 789.924 568.892 790.236 553.996C790.471 539.164 800.798 530.866 818.556 531.062C836.315 531.258 846.172 539.883 846.094 554.649C845.938 569.742 834.907 576.733 818.869 578.039Z" fill="#947CE9"/>
<path d="M232.758 577.582C215.078 575.949 205.456 567.716 206.473 552.885C207.49 537.858 218.755 530.475 236.279 531.455C252.786 532.369 261.626 540.929 261.313 554.714C261.078 569.807 250.36 576.863 232.758 577.582Z" fill="#947CE9"/>
<path d="M642.849 189.482C660.529 190.658 670.856 198.302 670.465 213.33C670.074 228.423 659.434 236.329 641.598 235.806C625.012 235.348 615.547 227.247 615.312 213.33C614.999 198.368 625.091 190.658 642.849 189.482Z" fill="#947CE9"/>
<path d="M235.733 382.487C217.036 381.572 206.475 374.254 206.475 359.227C206.553 344.265 216.723 336.098 234.559 336.294C251.066 336.424 260.689 344.265 261.393 358.116C262.176 373.143 252.005 380.723 235.733 382.487Z" fill="#947CE9"/>
<path d="M671.091 700.742C668.979 716.553 659.043 724.72 641.128 723.871C622.978 723.022 614.06 713.482 615.233 698.716C616.329 684.8 626.733 677.351 643.318 677.547C661.624 677.743 669.761 687.086 671.091 700.742Z" fill="#947CE9"/>
<path d="M410.11 724.132C391.178 722.76 381.087 714.919 381.634 699.957C382.182 684.865 392.978 677.09 410.736 677.678C427.322 678.2 436.553 686.498 436.788 700.349C437.101 715.638 426.304 722.76 410.11 724.132Z" fill="#947CE9"/>
<path d="M437.022 213.787C435.066 228.553 425.21 236.59 407.451 235.74C389.458 234.891 380.617 225.482 381.791 210.847C382.886 197.061 393.134 189.678 409.641 189.94C427.713 190.201 436.162 199.087 437.022 213.787Z" fill="#947CE9"/>
<path d="M175.573 525.966C160.709 524.66 151.086 517.799 151.477 504.862C151.79 493.102 160.943 485.523 175.025 485.457C190.437 485.392 199.825 493.363 199.59 506.234C199.277 517.995 190.124 524.529 175.573 525.966Z" fill="#947CE9"/>
<path d="M583.707 143.42C597.319 144.204 607.255 150.084 608.584 161.91C610.071 174.977 600.996 183.536 585.663 184.255C570.251 184.974 560.316 176.937 560.159 164.001C560.003 152.11 569.156 145.38 583.707 143.42Z" fill="#947CE9"/>
<path d="M174.868 387.583C188.324 388.302 198.103 394.051 199.433 405.877C200.841 418.814 192.079 427.308 176.746 428.027C161.412 428.745 151.633 420.839 151.477 407.968C151.32 396.142 160.239 389.347 174.868 387.583Z" fill="#947CE9"/>
<path d="M492.567 749.026C491.003 761.374 483.101 769.868 467.767 769.933C452.59 769.999 442.968 761.832 443.046 749.091C443.046 737.396 452.199 729.621 466.046 728.967C481.38 728.314 489.985 736.22 492.567 749.026Z" fill="#947CE9"/>
<path d="M492.253 163.674C491.157 175.173 483.804 183.34 469.722 184.255C454.232 185.235 443.905 177.591 443.358 164.719C442.81 151.783 452.589 143.681 468.079 143.746C482.317 143.812 490.219 151.587 492.253 163.674Z" fill="#947CE9"/>
<path d="M584.488 770.391C569.468 768.757 559.532 761.831 559.923 749.091C560.314 736.416 570.328 728.575 585.583 729.032C599.43 729.424 608.662 737.2 608.975 748.829C609.288 761.635 599.587 768.561 584.488 770.391Z" fill="#947CE9"/>
<path d="M817.853 670.621C803.458 669.641 795.323 663.173 796.027 650.825C796.652 639.587 804.71 633.38 818.166 633.511C833.03 633.641 840.775 640.828 840.228 653.046C839.68 664.349 831.387 669.903 817.853 670.621Z" fill="#947CE9"/>
<path d="M757.616 194.187C773.262 194.84 781.789 200.785 781.633 213.134C781.477 224.307 773.966 230.84 760.589 231.102C745.959 231.363 737.745 224.764 737.745 212.481C737.666 201.112 745.881 195.689 757.616 194.187Z" fill="#947CE9"/>
<path d="M759.963 681.99C773.497 682.971 781.554 688.72 781.789 700.023C782.024 712.372 773.966 719.232 759.18 719.102C745.724 718.971 737.901 712.568 737.589 701.265C737.276 688.916 745.646 682.709 759.963 681.99Z" fill="#947CE9"/>
<path d="M816.133 242.862C831.779 243.516 840.384 249.461 840.228 261.941C840.072 273.179 832.483 279.778 819.027 280.039C804.241 280.3 796.027 273.636 796.027 261.222C795.949 249.853 804.163 244.3 816.133 242.862Z" fill="#947CE9"/>
<path d="M314.276 213.265C312.946 224.307 306.062 230.971 292.528 230.906C277.664 230.84 269.919 223.523 270.78 211.37C271.562 200.198 280.089 194.252 293.467 194.775C307.001 195.297 313.494 202.158 314.276 213.265Z" fill="#947CE9"/>
<path d="M234.793 633.51C248.092 634.752 255.994 640.697 255.681 652.066C255.446 664.676 246.45 670.948 231.82 670.099C218.286 669.315 211.402 661.997 212.106 650.759C212.966 639.326 221.415 633.968 234.793 633.51Z" fill="#947CE9"/>
<path d="M722.098 163.413C721.003 173.475 714.666 180.465 702.618 180.988C689.163 181.576 680.714 174.716 680.87 163.543C681.027 153.481 689.006 147.078 701.132 147.013C713.414 146.948 719.986 153.547 722.098 163.413Z" fill="#947CE9"/>
<path d="M371.462 164.132C369.741 173.998 363.326 180.858 351.279 180.923C338.057 180.989 329.765 173.932 330.547 162.89C331.251 153.09 339.387 146.752 351.435 147.144C363.561 147.536 369.819 154.266 371.462 164.132Z" fill="#947CE9"/>
<path d="M292.293 682.251C305.67 683.035 313.885 688.72 314.12 700.088C314.354 712.568 305.984 719.363 291.12 718.84C277.585 718.382 270.31 711.457 270.545 700.219C270.857 688.785 278.915 683.101 292.293 682.251Z" fill="#947CE9"/>
<path d="M173.929 585.749C186.838 586.925 195.13 592.218 195.678 602.149C196.226 613.191 188.011 620.247 174.712 619.985C162.821 619.789 155.311 613.06 155.232 603.063C155.232 592.806 163.681 587.905 173.929 585.749Z" fill="#947CE9"/>
<path d="M234.795 280.104C220.165 278.797 212.186 272.982 212.342 261.679C212.499 249.265 221.261 242.797 235.812 243.581C249.189 244.3 256.152 251.487 255.604 262.594C254.978 274.093 246.216 278.993 234.795 280.104Z" fill="#947CE9"/>
<path d="M371.62 750.202C369.43 760.068 362.858 766.667 350.576 766.536C338.45 766.405 330.47 760.002 330.392 749.875C330.314 738.637 338.763 731.842 352.219 732.496C364.267 733.084 370.603 740.075 371.62 750.202Z" fill="#947CE9"/>
<path d="M699.88 731.777C713.883 733.41 722.332 739.16 721.785 750.332C721.315 760.264 713.492 766.667 701.522 766.601C688.301 766.536 680.322 759.676 680.713 748.568C681.026 738.506 689.631 733.737 699.88 731.777Z" fill="#947CE9"/>
<path d="M195.99 310.878C193.722 320.874 187.072 327.539 174.79 327.147C162.742 326.689 154.997 320.025 155.466 309.832C155.936 299.77 163.994 293.302 176.198 293.694C188.402 294.021 194.66 300.946 195.99 310.878Z" fill="#947CE9"/>
<path d="M658.886 796.525C658.495 805.476 653.801 810.638 644.726 811.357C634.4 812.206 627.515 807.632 627.202 798.747C626.811 789.926 633.07 785.026 643.631 785.157C653.019 785.222 657.243 790.58 658.886 796.525Z" fill="#947CE9"/>
<path d="M508.057 798.551C509.7 788.031 516.349 782.87 527.536 783.654C538.958 784.438 544.591 790.906 543.496 800.184C542.479 808.416 535.829 813.251 525.659 812.99C514.159 812.729 508.995 806.652 508.057 798.551Z" fill="#947CE9"/>
<path d="M425.053 798.159C423.957 806.457 418.637 811.618 408.233 811.226C399.236 810.9 393.682 806.065 393.682 798.551C393.682 789.927 399.862 784.961 410.188 785.288C419.185 785.614 423.879 790.58 425.053 798.159Z" fill="#947CE9"/>
<path d="M424.817 115.325C423.566 122.838 418.793 127.935 409.64 128C399.236 128.065 393.056 122.642 393.838 114.018C394.542 106.635 400.644 101.931 409.954 102.388C419.107 102.845 423.8 107.876 424.817 115.325Z" fill="#947CE9"/>
<path d="M543.573 115.325C542.087 125.91 535.047 130.614 523.781 129.634C513.533 128.784 508.135 123.035 508.761 114.476C509.465 104.61 516.975 99.9709 528.319 100.886C538.567 101.67 543.261 107.615 543.573 115.325Z" fill="#947CE9"/>
<path d="M658.888 114.737C657.011 124.146 651.221 129.111 640.973 128.196C632.211 127.412 626.656 122.382 627.282 114.802C627.986 106.178 634.48 101.539 644.728 102.323C653.725 102.977 657.793 108.53 658.888 114.737Z" fill="#947CE9"/>
<path d="M132.78 359.162C131.684 366.676 126.912 371.837 117.759 371.968C107.354 372.164 101.096 366.741 101.8 358.116C102.426 350.668 108.449 346.029 117.681 346.356C126.912 346.683 131.606 351.713 132.78 359.162Z" fill="#947CE9"/>
<path d="M134.344 456.84C133.64 465.987 127.695 471.345 116.116 471.018C105.868 470.691 100.079 465.595 100.001 457.101C99.9225 447.432 106.494 442.27 117.994 442.597C128.32 442.793 133.562 448.02 134.344 456.84Z" fill="#947CE9"/>
<path d="M132.78 554.649C131.372 562.097 126.521 567.193 117.368 567.128C106.963 567.063 100.862 561.574 101.879 552.885C102.739 545.567 108.997 540.863 118.229 541.516C127.225 542.104 131.92 547.135 132.78 554.649Z" fill="#947CE9"/>
</g>
<path opacity="0.1" d="M896.098 657.598L684.365 694.933L546.165 530.233L619.7 328.199L831.433 290.865L969.633 455.565L896.098 657.598Z" stroke="url(#paint0_linear_4_1690)" stroke-width="80"/>
</g>
<defs>
<filter id="filter0_f_4_1690" x="0" y="0.772461" width="1053.35" height="912.228" filterUnits="userSpaceOnUse" color-interpolation-filters="sRGB">
<feFlood flood-opacity="0" result="BackgroundImageFix"/>
<feBlend mode="normal" in="SourceGraphic" in2="BackgroundImageFix" result="shape"/>
<feGaussianBlur stdDeviation="50" result="effect1_foregroundBlur_4_1690"/>
</filter>
<linearGradient id="paint0_linear_4_1690" x1="896.098" y1="657.598" x2="619.7" y2="328.199" gradientUnits="userSpaceOnUse">
<stop stop-color="white"/>
<stop offset="1" stop-color="white" stop-opacity="0"/>
</linearGradient>
</defs>
</svg>
