<svg width="375" height="1172" viewBox="0 0 375 1172" fill="none" xmlns="http://www.w3.org/2000/svg">
<g opacity="0.6">
<g opacity="0.1" filter="url(#filter0_f_22_308)">
<path d="M284.503 255.137C285.534 249.748 286.074 244.188 286.074 238.502C286.074 189.624 246.231 150 197.082 150C167.011 150 140.422 164.834 124.315 187.546C108.849 174.634 88.9028 166.857 67.1306 166.857C18.4538 166.857 -21.0944 205.724 -21.8489 253.953H-21.86C-76.469 253.953 -120.738 297.979 -120.738 352.289C-120.738 406.598 -76.469 450.624 -21.86 450.624H269.123C323.731 450.624 368 406.598 368 352.289C368 303.182 331.807 262.485 284.503 255.137Z" fill="#5E3CD2"/>
</g>
<g opacity="0.2" filter="url(#filter1_f_22_308)">
<path d="M67.3854 766.976C57.2329 779.476 46.8009 781.959 36.695 767.575C26.6357 753.278 25.7045 733.843 29.6165 709.871C16.4369 715.093 4.56136 715.008 -3.21598 693.347C-9.87562 674.854 -8.29241 656.704 -1.67935 639.239C-0.84107 637.783 -0.0492282 636.328 0.789048 634.873C5.49271 628.623 10.988 622.63 16.4368 624.599C26.4495 628.28 24.6333 619.719 25.1455 606.791C25.8907 588.898 24.8662 581.535 13.9221 584.445C9.96355 585.473 5.39956 578.966 1.06846 575.884C-0.0958104 573.744 -1.21347 571.689 -2.37774 569.549C-8.1991 551.741 -9.96877 533.505 -2.93657 515.44C4.84077 495.406 15.8779 493.694 29.43 500.372C25.9837 475.886 26.4961 454.397 38.232 440.185C48.2447 428.027 58.0713 431.11 67.5252 443.096C68.3169 444.637 69.1084 446.092 69.9001 447.633C71.8095 456.366 76.001 465.698 75.2559 473.575C73.2999 494.807 78.7952 490.954 86.8054 492.153C96.4456 493.608 97.2838 488.814 97.0044 473.66C96.8647 465.099 100.497 456.28 102.453 447.633C103.292 446.007 104.176 444.465 105.015 442.839C115.121 429.825 125.506 427.6 135.658 441.726C145.764 455.852 146.975 475.287 143.063 499.088C155.917 494.978 167.932 493.951 175.756 515.783C182.416 534.275 180.925 552.34 174.592 569.977C173.614 571.774 172.636 573.572 171.658 575.285C166.861 578.709 161.831 585.815 157.314 584.874C147.534 582.819 147.627 589.24 147.767 604.479C147.907 619.205 147.394 626.397 157.36 624.342C161.878 623.4 166.907 630.506 171.658 634.016C172.636 635.814 173.66 637.612 174.638 639.496C181.391 658.074 182.741 677.166 174.964 695.659C167.28 713.981 156.895 716.891 143.855 709.1C146.509 733.843 146.044 756.36 133.656 770.572C124.109 781.445 114.655 778.448 105.62 767.832C104.409 765.606 103.152 763.294 101.941 761.068C97.1441 748.055 95.9332 733.415 97.2372 718.175C83.5919 715.35 72.2289 716.035 73.626 749.339C73.8123 753.363 71.3904 757.644 70.1795 761.839C69.2015 763.637 68.3168 765.349 67.3854 766.976ZM132.817 690.436C124.994 681.704 141.433 654.221 123.969 654.136C115.028 654.05 112.978 659.701 113.025 674.854C113.165 706.617 127.881 676.481 132.817 690.436ZM40.0949 690.779C44.8917 678.707 62.3558 707.303 59.3287 668.091C56.907 636.927 46.1489 661.499 40.1879 653.451C42.6095 666.464 40.0483 677.337 40.0949 690.779ZM133.423 519.892C112.745 523.83 113.258 523.916 112.652 532.82C110.603 563.47 123.224 553.025 133.004 557.819C130.07 543.607 132.305 531.964 133.423 519.892ZM39.9084 518.18C41.0727 532.049 41.7714 543.864 40.6537 557.306C46.3354 547.888 57.7917 571.09 59.7011 540.268C62.0762 502.084 44.519 532.392 39.9084 518.18ZM78.2831 602.51C78.6091 610.644 75.3025 622.202 84.3373 619.034C88.9012 617.407 94.8158 623.4 94.0241 605.849C93.5118 593.949 93.1857 589.326 85.781 590.182C80.239 590.867 76.234 589.839 78.2831 602.51Z" fill="#947CE9"/>
<path d="M69.8999 447.719C69.1082 446.178 68.3167 444.722 67.525 443.181C67.3853 441.298 67.5249 439.157 67.1058 437.531C61.8432 416.212 61.6571 396.008 72.4615 380.426C81.2169 367.755 91.1363 367.669 99.9382 380.254C110.789 395.665 110.65 415.956 105.48 437.274C105.061 438.986 105.154 441.041 105.015 442.924C104.176 444.551 103.292 446.092 102.453 447.719C91.6022 455.938 80.7509 455.681 69.8999 447.719Z" fill="#947CE9"/>
<path d="M174.591 639.667C173.613 637.869 172.589 636.071 171.611 634.187C167.047 614.582 167.14 595.062 171.611 575.456C172.589 573.658 173.567 571.86 174.545 570.148C177.991 568.179 181.39 565.696 184.93 564.497C194.989 560.987 203.651 565.439 209.426 581.877C214.689 596.86 214.689 612.698 209.473 627.766C203.698 644.204 195.082 648.742 185.023 645.318C181.484 644.119 178.084 641.55 174.591 639.667Z" fill="#947CE9"/>
<path d="M101.848 761.154C103.059 763.466 104.316 765.691 105.527 767.917C106.179 772.54 106.878 777.078 107.53 781.701C110.324 801.222 108.648 818.601 99.1936 830.673C90.5314 841.632 81.2172 841.46 72.6947 830.074C63.4271 817.66 61.9367 800.194 65.057 780.76C65.8021 776.136 66.5938 771.599 67.3389 767.061C68.2238 765.349 69.1553 763.722 70.0401 762.01C80.6117 753.791 91.23 753.962 101.848 761.154Z" fill="#947CE9"/>
<path d="M0.742714 634.958C-0.095562 636.414 -0.887405 637.869 -1.72568 639.324C-14.4395 646.773 -27.1997 653.451 -36.7002 628.28C-42.2421 613.64 -42.3353 597.63 -37.0728 582.562C-28.0381 556.792 -15.231 562.528 -2.37746 569.634C-1.21318 571.775 -0.0955276 573.829 1.06874 575.97C5.3067 595.747 4.88752 615.352 0.742714 634.958Z" fill="#947CE9"/>
<path d="M212.314 731.96C212.547 753.62 201.975 773.14 190.193 772.712C179.016 772.284 169.05 754.048 168.817 733.501C168.584 711.754 179.109 692.32 190.938 692.748C202.115 693.176 212.081 711.412 212.314 731.96Z" fill="#947CE9"/>
<path d="M-17.8855 772.369C-29.5282 772.626 -40.0066 753.02 -39.634 731.617C-39.308 711.24 -29.342 693.261 -18.2581 693.09C-6.61539 692.833 3.86327 712.439 3.4907 733.843C3.11813 754.219 -6.8016 772.198 -17.8855 772.369Z" fill="#947CE9"/>
<path d="M38.3257 795.315C38.7914 816.718 28.406 836.495 16.6701 836.495C5.58618 836.495 -4.47294 818.602 -4.93865 798.14C-5.40436 776.736 4.9808 756.959 16.7167 756.959C27.8006 756.959 37.86 774.767 38.3257 795.315Z" fill="#947CE9"/>
<path d="M189.354 516.896C177.572 515.526 167.792 494.636 168.956 473.403C170.121 452.77 180.739 435.904 191.776 437.188C203.559 438.558 213.385 459.448 212.174 480.681C211.01 501.314 200.345 518.18 189.354 516.896Z" fill="#947CE9"/>
<path d="M-18.8648 437.359C-7.87406 436.589 2.51139 453.711 3.39624 474.173C4.32766 495.406 -5.63862 515.783 -17.3745 516.639C-29.0172 517.495 -39.7284 498.403 -39.6819 476.913C-39.6353 456.622 -29.9487 438.215 -18.8648 437.359Z" fill="#947CE9"/>
<path d="M177.479 413.301C177.432 434.962 166.628 453.968 154.892 453.027C143.715 452.085 134.028 433.506 134.075 412.959C134.121 391.298 144.972 372.292 156.661 373.234C167.838 374.176 177.525 392.84 177.479 413.301Z" fill="#947CE9"/>
<path d="M16.7618 373.491C28.4511 373.576 38.7898 393.439 38.2309 414.757C37.7187 435.219 27.6129 452.856 16.5756 452.77C4.88636 452.684 -5.4526 432.822 -4.89375 411.504C-4.38147 391.042 5.72453 373.32 16.7618 373.491Z" fill="#947CE9"/>
<path d="M177.479 796.171C177.618 817.746 167 837.094 155.264 836.495C144.087 835.896 134.261 817.66 134.121 797.112C133.982 775.452 144.553 756.189 156.335 756.788C167.512 757.387 177.292 775.623 177.479 796.171Z" fill="#947CE9"/>
<path d="M31.3395 858.327C33.1092 835.811 40.0017 823.739 52.343 823.996C64.1254 824.253 72.741 842.66 71.2507 864.406C69.6673 887.179 61.9366 898.566 49.7816 896.939C37.3006 895.313 31.712 880.501 31.3395 858.327Z" fill="#947CE9"/>
<path d="M225.307 706.018C213.059 704.049 205.887 692.32 205.282 669.461C204.723 647.715 214.317 630.42 226.146 632.047C238.487 633.759 245.473 647.03 245.287 669.632C245.054 692.491 237.509 704.135 225.307 706.018Z" fill="#947CE9"/>
<path d="M141.247 860.21C140.363 882.556 134.122 896.596 121.688 897.281C109.393 897.966 102.035 885.295 100.964 862.608C99.9393 840.862 109.253 823.053 121.083 823.824C133.517 824.595 139.99 837.608 141.247 860.21Z" fill="#947CE9"/>
<path d="M224.982 578.11C212.687 575.713 205.654 563.727 205.282 540.868C204.909 519.122 214.736 502.084 226.518 504.139C238.859 506.279 245.705 519.806 245.24 542.409C244.821 565.268 237.137 576.569 224.982 578.11Z" fill="#947CE9"/>
<path d="M71.5759 348.32C70.2719 372.378 63.752 385.82 51.1779 385.477C38.6503 385.135 31.5715 371.607 31.7113 348.663C31.851 325.632 39.2557 312.704 51.7367 312.876C64.404 312.961 70.4117 327.345 71.5759 348.32Z" fill="#947CE9"/>
<path d="M141.108 349.605C139.944 372.036 133.517 385.049 121.129 385.82C109.3 386.59 100.126 369.039 101.104 347.293C102.128 324.605 109.393 312.105 121.642 312.705C134.076 313.304 140.223 327.259 141.108 349.605Z" fill="#947CE9"/>
<path d="M-17.56 894.285C-28.5042 891.973 -35.7694 881.443 -36.0022 861.323C-36.2351 841.204 -29.3425 828.191 -18.4915 827.677C-7.59392 827.163 -0.468605 839.92 -0.189178 859.868C0.0902443 880.073 -7.03501 890.946 -17.56 894.285Z" fill="#947CE9"/>
<path d="M86.5268 958.41C75.7689 956.099 68.4573 945.483 68.2244 925.278C67.9916 905.073 74.9308 891.974 85.8284 891.46C96.8191 890.946 103.944 903.788 104.224 923.822C104.55 944.113 97.3778 955.157 86.5268 958.41Z" fill="#947CE9"/>
<path d="M261.4 571.175C271.134 574.086 277.747 584.788 278.352 604.907C278.864 623.058 268.665 640.78 258.932 638.383C248.267 635.729 242.027 623.486 241.887 603.452C241.748 586.243 251.248 570.747 261.4 571.175Z" fill="#947CE9"/>
<path d="M85.9676 251.661C96.6789 253.973 103.944 264.503 104.13 284.623C104.317 304.742 97.4241 317.756 86.5731 318.184C75.6289 318.612 68.5968 305.855 68.3174 285.907C68.038 265.702 75.1632 254.743 85.9676 251.661Z" fill="#947CE9"/>
<path d="M0.0901794 348.663C-1.12066 368.268 -6.80235 381.539 -17.6999 381.967C-28.5975 382.395 -35.6296 369.81 -35.909 349.947C-36.1885 329.999 -29.296 316.985 -18.4916 316.472C-7.54741 315.872 -1.58637 328.8 0.0901794 348.663Z" fill="#947CE9"/>
<path d="M208.961 861.238C207.191 881.186 201.183 894.285 190.146 893.771C179.249 893.172 172.263 880.073 172.543 859.868C172.822 839.834 179.994 827.078 190.938 827.506C201.975 827.934 207.704 841.461 208.961 861.238Z" fill="#947CE9"/>
<path d="M190.24 315.358C200.998 317.67 208.309 328.286 208.542 348.491C208.775 368.696 201.836 381.795 190.892 382.309C179.901 382.823 172.776 369.981 172.496 349.947C172.263 329.57 179.435 318.612 190.24 315.358Z" fill="#947CE9"/>
<path d="M225.587 446.948C214.829 444.551 207.517 433.935 207.331 413.73C207.145 393.525 214.084 380.426 224.981 379.998C235.972 379.569 243.051 392.412 243.33 412.446C243.61 432.736 236.438 443.781 225.587 446.948Z" fill="#947CE9"/>
<path d="M243.796 797.455C242.026 817.061 236.158 829.218 225.261 830.245C215.341 831.187 205.748 812.266 207.145 794.458C208.635 774.853 215.341 762.438 226.192 763.466C236.95 764.408 242.678 777.764 243.796 797.455Z" fill="#947CE9"/>
<path d="M260.608 446.264C271.273 448.318 277.094 459.106 276.582 478.711C276.023 498.574 269.317 508.506 258.745 507.307C248.826 506.194 243.423 494.893 243.563 476.742C243.749 456.88 250.083 447.291 260.608 446.264Z" fill="#947CE9"/>
<path d="M260.561 763.808C249.43 761.925 243.33 751.822 243.516 732.302C243.656 712.867 249.803 701.994 260.375 702.251C270.946 702.508 276.814 713.809 276.768 733.158C276.674 752.935 270.108 762.096 260.561 763.808Z" fill="#947CE9"/>
<path d="M155.777 254.658C166.302 256.199 172.449 266.216 172.217 285.908C171.984 305.685 165.65 316.044 155.032 315.359C145.159 314.76 139.524 304.144 139.384 285.908C139.198 266.302 145.205 256.199 155.777 254.658Z" fill="#947CE9"/>
<path d="M172.589 924.593C171.332 945.311 165.417 956.013 154.752 954.9C143.948 953.787 138.639 941.287 139.337 921.939C139.989 903.703 146.183 893.942 156.056 894.199C166.954 894.456 171.797 906.699 172.589 924.593Z" fill="#947CE9"/>
<path d="M17.2286 955.242C5.95845 953.444 -0.0489892 943.171 0.277007 923.565C0.603004 903.788 7.02966 893.6 17.6013 894.371C27.4743 895.055 32.9698 905.928 33.1095 924.079C33.2958 944.112 26.8688 953.444 17.2286 955.242Z" fill="#947CE9"/>
<path d="M33.2491 286.506C32.0848 305.855 26.2171 316.386 15.6455 315.273C4.93417 314.16 -0.32847 301.831 0.370093 282.653C1.02208 264.589 7.12286 254.914 16.9493 255.257C27.7072 255.599 32.7368 267.243 33.2491 286.506Z" fill="#947CE9"/>
<path d="M294.744 696.601C285.244 693.176 279.376 683.587 280.167 666.807C280.959 650.454 287.106 640.266 296.327 641.978C304.57 643.52 309.833 654.05 309.554 669.546C309.274 686.413 303.034 694.546 294.744 696.601Z" fill="#947CE9"/>
<path d="M120.569 194.299C128.673 195.327 134.587 203.032 135.379 218.528C136.264 235.651 130.861 246.867 121.733 247.808C112.559 248.75 106.644 238.22 106.551 221.268C106.458 205.686 111.907 196.868 120.569 194.299Z" fill="#947CE9"/>
<path d="M309.881 540.011C308.996 556.278 304.292 567.665 295.164 568.007C286.036 568.35 280.262 557.562 280.168 540.782C280.075 525.371 285.571 514.926 293.814 513.899C302.988 512.786 308.158 523.316 309.881 540.011Z" fill="#947CE9"/>
<path d="M66.3153 987.862C65.3839 1004.04 60.6801 1015.17 51.5521 1015.26C42.5174 1015.34 36.7893 1004.64 36.8359 987.947C36.8359 972.622 42.2847 962.434 50.5277 961.578C59.6556 960.722 64.7785 971.081 66.3153 987.862Z" fill="#947CE9"/>
<path d="M66.1274 220.84C65.4754 235.908 61.0977 246.61 52.715 247.808C43.4939 249.093 37.3466 239.076 37.0206 222.21C36.6946 205.258 42.5161 194.642 51.7372 194.727C60.2131 194.813 64.9166 205.001 66.1274 220.84Z" fill="#947CE9"/>
<path d="M121.035 1015.86C112.093 1013.72 106.179 1004.64 106.411 987.947C106.644 971.338 112.605 961.064 121.687 961.664C129.93 962.177 135.425 972.366 135.611 987.605C135.798 1004.39 130.023 1013.46 121.035 1015.86Z" fill="#947CE9"/>
<path d="M259.956 885.124C251.387 883.84 246.544 875.364 246.963 859.183C247.335 844.457 252.132 836.324 260.142 836.495C268.991 836.666 273.601 846.084 273.275 862.094C272.949 876.905 268.013 884.182 259.956 885.124Z" fill="#947CE9"/>
<path d="M224.097 260.822C233.411 261.678 238.487 269.469 238.394 285.65C238.301 300.29 233.83 308.852 225.867 309.194C217.158 309.537 212.268 300.89 212.268 284.794C212.221 269.897 217.111 262.791 224.097 260.822Z" fill="#947CE9"/>
<path d="M225.494 900.021C233.551 901.305 238.348 908.839 238.487 923.651C238.627 939.832 233.83 948.822 225.028 948.65C217.018 948.479 212.361 940.089 212.175 925.277C211.989 909.096 216.972 900.963 225.494 900.021Z" fill="#947CE9"/>
<path d="M258.932 324.605C268.246 325.461 273.369 333.252 273.276 349.605C273.183 364.33 268.665 372.977 260.655 373.32C251.853 373.662 246.963 364.93 246.963 348.663C246.916 333.766 251.806 326.489 258.932 324.605Z" fill="#947CE9"/>
<path d="M202.953 220.498C202.301 233.683 198.529 242.843 191.357 243.528C183.347 244.299 178.317 235.309 178.41 220.669C178.503 207.484 183.253 199.094 190.472 199.009C197.784 198.923 201.696 207.57 202.953 220.498Z" fill="#947CE9"/>
<path d="M294.791 819.8C287.153 817.831 282.17 810.125 282.589 795.314C282.962 782.13 287.619 773.825 294.837 773.996C302.801 774.253 307.551 783.243 307.178 797.968C306.899 811.324 302.056 818.259 294.791 819.8Z" fill="#947CE9"/>
<path d="M294.093 436.075C286.688 433.164 281.798 425.202 282.683 410.562C283.475 397.805 288.272 389.586 295.444 390.614C303.267 391.727 307.831 401.144 307.04 415.613C306.341 428.455 301.404 435.219 294.093 436.075Z" fill="#947CE9"/>
<path d="M189.727 965.26C198.063 967.4 203.093 974.934 202.767 989.574C202.487 1002.59 197.83 1010.98 190.705 1010.89C182.834 1010.81 178.084 1001.82 178.317 987.263C178.503 974.078 183.626 967.828 189.727 965.26Z" fill="#947CE9"/>
<path d="M340.617 604.394C339.918 617.407 336.239 624.855 329.533 624.684C322.827 624.513 318.822 616.979 318.868 604.65C318.961 592.322 323.06 584.959 329.766 585.045C336.519 585.216 339.918 593.007 340.617 604.394Z" fill="#947CE9"/>
<path d="M165.324 1050.1C165.091 1061.83 162.297 1068.6 156.894 1069.54C150.747 1070.65 146.648 1064.66 146.462 1053.01C146.229 1041.46 149.955 1035.04 156.242 1035.21C161.831 1035.29 164.346 1042.31 165.324 1050.1Z" fill="#947CE9"/>
<path d="M75.5355 1052.76C76.5135 1038.97 80.472 1032.21 87.1316 1033.24C93.931 1034.27 97.2843 1042.74 96.6323 1054.9C96.0269 1065.69 92.0682 1072.02 86.014 1071.68C79.1681 1071.34 76.0944 1063.37 75.5355 1052.76Z" fill="#947CE9"/>
<path d="M26.1236 1052.24C25.4716 1063.12 22.3047 1069.88 16.1107 1069.37C10.7551 1068.94 7.44861 1062.6 7.44861 1052.76C7.44861 1041.46 11.1276 1034.95 17.275 1035.38C22.6307 1035.81 25.425 1042.31 26.1236 1052.24Z" fill="#947CE9"/>
<path d="M25.9835 157.485C25.2383 167.331 22.3975 174.009 16.9487 174.094C10.7548 174.18 7.07591 167.074 7.54162 155.773C7.96075 146.098 11.5933 139.934 17.1352 140.533C22.584 141.133 25.3781 147.725 25.9835 157.485Z" fill="#947CE9"/>
<path d="M96.6786 157.485C95.7937 171.355 91.6025 177.519 84.8963 176.235C78.7955 175.122 75.5822 167.588 75.9548 156.372C76.3739 143.444 80.8447 137.366 87.5975 138.564C93.6983 139.592 96.4923 147.383 96.6786 157.485Z" fill="#947CE9"/>
<path d="M165.325 156.715C164.207 169.043 160.761 175.55 154.66 174.351C149.444 173.324 146.137 166.732 146.51 156.8C146.929 145.499 150.795 139.421 156.895 140.448C162.251 141.304 164.673 148.581 165.325 156.715Z" fill="#947CE9"/>
<path d="M339.313 475.201C338.847 487.787 335.773 494.379 329.533 494.465C324.084 494.465 320.685 488.814 320.219 478.968C319.707 467.838 322.734 460.561 328.974 459.705C335.308 458.849 338.335 465.698 339.313 475.201Z" fill="#947CE9"/>
<path d="M339.266 732.388C338.847 743.517 335.82 750.11 329.533 750.195C324.084 750.195 320.685 744.545 320.219 734.699C319.707 723.57 322.734 716.207 328.974 715.436C335.168 714.666 338.521 721.001 339.266 732.388Z" fill="#947CE9"/>
</g>
<path opacity="0.3" d="M68.6853 537.358L-57.3588 559.583L-139.628 461.539L-95.8535 341.269L30.1906 319.044L112.46 417.089L68.6853 537.358Z" stroke="url(#paint0_linear_22_308)" stroke-width="50"/>
</g>
<defs>
<filter id="filter0_f_22_308" x="-270.738" y="0" width="788.738" height="600.624" filterUnits="userSpaceOnUse" color-interpolation-filters="sRGB">
<feFlood flood-opacity="0" result="BackgroundImageFix"/>
<feBlend mode="normal" in="SourceGraphic" in2="BackgroundImageFix" result="shape"/>
<feGaussianBlur stdDeviation="75" result="effect1_foregroundBlur_22_308"/>
</filter>
<filter id="filter1_f_22_308" x="-267.379" y="38.416" width="707.996" height="1133.28" filterUnits="userSpaceOnUse" color-interpolation-filters="sRGB">
<feFlood flood-opacity="0" result="BackgroundImageFix"/>
<feBlend mode="normal" in="SourceGraphic" in2="BackgroundImageFix" result="shape"/>
<feGaussianBlur stdDeviation="50" result="effect1_foregroundBlur_22_308"/>
</filter>
<linearGradient id="paint0_linear_22_308" x1="68.6853" y1="537.358" x2="-95.8535" y2="341.269" gradientUnits="userSpaceOnUse">
<stop stop-color="#020202"/>
<stop offset="1" stop-color="#020202" stop-opacity="0"/>
</linearGradient>
</defs>
</svg>
