<svg width="375" height="1134" viewBox="0 0 375 1134" fill="none" xmlns="http://www.w3.org/2000/svg">
<g opacity="0.6">
<g opacity="0.1" filter="url(#filter0_f_22_227)">
<path d="M284.503 397.137C285.534 391.748 286.074 386.188 286.074 380.502C286.074 331.624 246.231 292 197.082 292C167.011 292 140.422 306.834 124.315 329.546C108.849 316.634 88.9028 308.857 67.1306 308.857C18.4538 308.857 -21.0944 347.724 -21.8489 395.953H-21.86C-76.469 395.953 -120.738 439.979 -120.738 494.289C-120.738 548.598 -76.469 592.624 -21.86 592.624H269.123C323.731 592.624 368 548.598 368 494.289C368 445.182 331.807 404.485 284.503 397.137Z" fill="#5E3CD2"/>
</g>
<g opacity="0.2" filter="url(#filter1_f_22_227)">
<path d="M67.3854 728.976C57.2329 741.476 46.8009 743.959 36.695 729.575C26.6357 715.278 25.7045 695.843 29.6165 671.871C16.4369 677.093 4.56136 677.008 -3.21598 655.347C-9.87562 636.855 -8.29241 618.704 -1.67935 601.239C-0.84107 599.783 -0.0492282 598.328 0.789048 596.873C5.49271 590.623 10.988 584.63 16.4368 586.599C26.4495 590.28 24.6333 581.719 25.1455 568.791C25.8907 550.898 24.8662 543.535 13.9221 546.445C9.96355 547.473 5.39956 540.966 1.06846 537.884C-0.0958104 535.744 -1.21347 533.689 -2.37774 531.549C-8.1991 513.741 -9.96877 495.505 -2.93657 477.44C4.84077 457.406 15.8779 455.694 29.43 462.372C25.9837 437.886 26.4961 416.397 38.232 402.185C48.2447 390.028 58.0713 393.11 67.5252 405.096C68.3169 406.637 69.1084 408.092 69.9001 409.633C71.8095 418.366 76.001 427.698 75.2559 435.575C73.2999 456.807 78.7952 452.954 86.8054 454.153C96.4456 455.608 97.2838 450.814 97.0044 435.66C96.8647 427.099 100.497 418.281 102.453 409.633C103.292 408.007 104.176 406.465 105.015 404.839C115.121 391.825 125.506 389.6 135.658 403.726C145.764 417.852 146.975 437.287 143.063 461.088C155.917 456.978 167.932 455.951 175.756 477.783C182.416 496.275 180.925 514.34 174.592 531.977C173.614 533.775 172.636 535.572 171.658 537.285C166.861 540.709 161.831 547.815 157.314 546.874C147.534 544.819 147.627 551.24 147.767 566.479C147.907 581.205 147.394 588.397 157.36 586.342C161.878 585.4 166.907 592.506 171.658 596.016C172.636 597.814 173.66 599.612 174.638 601.496C181.391 620.074 182.741 639.166 174.964 657.659C167.28 675.981 156.895 678.891 143.855 671.1C146.509 695.843 146.044 718.36 133.656 732.572C124.109 743.445 114.655 740.448 105.62 729.832C104.409 727.606 103.152 725.294 101.941 723.069C97.1441 710.055 95.9332 695.415 97.2372 680.176C83.5919 677.35 72.2289 678.035 73.626 711.339C73.8123 715.363 71.3904 719.644 70.1795 723.839C69.2015 725.637 68.3168 727.349 67.3854 728.976ZM132.817 652.436C124.994 643.704 141.433 616.222 123.969 616.136C115.028 616.05 112.978 621.701 113.025 636.855C113.165 668.618 127.881 638.481 132.817 652.436ZM40.0949 652.779C44.8917 640.707 62.3558 669.303 59.3287 630.091C56.907 598.927 46.1489 623.499 40.1879 615.451C42.6095 628.464 40.0483 639.337 40.0949 652.779ZM133.423 481.892C112.745 485.83 113.258 485.916 112.652 494.82C110.603 525.47 123.224 515.025 133.004 519.819C130.07 505.607 132.305 493.964 133.423 481.892ZM39.9084 480.18C41.0727 494.049 41.7714 505.864 40.6537 519.306C46.3354 509.888 57.7917 533.09 59.7011 502.268C62.0762 464.084 44.519 494.392 39.9084 480.18ZM78.2831 564.51C78.6091 572.644 75.3025 584.202 84.3373 581.034C88.9012 579.407 94.8158 585.4 94.0241 567.849C93.5118 555.949 93.1857 551.326 85.781 552.182C80.239 552.867 76.234 551.839 78.2831 564.51Z" fill="#947CE9"/>
<path d="M69.8999 409.719C69.1082 408.178 68.3167 406.722 67.525 405.181C67.3853 403.298 67.5249 401.157 67.1058 399.531C61.8432 378.213 61.6571 358.008 72.4615 342.426C81.2169 329.755 91.1363 329.669 99.9382 342.254C110.789 357.665 110.65 377.956 105.48 399.274C105.061 400.986 105.154 403.041 105.015 404.924C104.176 406.551 103.292 408.092 102.453 409.719C91.6022 417.938 80.7509 417.681 69.8999 409.719Z" fill="#947CE9"/>
<path d="M174.591 601.667C173.613 599.869 172.589 598.071 171.611 596.187C167.047 576.582 167.14 557.062 171.611 537.456C172.589 535.658 173.567 533.86 174.545 532.148C177.991 530.179 181.39 527.696 184.93 526.497C194.989 522.987 203.651 527.439 209.426 543.877C214.689 558.86 214.689 574.698 209.473 589.766C203.698 606.204 195.082 610.742 185.023 607.318C181.484 606.119 178.084 603.55 174.591 601.667Z" fill="#947CE9"/>
<path d="M101.848 723.154C103.059 725.466 104.316 727.691 105.527 729.917C106.179 734.54 106.878 739.078 107.53 743.701C110.324 763.222 108.648 780.601 99.1936 792.673C90.5314 803.632 81.2172 803.46 72.6947 792.074C63.4271 779.66 61.9367 762.194 65.057 742.76C65.8021 738.136 66.5938 733.599 67.3389 729.061C68.2238 727.349 69.1553 725.722 70.0401 724.01C80.6117 715.791 91.23 715.962 101.848 723.154Z" fill="#947CE9"/>
<path d="M0.742714 596.958C-0.095562 598.414 -0.887405 599.869 -1.72568 601.324C-14.4395 608.773 -27.1997 615.451 -36.7002 590.28C-42.2421 575.64 -42.3353 559.63 -37.0728 544.562C-28.0381 518.792 -15.231 524.528 -2.37746 531.634C-1.21318 533.775 -0.0955276 535.829 1.06874 537.97C5.3067 557.747 4.88752 577.352 0.742714 596.958Z" fill="#947CE9"/>
<path d="M212.314 693.96C212.547 715.62 201.975 735.14 190.193 734.712C179.016 734.284 169.05 716.048 168.817 695.501C168.584 673.754 179.109 654.32 190.938 654.748C202.115 655.176 212.081 673.412 212.314 693.96Z" fill="#947CE9"/>
<path d="M-17.8855 734.369C-29.5282 734.626 -40.0066 715.02 -39.634 693.617C-39.308 673.24 -29.342 655.261 -18.2581 655.09C-6.61539 654.833 3.86327 674.439 3.4907 695.843C3.11813 716.219 -6.8016 734.198 -17.8855 734.369Z" fill="#947CE9"/>
<path d="M38.3257 757.315C38.7914 778.718 28.406 798.495 16.6701 798.495C5.58618 798.495 -4.47294 780.602 -4.93865 760.14C-5.40436 738.736 4.9808 718.959 16.7167 718.959C27.8006 718.959 37.86 736.767 38.3257 757.315Z" fill="#947CE9"/>
<path d="M189.354 478.896C177.572 477.526 167.792 456.636 168.956 435.403C170.121 414.77 180.739 397.904 191.776 399.188C203.559 400.558 213.385 421.448 212.174 442.681C211.01 463.314 200.345 480.18 189.354 478.896Z" fill="#947CE9"/>
<path d="M-18.8648 399.359C-7.87406 398.589 2.51139 415.711 3.39624 436.173C4.32766 457.406 -5.63862 477.783 -17.3745 478.639C-29.0172 479.495 -39.7284 460.403 -39.6819 438.913C-39.6353 418.622 -29.9487 400.215 -18.8648 399.359Z" fill="#947CE9"/>
<path d="M177.479 375.301C177.432 396.962 166.628 415.968 154.892 415.027C143.715 414.085 134.028 395.506 134.075 374.959C134.121 353.298 144.972 334.292 156.661 335.234C167.838 336.176 177.525 354.84 177.479 375.301Z" fill="#947CE9"/>
<path d="M16.7618 335.491C28.4511 335.576 38.7898 355.439 38.2309 376.757C37.7187 397.219 27.6129 414.856 16.5756 414.77C4.88636 414.684 -5.4526 394.822 -4.89375 373.504C-4.38147 353.042 5.72453 335.32 16.7618 335.491Z" fill="#947CE9"/>
<path d="M177.479 758.171C177.618 779.746 167 799.094 155.264 798.495C144.087 797.896 134.261 779.66 134.121 759.112C133.982 737.452 144.553 718.189 156.335 718.788C167.512 719.387 177.292 737.623 177.479 758.171Z" fill="#947CE9"/>
<path d="M31.3395 820.327C33.1092 797.811 40.0017 785.739 52.343 785.996C64.1254 786.253 72.741 804.66 71.2507 826.406C69.6673 849.179 61.9366 860.566 49.7816 858.939C37.3006 857.313 31.712 842.501 31.3395 820.327Z" fill="#947CE9"/>
<path d="M225.307 668.018C213.059 666.049 205.887 654.32 205.282 631.461C204.723 609.715 214.317 592.42 226.146 594.047C238.487 595.759 245.473 609.03 245.287 631.632C245.054 654.491 237.509 666.135 225.307 668.018Z" fill="#947CE9"/>
<path d="M141.247 822.21C140.363 844.556 134.122 858.596 121.688 859.281C109.393 859.966 102.035 847.295 100.964 824.608C99.9393 802.862 109.253 785.053 121.083 785.824C133.517 786.595 139.99 799.608 141.247 822.21Z" fill="#947CE9"/>
<path d="M224.982 540.11C212.687 537.713 205.654 525.727 205.282 502.868C204.909 481.122 214.736 464.084 226.518 466.139C238.859 468.279 245.705 481.806 245.24 504.409C244.821 527.268 237.137 538.569 224.982 540.11Z" fill="#947CE9"/>
<path d="M71.5759 310.32C70.2719 334.378 63.752 347.82 51.1779 347.477C38.6503 347.135 31.5715 333.607 31.7113 310.663C31.851 287.632 39.2557 274.704 51.7367 274.876C64.404 274.961 70.4117 289.345 71.5759 310.32Z" fill="#947CE9"/>
<path d="M141.108 311.605C139.944 334.036 133.517 347.049 121.129 347.82C109.3 348.59 100.126 331.039 101.104 309.293C102.128 286.605 109.393 274.105 121.642 274.705C134.076 275.304 140.223 289.259 141.108 311.605Z" fill="#947CE9"/>
<path d="M-17.56 856.285C-28.5042 853.973 -35.7694 843.443 -36.0022 823.323C-36.2351 803.204 -29.3425 790.191 -18.4915 789.677C-7.59392 789.163 -0.468605 801.92 -0.189178 821.868C0.0902443 842.073 -7.03501 852.946 -17.56 856.285Z" fill="#947CE9"/>
<path d="M86.5268 920.41C75.7689 918.099 68.4573 907.483 68.2244 887.278C67.9916 867.073 74.9308 853.974 85.8284 853.46C96.8191 852.946 103.944 865.788 104.224 885.822C104.55 906.113 97.3778 917.157 86.5268 920.41Z" fill="#947CE9"/>
<path d="M261.4 533.175C271.134 536.086 277.747 546.788 278.352 566.907C278.864 585.058 268.665 602.78 258.932 600.383C248.267 597.729 242.027 585.486 241.887 565.452C241.748 548.243 251.248 532.747 261.4 533.175Z" fill="#947CE9"/>
<path d="M85.9676 213.661C96.6789 215.973 103.944 226.504 104.13 246.623C104.317 266.742 97.4241 279.756 86.5731 280.184C75.6289 280.612 68.5968 267.855 68.3174 247.907C68.038 227.702 75.1632 216.743 85.9676 213.661Z" fill="#947CE9"/>
<path d="M0.0901794 310.663C-1.12066 330.268 -6.80235 343.539 -17.6999 343.967C-28.5975 344.395 -35.6296 331.81 -35.909 311.947C-36.1885 291.999 -29.296 278.985 -18.4916 278.472C-7.54741 277.872 -1.58637 290.8 0.0901794 310.663Z" fill="#947CE9"/>
<path d="M208.961 823.238C207.191 843.186 201.183 856.285 190.146 855.771C179.249 855.172 172.263 842.073 172.543 821.868C172.822 801.834 179.994 789.078 190.938 789.506C201.975 789.934 207.704 803.461 208.961 823.238Z" fill="#947CE9"/>
<path d="M190.24 277.358C200.998 279.67 208.309 290.286 208.542 310.491C208.775 330.696 201.836 343.795 190.892 344.309C179.901 344.823 172.776 331.981 172.496 311.947C172.263 291.57 179.435 280.612 190.24 277.358Z" fill="#947CE9"/>
<path d="M225.587 408.948C214.829 406.551 207.517 395.935 207.331 375.73C207.145 355.525 214.084 342.426 224.981 341.997C235.972 341.569 243.051 354.412 243.33 374.446C243.61 394.736 236.438 405.781 225.587 408.948Z" fill="#947CE9"/>
<path d="M243.796 759.455C242.026 779.061 236.158 791.218 225.261 792.245C215.341 793.187 205.748 774.266 207.145 756.458C208.635 736.853 215.341 724.438 226.192 725.466C236.95 726.408 242.678 739.764 243.796 759.455Z" fill="#947CE9"/>
<path d="M260.608 408.264C271.273 410.318 277.094 421.106 276.582 440.711C276.023 460.574 269.317 470.506 258.745 469.307C248.826 468.194 243.423 456.893 243.563 438.742C243.749 418.88 250.083 409.291 260.608 408.264Z" fill="#947CE9"/>
<path d="M260.561 725.808C249.43 723.925 243.33 713.822 243.516 694.302C243.656 674.867 249.803 663.994 260.375 664.251C270.946 664.508 276.814 675.809 276.768 695.158C276.674 714.935 270.108 724.096 260.561 725.808Z" fill="#947CE9"/>
<path d="M155.777 216.658C166.302 218.199 172.449 228.216 172.217 247.907C171.984 267.684 165.65 278.044 155.032 277.359C145.159 276.76 139.524 266.143 139.384 247.907C139.198 228.302 145.205 218.199 155.777 216.658Z" fill="#947CE9"/>
<path d="M172.589 886.593C171.332 907.311 165.417 918.013 154.752 916.9C143.948 915.787 138.639 903.287 139.337 883.939C139.989 865.703 146.183 855.942 156.056 856.199C166.954 856.456 171.797 868.699 172.589 886.593Z" fill="#947CE9"/>
<path d="M17.2286 917.242C5.95845 915.444 -0.0489892 905.171 0.277007 885.565C0.603004 865.788 7.02966 855.6 17.6013 856.371C27.4743 857.056 32.9698 867.929 33.1095 886.079C33.2958 906.112 26.8688 915.444 17.2286 917.242Z" fill="#947CE9"/>
<path d="M33.2491 248.506C32.0848 267.855 26.2171 278.386 15.6455 277.273C4.93417 276.16 -0.32847 263.831 0.370093 244.654C1.02208 226.589 7.12286 216.914 16.9493 217.257C27.7072 217.599 32.7368 229.243 33.2491 248.506Z" fill="#947CE9"/>
<path d="M294.744 658.601C285.244 655.176 279.376 645.587 280.167 628.807C280.959 612.454 287.106 602.266 296.327 603.978C304.57 605.519 309.833 616.05 309.554 631.546C309.274 648.413 303.034 656.546 294.744 658.601Z" fill="#947CE9"/>
<path d="M120.569 156.299C128.673 157.327 134.587 165.032 135.379 180.528C136.264 197.651 130.861 208.867 121.733 209.808C112.559 210.75 106.644 200.22 106.551 183.268C106.458 167.686 111.907 158.868 120.569 156.299Z" fill="#947CE9"/>
<path d="M309.881 502.011C308.996 518.278 304.292 529.665 295.164 530.007C286.036 530.35 280.262 519.562 280.168 502.782C280.075 487.371 285.571 476.926 293.814 475.899C302.988 474.786 308.158 485.316 309.881 502.011Z" fill="#947CE9"/>
<path d="M66.3153 949.862C65.3839 966.043 60.6801 977.173 51.5521 977.258C42.5174 977.344 36.7893 966.642 36.8359 949.947C36.8359 934.622 42.2847 924.434 50.5277 923.578C59.6556 922.722 64.7785 933.081 66.3153 949.862Z" fill="#947CE9"/>
<path d="M66.1274 182.84C65.4754 197.908 61.0977 208.61 52.715 209.808C43.4939 211.093 37.3466 201.076 37.0206 184.21C36.6946 167.258 42.5161 156.642 51.7372 156.727C60.2131 156.813 64.9166 167.001 66.1274 182.84Z" fill="#947CE9"/>
<path d="M121.035 977.858C112.093 975.717 106.179 966.642 106.411 949.947C106.644 933.338 112.605 923.065 121.687 923.664C129.93 924.178 135.425 934.366 135.611 949.605C135.798 966.385 130.023 975.461 121.035 977.858Z" fill="#947CE9"/>
<path d="M259.956 847.124C251.387 845.84 246.544 837.364 246.963 821.183C247.335 806.457 252.132 798.324 260.142 798.495C268.991 798.666 273.601 808.084 273.275 824.094C272.949 838.905 268.013 846.182 259.956 847.124Z" fill="#947CE9"/>
<path d="M224.097 222.822C233.411 223.678 238.487 231.469 238.394 247.65C238.301 262.291 233.83 270.852 225.867 271.194C217.158 271.537 212.268 262.89 212.268 246.794C212.221 231.897 217.111 224.791 224.097 222.822Z" fill="#947CE9"/>
<path d="M225.494 862.021C233.551 863.305 238.348 870.839 238.487 885.651C238.627 901.832 233.83 910.822 225.028 910.65C217.018 910.479 212.361 902.089 212.175 887.277C211.989 871.096 216.972 862.963 225.494 862.021Z" fill="#947CE9"/>
<path d="M258.932 286.605C268.246 287.461 273.369 295.252 273.276 311.604C273.183 326.33 268.665 334.977 260.655 335.32C251.853 335.662 246.963 326.929 246.963 310.663C246.916 295.766 251.806 288.488 258.932 286.605Z" fill="#947CE9"/>
<path d="M202.953 182.498C202.301 195.683 198.529 204.843 191.357 205.528C183.347 206.299 178.317 197.309 178.41 182.669C178.503 169.484 183.253 161.094 190.472 161.009C197.784 160.923 201.696 169.57 202.953 182.498Z" fill="#947CE9"/>
<path d="M294.791 781.8C287.153 779.831 282.17 772.125 282.589 757.314C282.962 744.13 287.619 735.825 294.837 735.996C302.801 736.253 307.551 745.243 307.178 759.968C306.899 773.324 302.056 780.259 294.791 781.8Z" fill="#947CE9"/>
<path d="M294.093 398.075C286.688 395.164 281.798 387.202 282.683 372.562C283.475 359.805 288.272 351.586 295.444 352.614C303.267 353.727 307.831 363.144 307.04 377.613C306.341 390.455 301.404 397.219 294.093 398.075Z" fill="#947CE9"/>
<path d="M189.727 927.26C198.063 929.4 203.093 936.934 202.767 951.574C202.487 964.588 197.83 972.978 190.705 972.892C182.834 972.807 178.084 963.817 178.317 949.263C178.503 936.078 183.626 929.828 189.727 927.26Z" fill="#947CE9"/>
<path d="M340.617 566.394C339.918 579.407 336.239 586.855 329.533 586.684C322.827 586.513 318.822 578.979 318.868 566.65C318.961 554.322 323.06 546.959 329.766 547.045C336.519 547.216 339.918 555.007 340.617 566.394Z" fill="#947CE9"/>
<path d="M165.324 1012.1C165.091 1023.83 162.297 1030.6 156.894 1031.54C150.747 1032.65 146.648 1026.66 146.462 1015.01C146.229 1003.46 149.955 997.035 156.242 997.207C161.831 997.292 164.346 1004.31 165.324 1012.1Z" fill="#947CE9"/>
<path d="M75.5355 1014.76C76.5135 1000.97 80.472 994.211 87.1316 995.238C93.931 996.265 97.2843 1004.74 96.6323 1016.9C96.0269 1027.69 92.0682 1034.02 86.014 1033.68C79.1681 1033.34 76.0944 1025.37 75.5355 1014.76Z" fill="#947CE9"/>
<path d="M26.1236 1014.24C25.4716 1025.12 22.3047 1031.88 16.1107 1031.37C10.7551 1030.94 7.44861 1024.6 7.44861 1014.76C7.44861 1003.46 11.1276 996.95 17.275 997.378C22.6307 997.806 25.425 1004.31 26.1236 1014.24Z" fill="#947CE9"/>
<path d="M25.9835 119.485C25.2383 129.331 22.3975 136.009 16.9487 136.094C10.7548 136.18 7.07591 129.074 7.54162 117.773C7.96075 108.098 11.5933 101.934 17.1352 102.533C22.584 103.133 25.3781 109.725 25.9835 119.485Z" fill="#947CE9"/>
<path d="M96.6786 119.485C95.7937 133.355 91.6025 139.519 84.8963 138.235C78.7955 137.122 75.5822 129.588 75.9548 118.372C76.3739 105.444 80.8447 99.3657 87.5975 100.564C93.6983 101.592 96.4923 109.383 96.6786 119.485Z" fill="#947CE9"/>
<path d="M165.325 118.715C164.207 131.043 160.761 137.55 154.66 136.351C149.444 135.324 146.137 128.732 146.51 118.8C146.929 107.499 150.795 101.421 156.895 102.448C162.251 103.304 164.673 110.581 165.325 118.715Z" fill="#947CE9"/>
<path d="M339.313 437.201C338.847 449.787 335.773 456.379 329.533 456.465C324.084 456.465 320.685 450.814 320.219 440.968C319.707 429.838 322.734 422.561 328.974 421.705C335.308 420.849 338.335 427.698 339.313 437.201Z" fill="#947CE9"/>
<path d="M339.266 694.388C338.847 705.517 335.82 712.11 329.533 712.195C324.084 712.195 320.685 706.545 320.219 696.699C319.707 685.57 322.734 678.207 328.974 677.436C335.168 676.666 338.521 683.001 339.266 694.388Z" fill="#947CE9"/>
</g>
<path opacity="0.3" d="M68.6853 499.358L-57.3588 521.583L-139.628 423.539L-95.8535 303.269L30.1906 281.044L112.46 379.089L68.6853 499.358Z" stroke="url(#paint0_linear_22_227)" stroke-width="50"/>
</g>
<defs>
<filter id="filter0_f_22_227" x="-270.738" y="142" width="788.738" height="600.624" filterUnits="userSpaceOnUse" color-interpolation-filters="sRGB">
<feFlood flood-opacity="0" result="BackgroundImageFix"/>
<feBlend mode="normal" in="SourceGraphic" in2="BackgroundImageFix" result="shape"/>
<feGaussianBlur stdDeviation="75" result="effect1_foregroundBlur_22_227"/>
</filter>
<filter id="filter1_f_22_227" x="-267.379" y="0.416016" width="707.996" height="1133.28" filterUnits="userSpaceOnUse" color-interpolation-filters="sRGB">
<feFlood flood-opacity="0" result="BackgroundImageFix"/>
<feBlend mode="normal" in="SourceGraphic" in2="BackgroundImageFix" result="shape"/>
<feGaussianBlur stdDeviation="50" result="effect1_foregroundBlur_22_227"/>
</filter>
<linearGradient id="paint0_linear_22_227" x1="68.6853" y1="499.358" x2="-95.8535" y2="303.269" gradientUnits="userSpaceOnUse">
<stop stop-color="#020202"/>
<stop offset="1" stop-color="#020202" stop-opacity="0"/>
</linearGradient>
</defs>
</svg>
