<svg width="600" height="600" viewBox="0 0 600 600" fill="none" xmlns="http://www.w3.org/2000/svg">
<g clip-path="url(#clip0_58_271)">
<path opacity="0.15" d="M640.38 110.39C605.09 140.39 555.92 213.96 479.52 219.23C347.62 228.32 275.59 24.03 135.38 32.23C82.42 35.34 56.1 60.5 30.22 86.6C31.65 147 30.31 175.69 30.72 229.06C119.72 145.77 162.91 137.67 210.65 141.43C322.93 150.26 362.35 266.49 495.65 283.89C550.08 291 600.3 279 640.38 263.36V110.39Z" fill="url(#paint0_radial_58_271)"/>
<path opacity="0.2" d="M595.75 301.54C561.45 336.12 513.67 421 439.43 427C311.25 437.51 241.25 202 105 211.43C53.54 215 28 244 2.81 274.11C4.2 343.75 2.9 376.83 3.29 438.37C89.74 342.37 131.75 332.99 178.14 337.32C287.26 347.51 325.57 481.52 455.14 501.58C508.04 509.77 556.84 495.97 595.79 477.91L595.75 301.54Z" fill="url(#paint1_radial_58_271)"/>
<path opacity="0.5" d="M418.27 430.35C414.55 437.48 407.98 442.81 400.64 445.94C393.33 449.23 385.36 450.77 377.42 451.57C369.437 452.286 361.408 452.316 353.42 451.66C345.442 451.022 337.506 449.937 329.65 448.41C321.79 446.9 314.01 445.02 306.3 442.86C298.59 440.7 291 438.19 283.47 435.48C275.94 432.77 268.53 429.74 261.18 426.57C253.83 423.4 246.63 419.89 239.49 416.29C232.35 412.69 225.34 408.8 218.49 404.72C211.64 400.64 204.82 396.4 198.21 391.88C191.6 387.36 185.13 382.64 178.84 377.69C172.55 372.74 166.49 367.48 160.66 361.99C154.805 356.513 149.266 350.707 144.07 344.6C138.854 338.495 134.17 331.955 130.07 325.05C126.07 318.12 122.61 310.72 120.98 302.78C119.19 294.93 119.67 286.34 123.33 278.99C127.16 271.72 133.87 266.33 141.33 263.2C148.73 259.89 156.75 258.38 164.72 257.6C172.705 256.918 180.735 256.918 188.72 257.6C196.71 258.262 204.656 259.377 212.52 260.94C220.38 262.47 228.17 264.37 235.87 266.56C243.57 268.75 251.17 271.29 258.7 274.02C266.23 276.75 273.63 279.81 280.96 283.02C288.29 286.23 295.49 289.74 302.63 293.36C309.77 296.98 316.75 300.9 323.63 305C330.51 309.1 337.28 313.37 343.87 317.91C350.46 322.45 356.92 327.18 363.19 332.15C369.46 337.12 375.5 342.38 381.3 347.89C387.13 353.375 392.642 359.187 397.81 365.3C402.993 371.401 407.644 377.935 411.71 384.83C415.71 391.75 419.1 399.12 420.71 406.98C422.39 414.72 421.89 423.17 418.27 430.35ZM418.27 430.35C421.86 423.16 422.34 414.72 420.58 406.96C418.97 399.11 415.58 391.77 411.58 384.87C407.501 377.992 402.834 371.481 397.63 365.41C392.452 359.322 386.933 353.533 381.1 348.07C375.28 342.59 369.2 337.38 362.95 332.41C356.7 327.44 350.21 322.75 343.61 318.24C337.01 313.73 330.23 309.51 323.36 305.42C316.49 301.33 309.45 297.54 302.36 293.86C295.27 290.18 288 286.8 280.67 283.61C273.34 280.42 265.94 277.41 258.42 274.71C250.9 272.01 243.31 269.52 235.63 267.34C227.95 265.16 220.17 263.34 212.33 261.81C204.498 260.282 196.585 259.2 188.63 258.57C180.682 257.915 172.693 257.945 164.75 258.66C156.86 259.45 148.94 260.98 141.75 264.24C134.49 267.33 128.06 272.57 124.41 279.54C120.76 286.51 120.41 294.86 122.08 302.54C123.75 310.22 127.02 317.64 130.98 324.54C135.022 331.41 139.646 337.92 144.8 344C149.954 350.094 155.449 355.89 161.26 361.36C167.05 366.86 173.1 372.07 179.33 377.07C185.56 382.07 192.04 386.75 198.62 391.28C205.2 395.81 212 400 218.82 404.14C225.64 408.28 232.7 412.06 239.82 415.76C246.94 419.46 254.14 422.87 261.45 426.08C268.76 429.29 276.17 432.33 283.68 435.08C291.19 437.83 298.79 440.32 306.47 442.53C314.15 444.74 321.93 446.61 329.77 448.14C337.611 449.696 345.533 450.805 353.5 451.46C361.465 452.145 369.475 452.145 377.44 451.46C385.38 450.68 393.34 449.18 400.65 445.91C408 442.77 414.52 437.47 418.27 430.35Z" fill="#FDFEFF"/>
<path d="M409.25 190.86C409.84 192.48 403.13 194.38 398.04 202.46C396.251 205.324 394.944 208.463 394.17 211.75L393.97 205.56L392.97 211.84C392.34 208.9 391.76 206.49 391.52 206.53C390.99 206.61 393.71 217.99 391.32 219C389.32 219.86 382.65 213.56 382.81 206.43C382.93 201.36 386.42 197.88 387.81 196.43C395.63 188.75 408.48 188.73 409.25 190.86Z" fill="#7A4020"/>
<path d="M398.57 195.24C395.913 197.231 393.134 199.055 390.25 200.7C390.155 200.745 390.065 200.798 389.98 200.86C389.824 200.954 389.674 201.058 389.53 201.17C386.94 203.24 386.67 206.79 386.61 207.67C386.479 210.098 387.15 212.501 388.52 214.51C388.59 214.625 388.667 214.735 388.75 214.84C389.785 216.351 391.154 217.603 392.75 218.5C389.302 222.266 384.9 225.03 380.01 226.5C374.23 228.18 369.6 227.5 365.39 226.79C361.64 226.2 351 224.52 350.52 220.62C350.4 219.62 350.96 218.83 352.02 217.82C354.09 215.82 358.1 213.06 362.95 206.82C363.74 205.82 364.37 204.95 364.8 204.33C364.136 204.406 363.468 204.439 362.8 204.43C360.791 204.446 358.811 203.958 357.04 203.01C356.443 202.68 355.895 202.269 355.41 201.79C354.3 200.73 352.36 198.3 352.46 191.87C352.68 178.58 361.34 163.17 364.69 157.53L369.9 157.2L371.69 157.83C392.96 165.34 395.46 170.44 395.29 173.06C395.23 173.89 393.71 176.55 390.65 181.88C390.65 181.88 388.15 186.23 386.13 190.24C386 190.49 385.67 191.17 385.59 191.4C387.066 189.435 388.764 187.646 390.65 186.07C392.378 184.687 394.29 183.549 396.33 182.69C398.33 181.87 400.33 181.52 401.41 182.41C403.76 184.33 402.41 191.87 398.57 195.24Z" fill="#F2B2AF"/>
<path opacity="0.1" d="M380.09 197C380.29 197.24 369.09 204.56 367.64 210.67C367.413 211.883 366.852 213.008 366.02 213.92C364.72 215.29 363.48 215 361.68 215.92C358.29 217.57 358.35 220.56 356.52 220.92C355.52 221.13 354.11 220.57 352.04 217.85C354.1 215.85 358.11 213.1 362.97 206.85C363.75 205.85 364.38 204.98 364.82 204.36C364.156 204.435 363.488 204.468 362.82 204.46C365.629 204.195 368.385 203.521 371 202.46C376.34 200.25 380 196.83 380.09 197Z" fill="black"/>
<path d="M345.09 365.09C344.082 366.473 342.786 367.619 341.29 368.45C334.41 372.14 323.44 368.16 322.58 363.26C321.72 358.36 331.25 353.17 334.8 351.26C339.15 348.91 343.8 346.4 346.57 348.26C350.13 350.73 349.3 359.67 345.09 365.09Z" fill="#3B1BAF"/>
<path d="M182 392.79C180.909 400.489 178.472 407.936 174.8 414.79C178.106 416.962 182.027 418.005 185.975 417.761C189.923 417.518 193.686 416.002 196.7 413.44C195.372 408.353 194.865 403.087 195.2 397.84L182 392.79Z" fill="#F2B2AF"/>
<path d="M121.22 368.85L99.69 379.61L110.09 397.02L131.8 386.79L121.22 368.85Z" fill="#F2B2AF"/>
<path d="M329.7 333.58C314.733 335.52 299.753 337.453 284.76 339.38L224.62 347.15C222.036 356.791 218.932 366.285 215.32 375.59C211.324 385.896 206.709 395.951 201.5 405.7C197.816 406.999 193.863 407.344 190.01 406.7C189.37 406.59 188.71 406.44 188.01 406.27C183.532 405.112 179.506 402.631 176.46 399.15C178.46 357.28 188.55 324.77 201.38 310.48C206.654 304.523 213.193 299.821 220.52 296.72C244.322 293.712 268.441 294.295 292.07 298.45L329.7 333.58Z" fill="#D6D6D6"/>
<path opacity="0.3" d="M284.76 339.38L224.62 347.15C222.036 356.791 218.932 366.285 215.32 375.59C211.324 385.896 206.709 395.951 201.5 405.7C197.816 407 193.863 407.344 190.01 406.7C190.287 402.684 191.445 398.779 193.4 395.26C196.6 389.47 200.07 389.05 203.26 383.48C206.59 377.66 205.94 372.65 206.26 367.07C207.124 356.138 210.924 345.641 217.26 336.69C229.84 319.95 266.53 316 279.93 330.69C282.154 333.2 283.803 336.166 284.76 339.38Z" fill="white"/>
<path d="M345.3 225.63C340.316 226.904 335.602 229.061 331.38 232C329.29 233.51 327.47 235.74 323.13 239.41C317.13 244.48 313.28 247.7 310.13 248.91C309.103 249.349 307.983 249.527 306.87 249.43C306.387 249.372 305.911 249.265 305.45 249.11C304.73 248.837 304.055 248.456 303.45 247.98C302.3 247.06 292.77 235.19 280.03 218.72C277.157 213.46 274.28 208.203 271.4 202.95C270.647 201.566 269.474 200.456 268.05 199.78C267.71 199.62 267.34 199.46 266.95 199.31C264.364 198.296 261.608 197.783 258.83 197.8C255.451 197.77 252.099 198.412 248.97 199.69C248.41 200.51 248.45 200.92 248.57 201.13C249.34 202.52 250.57 201.75 252.57 201.42C253.285 201.285 254.015 201.248 254.74 201.31C256.243 201.464 257.708 201.877 259.07 202.53C258.746 202.673 258.435 202.843 258.14 203.04C256.85 204.02 255.919 205.398 255.49 206.96C254.81 209.61 257.08 213.58 261.59 215.67C262.23 216.09 262.89 216.52 263.59 217L264.13 217.41C266.227 219.453 268.125 221.689 269.8 224.09C270.59 225.29 271.72 227.09 273.02 229.22C275.02 232.61 276.41 235.22 280.86 244.31C281.76 246.16 288.34 259.76 290.25 263.99C291.25 266.21 292.08 268.05 292.67 269.36C293.5 271.203 294.58 272.922 295.88 274.47C297.48 276.36 299.88 279.23 303.52 279.87C305.06 280.14 306.94 279.77 310.69 279.02C314.78 278.2 315.37 277.69 315.69 278.02C316.09 278.51 315.51 280.34 314.06 282.87C326.447 281.912 338.747 280.044 350.86 277.28C366 273.72 377.72 271 386.24 268C374.22 239.85 355.73 223.38 345.3 225.63Z" fill="#F2B2AF"/>
<path opacity="0.08" d="M318.61 282.67C317.15 282.82 315.61 282.95 314.1 283.07C315.55 280.55 316.1 278.71 315.72 278.22C315.44 277.89 314.85 278.4 310.72 279.22C306.96 279.97 305.09 280.34 303.54 280.08C299.92 279.42 297.54 276.56 295.91 274.67C294.612 273.121 293.532 271.402 292.7 269.56L290.28 264.19C288.37 259.97 281.79 246.35 280.88 244.51C276.44 235.42 275.07 232.81 273.05 229.42C271.75 227.26 270.62 225.49 269.83 224.29C268.155 221.889 266.257 219.653 264.16 217.61L263.61 217.2C262.96 216.71 262.3 216.29 261.61 215.87C257.1 213.78 254.83 209.8 255.51 207.16C255.824 205.978 256.437 204.897 257.29 204.02C257.263 205.448 257.55 206.865 258.13 208.17C259.77 211.68 263.19 212.93 265.4 214.17C271.11 217.26 269.61 220.39 280.01 234.81C285.53 242.46 287.09 243.14 288.83 247.81C290.57 252.48 289.62 253.55 291.83 258.81C293.18 262.03 295.39 267.1 300.64 270.81C302.462 272.133 304.489 273.147 306.64 273.81C316.96 276.87 326.17 269.1 327.28 270.61C328.2 271.71 324.88 277.7 318.61 282.67Z" fill="black"/>
<path d="M346.58 354.82C329.718 363.641 311.324 369.154 292.39 371.06C266.074 373.587 239.556 369.17 215.48 358.25C203.69 363.94 191 369.6 177.48 375.07C160.94 381.73 145.1 387.26 130.21 391.9C125.876 389.086 122.484 385.039 120.47 380.28C120.149 379.498 119.869 378.701 119.63 377.89C118.733 374.904 118.394 371.779 118.63 368.67L199.72 323.52C204.722 320.739 210.286 319.119 216 318.78C230 317.95 245.24 317.65 261.55 318.18C278.838 318.752 296.085 320.224 313.22 322.59L331 339.73L346.58 354.82Z" fill="url(#paint2_linear_58_271)"/>
<path opacity="0.06" d="M346.58 354.82C329.718 363.641 311.324 369.154 292.39 371.06C266.074 373.587 239.556 369.17 215.48 358.25C203.69 363.94 191 369.6 177.48 375.07C160.94 381.73 145.1 387.26 130.21 391.9C125.876 389.086 122.484 385.039 120.47 380.28C120.149 379.498 119.869 378.701 119.63 377.89C132.96 375.02 155.98 379.76 181.36 364.15C196.84 354.64 206.36 341.76 219.36 344.91C226.26 346.58 228.85 351.44 239.08 353.28C247.93 354.89 252.99 352.52 260.68 351.4C282.16 348.26 287.68 360.11 303.5 358.56C316.67 357.27 324.34 347.9 330.99 339.73L346.58 354.82Z" fill="black"/>
<path d="M103.37 375.72C103.948 375.912 104.466 376.254 104.87 376.711C105.274 377.167 105.55 377.722 105.67 378.32C106.33 381.32 102.59 385.08 98.87 385.21C98.17 385.21 96.44 385.3 95.87 384.32C94.54 382 99.83 374.84 103.37 375.72Z" fill="#B99EFF"/>
<path d="M119.23 394.59C117.574 397.425 115.557 400.034 113.23 402.35C112.49 403.09 111.74 403.86 111.01 404.6C109.371 406.447 107.518 408.092 105.49 409.5C89.56 404.86 74.84 397.8 58.92 393.17C58.7329 393.116 58.5592 393.023 58.4104 392.897C58.2615 392.771 58.1407 392.616 58.0558 392.44C57.971 392.265 57.9239 392.074 57.9178 391.879C57.9116 391.684 57.9464 391.49 58.02 391.31L59.84 387L60.59 385.26C61.0737 384.081 61.8601 383.05 62.8697 382.272C63.8794 381.495 65.0765 380.997 66.34 380.83C67.72 380.64 69.15 380.48 70.61 380.32C71.61 380.21 72.61 380.11 73.61 380.03C76.45 379.78 79.41 379.58 82.48 379.46C88.62 379.23 94.35 378.07 99.56 378.4C100.81 380.77 103.56 386.4 108.65 389.97C111.829 392.207 115.428 393.779 119.23 394.59Z" fill="url(#paint3_linear_58_271)"/>
<path d="M200.42 429.39C183.79 435.39 168.26 443.97 151.65 449.95C151.077 450.141 150.465 450.185 149.87 450.08C148.69 449.83 147.44 448.18 146.54 446.29C145.679 444.668 145.213 442.866 145.18 441.03C145.334 439.471 146.044 438.019 147.18 436.94C152.766 432.463 158.107 427.69 163.18 422.64C167.96 417.88 172.18 413.2 175.82 408.77C176.545 410.874 177.833 412.74 179.543 414.165C181.254 415.589 183.321 416.518 185.522 416.851C187.723 417.184 189.973 416.908 192.028 416.053C194.083 415.197 195.865 413.796 197.18 412C198.147 414.002 198.91 416.096 199.46 418.25C199.766 419.425 199.999 420.617 200.16 421.82C200.524 424.326 200.611 426.865 200.42 429.39Z" fill="url(#paint4_linear_58_271)"/>
<path d="M420.08 280.88C415.7 283.457 410.781 284.979 405.711 285.326C400.641 285.673 395.56 284.836 390.87 282.88L390.78 283.16C387.993 291.307 385.193 299.463 382.38 307.63C382.38 307.63 378.84 316.92 373.19 328.29C368.98 336.75 363.59 346.37 357.62 354.13C354.598 358.225 351.024 361.883 347 365C345.48 366.11 343.92 367 343.92 367C342.83 367.65 341.92 368.12 341.27 368.44C341.85 367.395 342.329 366.296 342.7 365.16C343.365 363.169 343.587 361.056 343.35 358.97C342.7 353.65 339.04 349.97 334.26 346.13C333.45 345.49 332.65 344.88 331.88 344.32C323.12 337.84 316.17 335.32 310.67 332.41C300.21 326.8 282.37 312.8 284.24 301.84C285.06 297.04 289.43 294.01 295.13 290.84C300.13 288.04 306.13 285.13 311.69 280.78C317.279 276.527 321.647 270.873 324.35 264.39C324.441 264.198 324.521 264.001 324.59 263.8C324.59 263.8 324.53 263.74 324.51 263.7C322.815 261.878 321.372 259.836 320.22 257.63C317.762 252.831 316.675 247.447 317.08 242.07C319.46 237.43 326.44 225.48 340.73 219.4C345.011 217.591 349.55 216.464 354.18 216.06C354.46 216.54 359.62 225.32 369.48 225.65C377.3 225.89 384.68 220.65 387.48 212.73C391.577 213.809 395.445 215.618 398.9 218.07C401.5 219.93 406.9 224.32 411.84 235.16C419.9 252.74 420.24 272.57 420.08 280.88Z" fill="#7A4FE8"/>
<path opacity="0.25" d="M357.25 354.58C355.272 357.163 353.103 359.593 350.76 361.85C350.86 360.285 350.86 358.715 350.76 357.15C350.561 352.909 349.228 348.8 346.9 345.25C343.76 340.66 340.34 339.68 331.66 334.76C329.35 333.44 325.82 331.46 321.84 328.92C314.94 324.56 306.62 318.6 300.49 311.72C295.923 306.551 292.286 300.63 289.74 294.22C291.214 293.152 292.754 292.176 294.35 291.3C298.756 302.938 306.721 312.89 317.11 319.74C332.38 330 348.65 332.53 355.25 347.88C355.51 348.48 355.74 349.09 355.96 349.69C356.521 351.283 356.952 352.918 357.25 354.58Z" fill="#9490DC"/>
<path opacity="0.25" d="M360.47 350.19C360.595 347.387 360.33 344.58 359.68 341.85C359.075 339.318 358.018 336.916 356.56 334.76C353.42 330.16 350 329.18 341.32 324.25C335.85 321.14 323.72 314.25 314.27 305.42C312.82 304.07 311.44 302.66 310.15 301.22C306.531 297.121 303.501 292.537 301.15 287.6C302.68 286.76 304.25 285.86 305.82 284.9C308.368 290.396 311.74 295.471 315.82 299.95C316.26 300.42 316.68 300.87 317.13 301.31C332.88 317.31 352.66 318.63 362.23 332.51C363.278 334.045 364.172 335.68 364.9 337.39C365.416 338.615 365.857 339.871 366.22 341.15C364.41 344.24 362.48 347.31 360.47 350.19Z" fill="#9490DC"/>
<path opacity="0.25" d="M374.93 324.67C373.93 326.85 372.77 329.13 371.55 331.47C370.952 329.802 370.146 328.216 369.15 326.75C368.158 325.277 366.928 323.979 365.51 322.91C362.96 320.91 359.51 319.43 353.9 316.24C348.29 313.05 335.17 305.62 325.58 296.19C324.58 295.19 323.65 294.19 322.74 293.19C319.028 289.007 315.936 284.313 313.56 279.25C315.008 278.013 316.368 276.677 317.63 275.25C320.282 281.379 323.931 287.025 328.43 291.96C329 292.58 329.56 293.17 330.14 293.73C343.06 306.62 358.59 309.82 368.95 318.27C371.248 320.097 373.263 322.254 374.93 324.67Z" fill="#9490DC"/>
<path opacity="0.25" d="M381.61 309.55C381.05 310.91 380.23 312.93 379.16 315.41C378.051 313.954 376.698 312.702 375.16 311.71C372.71 310.07 369.49 308.55 364.56 305.76C358.79 302.48 345.56 294.97 335.93 285.39C335.05 284.52 334.21 283.63 333.4 282.72C329.212 277.993 325.809 272.625 323.32 266.82C323.7 266.04 324.07 265.25 324.41 264.41L324.65 263.82C325.22 262.44 325.78 261.12 326.34 259.82C328.328 265.578 331.123 271.026 334.64 276C335.99 277.893 337.456 279.699 339.03 281.41C351.9 295.41 367.8 298.72 378.63 306.98C379.674 307.776 380.669 308.634 381.61 309.55Z" fill="#9490DC"/>
<path opacity="0.14" d="M390.78 283.12C390 285.39 389.22 287.68 388.43 289.95C388 291.24 387.55 292.52 387.11 293.81C386.45 295.74 385.79 297.68 385.11 299.6L382.36 307.6C382.36 307.6 382.1 308.3 381.59 309.6C381.08 310.9 380.21 312.98 379.14 315.46C378.74 316.36 378.32 317.33 377.86 318.34C376.99 320.34 376 322.45 374.91 324.72C373.82 326.99 372.75 329.18 371.53 331.52C369.9 334.7 368.11 337.97 366.21 341.2C364.31 344.43 362.46 347.36 360.45 350.2C359.4 351.72 358.33 353.2 357.23 354.59C355.252 357.173 353.083 359.603 350.74 361.86C349.558 362.981 348.309 364.029 347 365C345.48 366.11 343.92 367 343.92 367C342.83 367.65 341.92 368.12 341.27 368.44C341.85 367.395 342.329 366.296 342.7 365.16C345.598 362.735 348.275 360.058 350.7 357.16C354.303 352.851 357.193 347.993 359.26 342.77C359.38 342.46 359.5 342.16 359.61 341.86C360.721 338.823 361.577 335.699 362.17 332.52C362.87 329.14 363.46 326.26 365.44 322.92C366.055 321.87 366.747 320.868 367.51 319.92C367.95 319.35 368.41 318.8 368.88 318.27C370.54 316.38 372.28 314.69 373.94 312.93C374.32 312.53 374.68 312.14 375.05 311.73C376.367 310.279 377.542 308.705 378.56 307.03C379.725 305.095 380.607 303.004 381.18 300.82C381.47 299.745 381.69 298.653 381.84 297.55C381.997 296.292 382.09 295.027 382.12 293.76C382.12 292.89 382.22 291.89 382.3 290.76C382.42 289.15 382.58 287.29 382.81 285.23C383.881 274.729 386.063 264.371 389.32 254.33C387.926 260.999 387.726 267.862 388.73 274.6C389.182 277.491 389.868 280.34 390.78 283.12Z" fill="black"/>
<path opacity="0.1" d="M398.57 195.24C395.913 197.231 393.134 199.055 390.25 200.7C390.155 200.745 390.065 200.798 389.98 200.86C389.824 200.955 389.674 201.058 389.53 201.17C386.94 203.24 386.67 206.79 386.61 207.67C386.479 210.098 387.15 212.501 388.52 214.51C388.59 214.625 388.667 214.735 388.75 214.84C388.39 214.764 388.05 214.614 387.75 214.4C384.99 212.4 386.25 203.3 390.36 197.35C394.08 191.95 399.67 189.81 399.08 186.2C398.8 184.5 397.33 183.59 396.39 182.7C398.39 181.88 400.39 181.53 401.47 182.42C403.76 184.33 402.41 191.87 398.57 195.24Z" fill="black"/>
<path opacity="0.11" d="M343.71 263.34C343.695 263.595 343.662 263.849 343.61 264.1C343.39 265.211 342.827 266.225 342 267C341.621 267.362 341.217 267.696 340.79 268C339.04 269.32 336.9 270.54 335.54 273.19C335.073 274.058 334.78 275.009 334.68 275.99C334.36 279.16 336.27 281.69 335.93 285.35C335.899 285.764 335.836 286.176 335.74 286.58C335.636 287.064 335.492 287.539 335.31 288C334.264 290.399 332.462 292.39 330.18 293.67C328.708 294.582 327.185 295.41 325.62 296.15C322.62 297.65 319.48 299.15 317.18 301.27C315.926 302.406 314.944 303.811 314.31 305.38C314.238 305.528 314.178 305.682 314.13 305.84C312.84 309.58 314.13 313.43 317.13 319.7C317.88 321.23 318.74 322.92 319.69 324.78C320.423 326.213 321.147 327.573 321.86 328.86C324.825 334.229 328.167 339.382 331.86 344.28C323.1 337.8 316.15 335.28 310.65 332.37C300.19 326.76 282.35 312.76 284.22 301.8C284.75 298.67 286.79 296.3 289.71 294.16C291.184 293.091 292.724 292.116 294.32 291.24C296.42 290.06 298.71 288.86 301.08 287.54C302.61 286.7 304.18 285.8 305.75 284.84C308.492 283.183 311.091 281.299 313.52 279.21C314.968 277.973 316.328 276.637 317.59 275.21C318.05 274.7 318.5 274.16 318.93 273.61C320.603 271.498 322.048 269.216 323.24 266.8C323.62 266.02 323.99 265.23 324.33 264.39L324.57 263.8C325.14 262.42 325.7 261.1 326.26 259.8C327.13 257.8 328.01 255.9 328.9 254.12C329.54 252.83 330.16 251.6 330.79 250.41C331.99 248.14 333.17 246.09 334.32 244.22C336.463 240.707 338.874 237.363 341.53 234.22C337.53 245.12 338.7 251.78 340.73 255.95C342.05 258.63 343.89 260.66 343.71 263.34Z" fill="black"/>
<path d="M419.1 281.43C419.16 285.08 419.1 285.43 418.94 291.22C418.65 301.46 418.22 308.71 413.94 313.42C403.74 324.65 374.89 313.09 367.94 310.42C366.34 309.8 363.7 308.72 359.57 307.31C347.12 303.03 340.9 300.89 335.74 301.94C333.74 302.35 330.88 303.26 327.14 302.45C325.226 302.141 323.433 301.319 321.95 300.07C318.38 296.86 318.72 291.74 318.8 290.88L310.51 292C310.239 292.032 309.966 291.967 309.739 291.816C309.512 291.665 309.346 291.439 309.27 291.177C309.195 290.915 309.215 290.635 309.326 290.387C309.438 290.138 309.634 289.937 309.88 289.82C312.06 288.82 314.28 287.82 315.64 287.26C319.31 285.67 327.64 282.07 335.56 284.79C339.06 286 339.56 287.42 344.83 289.13C346.76 289.757 348.736 290.232 350.74 290.55C351.57 290.68 352.19 290.75 352.36 290.77C354.78 291.05 366.21 292.55 389.88 295.72C389.849 291.887 390.184 288.059 390.88 284.29C391.22 282.48 390.88 284.45 391.3 282.87C395.943 284.683 400.909 285.524 405.89 285.34C410.506 284.912 414.994 283.583 419.1 281.43Z" fill="#F2B2AF"/>
<path opacity="0.08" d="M268 212.07C268.55 211.41 266.11 208.58 265.93 208.38C264.673 206.938 263.174 205.726 261.5 204.8" fill="black"/>
<path opacity="0.4" d="M111 404.6C109.361 406.447 107.508 408.092 105.48 409.5C89.55 404.86 74.83 397.8 58.91 393.17C58.7229 393.116 58.5492 393.023 58.4003 392.897C58.2515 392.771 58.1307 392.616 58.0458 392.44C57.961 392.265 57.9139 392.074 57.9077 391.879C57.9016 391.684 57.9364 391.49 58.01 391.31L59.84 387L111 404.6Z" fill="white"/>
<path opacity="0.6" d="M110.08 395.81L107.76 397.81C106.777 396.739 105.721 395.736 104.6 394.81C102.14 392.75 96.6 388.13 89.37 387.64C86.77 387.47 86.07 387.97 81.93 387.64C78.93 387.4 77.34 387.27 75.71 386.44C73.3248 385.099 71.5113 382.934 70.61 380.35C71.61 380.24 72.61 380.14 73.61 380.06C74.3769 381.478 75.4536 382.705 76.76 383.65C80.95 386.65 84.48 384.07 92.38 385.7C99.1872 387.185 105.377 390.716 110.12 395.82L110.08 395.81Z" fill="white"/>
<path opacity="0.6" d="M192.3 420.59L191.73 423.59C190.295 423.386 188.849 423.279 187.4 423.27C184.19 423.22 176.95 423.13 171.05 427.27C168.93 428.77 168.69 429.59 165.27 431.94C162.77 433.65 161.46 434.54 159.67 434.94C156.974 435.406 154.2 434.861 151.88 433.41C152.56 432.72 153.27 432.02 154 431.33C155.486 431.949 157.092 432.226 158.7 432.14C163.82 431.8 164.97 427.61 172.14 423.92C178.37 420.801 185.403 419.656 192.3 420.64V420.59Z" fill="white"/>
<path opacity="0.4" d="M200.42 429.39C183.79 435.39 168.26 443.97 151.65 449.95C151.077 450.141 150.465 450.185 149.87 450.08C148.69 449.83 147.44 448.18 146.54 446.29L200.16 421.77C200.527 424.293 200.615 426.848 200.42 429.39Z" fill="white"/>
<path opacity="0.1" d="M364.09 173.22C360.2 178.64 355.01 183.44 356.14 185.09C356.88 186.18 359.74 185.09 360.3 186.19C360.86 187.29 358.67 188.72 357.36 190.88C354.51 195.62 357.36 200.95 357.06 203.05C356.465 202.717 355.917 202.307 355.43 201.83C354.32 200.77 352.43 198.34 352.48 191.9C352.7 178.62 361.36 163.21 364.72 157.57L369.93 157.24C370.54 157.44 371.13 157.66 371.71 157.87C371.12 162.42 366.56 169.78 364.09 173.22Z" fill="black"/>
<g opacity="0.3">
<path opacity="0.3" d="M342.72 232.74C338.838 237.484 335.366 242.549 332.34 247.88C331.593 249.213 330.873 250.563 330.18 251.93C329.48 253.28 328.8 254.65 328.18 256.04C326.83 258.79 325.62 261.6 324.41 264.42H324.36C325.264 261.483 326.356 258.607 327.63 255.81C328.919 253.016 330.361 250.295 331.95 247.66C335.073 242.364 338.671 237.364 342.7 232.72L342.72 232.74Z" fill="white"/>
</g>
<path d="M359.45 152.63C359.24 156.44 368.28 160.93 374.04 162.63C376.04 163.22 379.04 163.85 384.04 165.55C389.85 167.5 390.63 168.24 391.12 168.97C393.12 171.97 391.51 176.38 389.38 182.13C387.14 188.13 384.38 192.58 384.69 192.77C385 192.96 386.69 189.23 390.69 186.13C393.22 184.13 398.54 180.98 400.96 182.81C403.1 184.43 401.96 189.21 401.66 190.64C400.33 196.41 396.55 199.36 396.94 199.78C397.51 200.39 407.43 196.03 411.94 186.55C416.74 176.36 413.73 163.45 406.4 155.16C397.4 144.93 384.55 144.88 380.66 144.87C371.09 144.81 359.68 148.44 359.45 152.63Z" fill="#7A4020"/>
<g opacity="0.25">
<path opacity="0.25" d="M376.79 177.22L366.57 179.77C366.506 178.583 366.711 177.397 367.17 176.3L376.08 173.56C376.707 174.671 376.956 175.955 376.79 177.22Z" fill="white"/>
<path opacity="0.25" d="M376.72 177.68C376.686 177.896 376.639 178.11 376.58 178.32L366.72 180.72C366.67 180.568 366.64 180.41 366.63 180.25L376.72 177.68Z" fill="white"/>
</g>
<g opacity="0.8">
<path opacity="0.8" d="M338.33 242.76L334.4 248.27L335.21 248.7L336.21 247.29L337.56 246.76L337.46 249.88L338.41 250.38L338.63 246.31L342.24 244.83L341.32 244.34L337.13 246.02L339.15 243.19L338.33 242.76Z" fill="white"/>
<path opacity="0.8" d="M341.53 246.63L339.78 249.06C338.86 250.35 339.16 251.34 340.05 251.81C340.272 251.963 340.531 252.053 340.8 252.07C340.97 252.057 341.138 252.024 341.3 251.97L341.09 252.28L341.87 252.69L344.92 248.42L344.11 247.99L342.56 250.14C342.423 250.382 342.234 250.59 342.005 250.747C341.776 250.905 341.515 251.008 341.24 251.05C341.049 251.06 340.859 251.019 340.69 250.93C340.17 250.65 340.14 250.13 340.69 249.35L342.34 247.06L341.53 246.63Z" fill="white"/>
<path opacity="0.8" d="M345.81 249L342.75 253.27L343.55 253.7L345.1 251.54C345.237 251.299 345.427 251.091 345.656 250.934C345.884 250.776 346.146 250.672 346.42 250.63C346.615 250.618 346.81 250.663 346.98 250.76C347.5 251.03 347.54 251.56 346.98 252.32L345.32 254.64L346.13 255.07L347.88 252.62C348.8 251.33 348.59 250.44 347.79 249.98C347.473 249.771 347.099 249.666 346.72 249.68C346.59 249.672 346.46 249.672 346.33 249.68L346.56 249.36L345.8 248.95" fill="white"/>
<path opacity="0.8" d="M366.46 259.93L363.4 264.2L364.2 264.63L365.75 262.46C365.89 262.222 366.081 262.018 366.309 261.862C366.537 261.706 366.797 261.603 367.07 261.56C367.269 261.546 367.467 261.591 367.64 261.69C368.15 261.97 368.19 262.49 367.64 263.25L366 265.57L366.8 266L368.55 263.55C369.48 262.26 369.27 261.37 368.46 260.91C368.143 260.701 367.769 260.596 367.39 260.61C367.262 260.619 367.136 260.635 367.01 260.66L367.24 260.34L366.47 259.93" fill="white"/>
<path opacity="0.8" d="M350.92 252C350.456 252.049 350.008 252.2 349.608 252.442C349.209 252.684 348.868 253.011 348.61 253.4C347.7 254.67 347.85 255.99 348.96 256.58C349.269 256.739 349.613 256.815 349.96 256.8C350.388 256.773 350.8 256.627 351.15 256.38L350.84 255.6C350.618 255.741 350.363 255.824 350.1 255.84C349.91 255.851 349.721 255.813 349.55 255.73C348.94 255.41 348.83 254.67 349.43 253.84C349.582 253.597 349.787 253.392 350.029 253.24C350.272 253.087 350.545 252.992 350.83 252.96C351.041 252.948 351.252 252.993 351.44 253.09C351.611 253.188 351.747 253.337 351.828 253.517C351.909 253.696 351.931 253.897 351.89 254.09L352.83 253.98C352.938 253.638 352.918 253.268 352.772 252.94C352.626 252.613 352.366 252.349 352.04 252.2C351.694 252.014 351.302 251.927 350.91 251.95" fill="white"/>
<path opacity="0.8" d="M354.28 253.35L351.16 257.71L351.89 258.09L355 253.74L354.28 253.35ZM355.8 251.56C355.666 251.578 355.538 251.625 355.424 251.697C355.31 251.77 355.213 251.866 355.14 251.98C354.89 252.32 354.9 252.69 355.14 252.84C355.215 252.86 355.295 252.86 355.37 252.84C355.51 252.819 355.643 252.77 355.762 252.694C355.881 252.618 355.983 252.518 356.06 252.4C356.3 252.07 356.28 251.71 356.01 251.57C355.941 251.529 355.86 251.511 355.78 251.52" fill="white"/>
<path opacity="0.8" d="M357.9 253.59C357.259 253.658 356.642 253.867 356.092 254.202C355.542 254.538 355.073 254.991 354.72 255.53C353.49 257.24 353.66 259.05 355.08 259.79C355.506 260.018 355.988 260.122 356.47 260.09C356.864 260.067 357.25 259.972 357.61 259.81L357.52 258.81C357.251 258.94 356.959 259.015 356.66 259.03C356.361 259.049 356.063 258.984 355.8 258.84C354.8 258.34 354.74 257.13 355.58 255.95C355.82 255.582 356.138 255.271 356.511 255.04C356.884 254.808 357.304 254.662 357.74 254.61C358.069 254.591 358.397 254.66 358.69 254.81C358.927 254.939 359.123 255.132 359.256 255.367C359.388 255.603 359.452 255.87 359.44 256.14L360.44 255.79C360.455 255.39 360.355 254.995 360.151 254.651C359.947 254.307 359.648 254.029 359.29 253.85C358.852 253.626 358.362 253.523 357.87 253.55" fill="white"/>
<path opacity="0.8" d="M360.26 261.18C360.06 261.19 359.86 261.149 359.68 261.06C359.1 260.75 359.02 259.99 359.6 259.19C359.752 258.946 359.957 258.74 360.199 258.586C360.441 258.432 360.715 258.334 361 258.3C361.197 258.289 361.394 258.33 361.57 258.42C362.16 258.73 362.24 259.48 361.66 260.29C361.504 260.53 361.298 260.733 361.057 260.887C360.815 261.041 360.544 261.14 360.26 261.18ZM361.1 257.35C360.634 257.397 360.185 257.548 359.785 257.792C359.385 258.036 359.045 258.367 358.79 258.76C357.88 260.02 358.01 261.34 359.08 261.91C359.414 262.08 359.786 262.16 360.16 262.14C360.626 262.089 361.076 261.937 361.477 261.693C361.878 261.45 362.22 261.121 362.48 260.73C363.39 259.46 363.25 258.16 362.18 257.58C361.847 257.409 361.474 257.329 361.1 257.35Z" fill="white"/>
<path opacity="0.8" d="M364.76 258.91L361.64 263.27L362.37 263.65L365.49 259.3L364.76 258.91ZM366.28 257.13C366.145 257.145 366.015 257.19 365.9 257.261C365.784 257.332 365.685 257.427 365.61 257.54C365.37 257.88 365.37 258.26 365.61 258.4C365.685 258.42 365.765 258.42 365.84 258.4C365.98 258.379 366.113 258.33 366.232 258.254C366.351 258.178 366.453 258.078 366.53 257.96C366.77 257.63 366.75 257.28 366.53 257.14C366.457 257.099 366.373 257.081 366.29 257.09" fill="white"/>
</g>
<path d="M279.87 298C279.464 301.566 279.653 305.176 280.43 308.68C281.225 312.151 282.652 315.446 284.64 318.4C286.629 321.363 289.065 324.001 291.86 326.22C294.668 328.472 297.737 330.379 301 331.9C299.279 331.304 297.608 330.575 296 329.72C294.409 328.839 292.876 327.857 291.41 326.78C288.48 324.594 285.932 321.938 283.87 318.92C281.851 315.856 280.445 312.429 279.73 308.83C279.06 305.246 279.107 301.565 279.87 298Z" fill="#0C2340"/>
<path opacity="0.25" d="M375.894 179.53C377.459 176.33 376.81 172.797 374.443 171.64C372.077 170.482 368.89 172.137 367.324 175.337C365.759 178.537 366.408 182.069 368.774 183.227C371.141 184.385 374.328 182.729 375.894 179.53Z" fill="white"/>
<path d="M303.43 333.85C305.952 334.647 308.421 335.606 310.82 336.72C313.232 337.795 315.57 339.028 317.82 340.41C315.294 339.613 312.823 338.654 310.42 337.54C308.012 336.465 305.676 335.232 303.43 333.85Z" fill="#0C2340"/>
<path d="M375.74 179.73C375.102 181.078 374.118 182.234 372.89 183.08C372.267 183.542 371.537 183.841 370.769 183.95C370 184.058 369.217 183.972 368.49 183.7C367.766 183.337 367.144 182.798 366.683 182.132C366.222 181.467 365.935 180.695 365.85 179.89C365.658 178.307 365.929 176.702 366.63 175.27C367.331 173.838 368.432 172.64 369.8 171.82C370.488 171.392 371.273 171.143 372.082 171.098C372.891 171.053 373.698 171.211 374.43 171.56C375.091 171.968 375.639 172.535 376.025 173.209C376.411 173.883 376.623 174.643 376.64 175.42C376.727 176.911 376.416 178.398 375.74 179.73ZM375.74 179.73C376.401 178.403 376.655 176.911 376.47 175.44C376.396 174.735 376.146 174.061 375.742 173.479C375.338 172.897 374.794 172.426 374.16 172.11C373.524 171.884 372.841 171.82 372.174 171.925C371.507 172.029 370.876 172.299 370.34 172.71C369.223 173.508 368.323 174.571 367.719 175.803C367.115 177.035 366.826 178.399 366.88 179.77C366.886 180.446 367.06 181.11 367.386 181.702C367.713 182.293 368.181 182.795 368.75 183.16C369.39 183.465 370.097 183.604 370.804 183.564C371.512 183.523 372.199 183.305 372.8 182.93C374.076 182.179 375.099 181.065 375.74 179.73Z" fill="#0C2340"/>
<g opacity="0.3">
<path opacity="0.3" d="M362.88 171.33L352.66 173.88C352.595 172.692 352.803 171.505 353.27 170.41L362.17 167.67C362.801 168.779 363.05 170.065 362.88 171.33Z" fill="white"/>
<path opacity="0.3" d="M362.81 171.79C362.784 172.006 362.741 172.221 362.68 172.43L352.81 174.83C352.765 174.677 352.734 174.519 352.72 174.36L362.81 171.79Z" fill="white"/>
</g>
<path opacity="0.25" d="M362.629 173.952C364.194 170.752 363.545 167.219 361.178 166.062C358.812 164.904 355.625 166.559 354.059 169.759C352.494 172.959 353.143 176.491 355.509 177.649C357.876 178.807 361.063 177.152 362.629 173.952Z" fill="white"/>
<path d="M362.44 173.79C361.804 175.14 360.821 176.296 359.59 177.14C358.967 177.604 358.239 177.905 357.47 178.015C356.702 178.125 355.918 178.041 355.19 177.77C354.466 177.407 353.844 176.868 353.383 176.202C352.922 175.537 352.635 174.766 352.55 173.96C352.36 172.376 352.632 170.77 353.332 169.337C354.033 167.903 355.133 166.703 356.5 165.88C357.189 165.453 357.974 165.207 358.783 165.163C359.592 165.119 360.399 165.28 361.13 165.63C361.792 166.038 362.34 166.604 362.726 167.279C363.112 167.953 363.323 168.713 363.34 169.49C363.426 170.978 363.116 172.462 362.44 173.79ZM362.44 173.79C363.101 172.467 363.355 170.977 363.17 169.51C363.098 168.804 362.848 168.127 362.444 167.543C362.04 166.959 361.495 166.487 360.86 166.17C360.223 165.946 359.541 165.884 358.874 165.989C358.208 166.093 357.577 166.362 357.04 166.77C355.909 167.557 355.002 168.625 354.41 169.87C353.785 171.107 353.498 172.487 353.58 173.87C353.587 174.546 353.762 175.209 354.088 175.8C354.415 176.392 354.883 176.893 355.45 177.26C356.09 177.565 356.797 177.704 357.504 177.664C358.212 177.623 358.899 177.405 359.5 177.03C360.781 176.267 361.805 175.139 362.44 173.79Z" fill="#0C2340"/>
<path d="M375.97 179.17L391.24 185.91L375.52 180.29L375.97 179.17Z" fill="#0C2340"/>
<path d="M362.44 173.79C363.312 173.675 364.2 173.782 365.02 174.1C365.849 174.386 366.59 174.882 367.17 175.54C366.301 175.66 365.416 175.553 364.6 175.23C363.769 174.942 363.026 174.446 362.44 173.79Z" fill="#0C2340"/>
<path d="M400.16 214.25C404.008 216.253 407.428 218.988 410.23 222.3C411.649 223.947 412.883 225.744 413.91 227.66C414.91 229.588 415.676 231.63 416.19 233.74H416.13C415.346 231.743 414.427 229.802 413.38 227.93C412.344 226.061 411.164 224.276 409.85 222.59C407.159 219.236 403.862 216.417 400.13 214.28L400.16 214.25Z" fill="white"/>
<path d="M417.13 235.93C417.379 236.487 417.596 237.058 417.78 237.64C417.98 238.22 418.12 238.81 418.27 239.39C418.42 239.97 418.54 240.57 418.63 241.17C418.737 241.772 418.803 242.38 418.83 242.99C418.578 242.434 418.361 241.863 418.18 241.28C417.98 240.71 417.84 240.12 417.69 239.53C417.54 238.94 417.42 238.35 417.33 237.75C417.228 237.148 417.161 236.54 417.13 235.93Z" fill="white"/>
<path opacity="0.08" d="M419 291.29C418.71 301.53 418.29 308.78 414 313.49C403.81 324.73 375 313.16 368 310.49C366.39 309.86 363.76 308.78 359.62 307.37C347.2 303.08 341 301 335.82 302C333.82 302.39 330.97 303.31 327.22 302.5C325.306 302.191 323.512 301.369 322.03 300.12C320.486 298.663 319.458 296.743 319.1 294.65C321.16 296.45 324.46 299.12 328.87 299.45C332.74 299.74 335.08 297.45 337.7 297.02C346.5 295.72 353.97 297.19 375.32 306.02C385.16 310.09 393.43 315.07 401.22 311.56C406.58 309.13 409.09 303.85 410.22 301.56C413.22 295.33 412.94 289.46 412.22 284.35C414.636 283.639 416.98 282.701 419.22 281.55C419.25 285.15 419.2 285.52 419 291.29Z" fill="black"/>
<path d="M182.3 327L192.64 321.21C194.37 320.26 196.07 319.27 197.83 318.35C199.594 317.441 201.419 316.652 203.29 315.99C207.036 314.637 210.955 313.823 214.93 313.57C218.93 313.43 222.84 313.42 226.79 313.46V313.52C222.85 313.82 218.88 313.93 214.96 314.17C211.039 314.438 207.168 315.204 203.44 316.45C201.579 317.079 199.762 317.831 198 318.7C196.24 319.58 194.51 320.55 192.77 321.47L182.32 327.06L182.3 327Z" fill="white"/>
<g filter="url(#filter0_b_58_271)">
<path d="M196.09 141.61L163.45 208.85C172.992 237.952 190.966 263.562 215.09 282.43C225.33 260.99 235.563 239.55 245.79 218.11C222.049 198.063 204.759 171.449 196.09 141.61Z" fill="white" fill-opacity="0.3"/>
</g>
<g filter="url(#filter1_b_58_271)">
<path d="M242.21 305.37L270.8 237.64C287.816 250.472 305.91 261.807 324.88 271.52C342.365 280.464 360.536 287.998 379.22 294.05L351.59 358.72C332.406 352.436 313.676 344.845 295.53 336C277.068 327.039 259.252 316.804 242.21 305.37Z" fill="white" fill-opacity="0.3"/>
</g>
<g filter="url(#filter2_b_58_271)">
<path d="M410.08 302.51L383.25 366.1C400.481 370.75 418.473 371.879 436.15 369.42C448.419 367.687 460.381 364.226 471.68 359.14L502 300C472.16 309.176 440.383 310.037 410.09 302.49L410.08 302.51Z" fill="white" fill-opacity="0.3"/>
</g>
<path opacity="0.5" d="M519.08 253.53C515.23 260.89 508.45 266.4 500.88 269.62C493.33 273.03 485.1 274.62 476.88 275.43C468.645 276.173 460.361 276.207 452.12 275.53C443.883 274.871 435.691 273.749 427.58 272.17C419.46 270.61 411.42 268.67 403.47 266.45C395.52 264.23 387.66 261.61 379.89 258.82C372.12 256.03 364.46 252.89 356.89 249.61C349.32 246.33 341.89 242.72 334.49 239.01C327.09 235.3 319.88 231.27 312.77 227.06C305.66 222.85 298.65 218.46 291.83 213.79C285.01 209.12 278.32 204.26 271.83 199.14C265.34 194.02 259.08 188.6 253.06 182.93C247.016 177.26 241.3 171.25 235.94 164.93C230.547 158.63 225.709 151.874 221.48 144.74C217.33 137.58 213.77 129.95 212.09 121.74C210.25 113.64 210.73 104.74 214.52 97.19C218.31 89.64 225.39 84.18 233.05 81C240.69 77.59 248.96 76 257.2 75.22C265.461 74.5051 273.769 74.5051 282.03 75.22C290.279 75.9008 298.482 77.0493 306.6 78.66C314.72 80.24 322.76 82.21 330.72 84.46C338.68 86.71 346.51 89.34 354.28 92.17C362.05 95 369.7 98.17 377.28 101.44C384.86 104.71 392.28 108.38 399.65 112.12C407.02 115.86 414.23 119.9 421.33 124.12C428.43 128.34 435.42 132.76 442.23 137.45C449.04 142.14 455.7 147.02 462.18 152.15C468.66 157.28 474.89 162.72 480.88 168.4C486.896 174.076 492.588 180.086 497.93 186.4C503.283 192.701 508.087 199.449 512.29 206.57C516.4 213.71 519.91 221.32 521.55 229.44C523.34 237.39 522.81 246.12 519.08 253.53ZM519.08 253.53C522.79 246.1 523.28 237.39 521.46 229.38C519.8 221.27 516.27 213.69 512.14 206.57C507.929 199.467 503.111 192.742 497.74 186.47C492.39 180.185 486.691 174.206 480.67 168.56C474.67 162.9 468.39 157.56 461.93 152.39C455.47 147.22 448.77 142.39 441.93 137.76C435.09 133.13 428.11 128.76 421.02 124.52C413.93 120.28 406.66 116.39 399.34 112.59C392.02 108.79 384.56 105.29 377 102C369.44 98.71 361.79 95.6 354 92.81C346.21 90.02 338.4 87.45 330.47 85.19C322.54 82.93 314.47 81.04 306.41 79.48C298.343 77.9066 290.193 76.7881 282 76.13C273.796 75.4549 265.549 75.485 257.35 76.22C249.2 77.05 241.02 78.62 233.56 81.99C226.06 85.18 219.42 90.6 215.64 97.8C211.86 105 211.46 113.63 213.24 121.57C214.86 129.57 218.35 137.16 222.44 144.26C226.621 151.355 231.405 158.077 236.74 164.35C242.063 170.643 247.739 176.63 253.74 182.28C259.74 187.95 265.97 193.33 272.41 198.49C278.85 203.65 285.53 208.49 292.32 213.17C299.11 217.85 306.11 222.23 313.18 226.48C320.25 230.73 327.52 234.65 334.83 238.48C342.14 242.31 349.61 245.82 357.17 249.14C364.73 252.46 372.36 255.59 380.12 258.4C387.88 261.21 395.72 263.81 403.65 266.09C411.58 268.37 419.65 270.3 427.71 271.88C435.808 273.487 443.992 274.633 452.22 275.31C460.445 276.025 468.716 276.025 476.94 275.31C485.13 274.51 493.36 272.96 500.94 269.58C508.42 266.36 515.21 260.88 519.08 253.53Z" fill="#FDFEFF"/>
<path opacity="0.4" d="M352.37 219.22C353.444 220.86 354.725 222.356 356.18 223.67C358.298 225.633 360.791 227.147 363.51 228.12C366.229 229.093 369.117 229.504 372 229.33C375.845 229.02 379.526 227.634 382.62 225.33C384.18 224.193 385.577 222.847 386.77 221.33C387.977 219.796 388.985 218.116 389.77 216.33C389.178 218.229 388.312 220.031 387.2 221.68C386.053 223.33 384.683 224.814 383.13 226.09C379.973 228.673 376.098 230.223 372.03 230.53C367.964 230.805 363.91 229.854 360.39 227.8C358.661 226.78 357.08 225.529 355.69 224.08C354.357 222.627 353.239 220.99 352.37 219.22Z" fill="white"/>
<g opacity="0.6">
<path d="M407.45 153C410.096 154.737 412.376 156.975 414.16 159.59C415.981 162.221 417.269 165.183 417.95 168.31C418.263 169.875 418.437 171.464 418.47 173.06C418.479 174.654 418.332 176.245 418.03 177.81C417.451 180.926 416.246 183.892 414.49 186.53C415.807 183.724 416.687 180.732 417.1 177.66C417.511 174.63 417.399 171.552 416.77 168.56C416.45 167.071 416.001 165.612 415.43 164.2C414.869 162.774 414.179 161.402 413.37 160.1C411.753 157.458 409.758 155.066 407.45 153Z" fill="#FDFEFF"/>
</g>
<path d="M195.91 189.69C195.805 189.683 195.705 189.646 195.62 189.584C195.535 189.522 195.469 189.437 195.43 189.34L196.36 187.91C196.483 188.141 196.548 188.398 196.548 188.66C196.548 188.922 196.483 189.179 196.36 189.41C196.32 189.489 196.261 189.557 196.187 189.606C196.113 189.655 196.028 189.684 195.94 189.69H195.91ZM195.99 186.38C195.782 186.395 195.581 186.462 195.406 186.576C195.231 186.689 195.088 186.846 194.99 187.03C194.694 187.564 194.534 188.162 194.524 188.773C194.513 189.383 194.653 189.986 194.93 190.53C195.029 190.754 195.186 190.947 195.385 191.089C195.583 191.231 195.816 191.318 196.06 191.34C196.269 191.325 196.471 191.257 196.647 191.141C196.822 191.026 196.964 190.867 197.06 190.68C197.357 190.147 197.518 189.548 197.529 188.938C197.539 188.327 197.399 187.723 197.12 187.18C197.022 186.956 196.865 186.764 196.666 186.623C196.467 186.482 196.233 186.398 195.99 186.38ZM196.11 193.38C195.676 193.338 195.262 193.181 194.91 192.924C194.558 192.667 194.282 192.32 194.11 191.92C193.677 191.067 193.427 190.133 193.373 189.177C193.32 188.222 193.465 187.266 193.8 186.37L189.74 179.17L190.66 177.75L194.72 184.96C195.059 184.617 195.517 184.416 196 184.4C196.433 184.438 196.849 184.593 197.201 184.848C197.553 185.103 197.829 185.45 198 185.85C198.502 186.835 198.756 187.927 198.738 189.032C198.721 190.138 198.433 191.222 197.9 192.19C197.725 192.522 197.469 192.805 197.156 193.013C196.844 193.22 196.484 193.347 196.11 193.38ZM194.36 183.13L191 177.13L192.15 175.36L192.62 176.2C192.482 176.457 192.409 176.744 192.409 177.035C192.409 177.326 192.482 177.613 192.62 177.87C192.665 177.982 192.74 178.078 192.837 178.149C192.935 178.22 193.05 178.262 193.17 178.27C193.267 178.262 193.36 178.229 193.44 178.175C193.521 178.12 193.586 178.047 193.63 177.96L193.84 178.34L194.1 178.79C193.96 179.046 193.887 179.333 193.887 179.625C193.887 179.917 193.96 180.204 194.1 180.46C194.147 180.57 194.223 180.666 194.32 180.736C194.416 180.807 194.531 180.85 194.65 180.86C194.747 180.852 194.84 180.819 194.92 180.765C195.001 180.71 195.066 180.637 195.11 180.55L195.56 181.36L194.42 183.11L194.36 183.13ZM194.01 169.82C191.82 169.82 189.65 171.19 187.93 173.82C184.25 179.53 184.1 189.21 187.61 195.44C189.48 198.78 192.03 200.44 194.55 200.44C196.74 200.44 198.92 199.07 200.63 196.44C204.32 190.73 204.46 181.06 200.96 174.82C199.08 171.49 196.53 169.82 193.96 169.82" fill="#703694"/>
<path d="M196.05 191.34C195.807 191.318 195.573 191.231 195.375 191.089C195.176 190.947 195.019 190.754 194.92 190.53C194.641 189.981 194.502 189.371 194.516 188.755C194.53 188.139 194.696 187.536 195 187C195.098 186.816 195.241 186.659 195.416 186.546C195.591 186.432 195.792 186.365 196 186.35C196.243 186.368 196.477 186.452 196.676 186.593C196.875 186.734 197.032 186.926 197.13 187.15C197.409 187.693 197.549 188.297 197.539 188.908C197.528 189.518 197.367 190.117 197.07 190.65C196.974 190.837 196.832 190.996 196.657 191.111C196.481 191.227 196.279 191.295 196.07 191.31L196.05 191.34ZM190.61 177.69L189.69 179.11L193.75 186.31C193.415 187.206 193.27 188.162 193.323 189.117C193.377 190.073 193.627 191.007 194.06 191.86C194.232 192.26 194.508 192.607 194.86 192.864C195.212 193.121 195.626 193.278 196.06 193.32C196.434 193.287 196.794 193.16 197.106 192.953C197.419 192.745 197.675 192.462 197.85 192.13C198.383 191.162 198.671 190.078 198.688 188.972C198.706 187.867 198.452 186.775 197.95 185.79C197.779 185.39 197.503 185.043 197.151 184.788C196.799 184.533 196.383 184.378 195.95 184.34C195.467 184.356 195.009 184.557 194.67 184.9L190.61 177.69Z" fill="white"/>
<path d="M196.36 187.91L195.43 189.34C195.469 189.438 195.535 189.522 195.62 189.584C195.705 189.646 195.805 189.683 195.91 189.69C195.998 189.684 196.083 189.655 196.157 189.606C196.231 189.557 196.29 189.489 196.33 189.41C196.453 189.179 196.518 188.922 196.518 188.66C196.518 188.398 196.453 188.141 196.33 187.91" fill="white"/>
<path d="M192.12 175.37L191 177.14L194.36 183.14L195.5 181.39L195.05 180.58C195.006 180.667 194.941 180.74 194.86 180.795C194.78 180.849 194.687 180.882 194.59 180.89C194.471 180.88 194.356 180.837 194.26 180.766C194.163 180.696 194.087 180.6 194.04 180.49C193.9 180.234 193.827 179.947 193.827 179.655C193.827 179.363 193.9 179.076 194.04 178.82L193.78 178.37L193.57 177.99C193.526 178.077 193.461 178.15 193.38 178.205C193.3 178.259 193.207 178.292 193.11 178.3C192.99 178.292 192.875 178.25 192.777 178.179C192.68 178.108 192.605 178.012 192.56 177.9C192.422 177.643 192.349 177.356 192.349 177.065C192.349 176.774 192.422 176.487 192.56 176.23L192.09 175.39" fill="white"/>
<g opacity="0.3">
<path d="M208.31 198.06C210.1 200.76 211.8 203.38 213.61 205.91C215.42 208.44 217.32 210.91 219.34 213.18C221.36 215.45 223.48 217.73 225.72 219.9C227.96 222.07 230.31 224.11 232.72 226.28C229.641 225.251 226.737 223.757 224.11 221.85C218.769 218.069 214.425 213.049 211.45 207.22C209.949 204.342 208.89 201.254 208.31 198.06Z" fill="white"/>
</g>
<g opacity="0.3">
<path d="M180.86 190.09C181.86 192.79 182.93 195.48 184.15 198.09C185.37 200.7 186.59 203.3 187.97 205.82C190.7 210.879 193.826 215.715 197.32 220.28C199.053 222.573 200.87 224.793 202.77 226.94C204.68 229.09 206.71 231.12 208.77 233.14C210.83 235.16 212.97 237.06 215.2 238.89C217.43 240.72 219.7 242.49 222.03 244.21C219.55 242.72 217.16 241.07 214.83 239.36C212.5 237.65 210.29 235.76 208.13 233.82C199.478 226.014 192.357 216.665 187.13 206.25C185.84 203.65 184.65 201.01 183.58 198.31C182.51 195.61 181.63 192.88 180.86 190.09Z" fill="white"/>
</g>
<g opacity="0.3">
<path d="M173.75 203.53C174.75 206.23 175.83 208.92 177.04 211.53C178.25 214.14 179.48 216.74 180.86 219.26C183.59 224.319 186.716 229.155 190.21 233.72C191.937 236.013 193.753 238.233 195.66 240.38C197.57 242.53 199.6 244.56 201.66 246.58C203.72 248.6 205.87 250.5 208.09 252.34C210.31 254.18 212.59 255.94 214.92 257.65C212.44 256.16 210.06 254.52 207.72 252.8C205.38 251.08 203.18 249.2 201.02 247.26C192.376 239.447 185.255 230.099 180.02 219.69C178.73 217.09 177.54 214.45 176.48 211.75C175.42 209.05 174.52 206.32 173.75 203.53Z" fill="white"/>
</g>
<path d="M293.92 280C292.708 282.233 290.862 284.057 288.614 285.241C286.366 286.425 283.817 286.916 281.29 286.652C278.763 286.388 276.371 285.381 274.416 283.758C272.461 282.134 271.032 279.968 270.308 277.533C269.584 275.097 269.598 272.502 270.349 270.074C271.1 267.647 272.554 265.497 274.527 263.895C276.499 262.294 278.903 261.313 281.432 261.077C283.962 260.842 286.505 261.361 288.74 262.57C290.225 263.374 291.538 264.462 292.602 265.773C293.666 267.084 294.462 268.592 294.943 270.211C295.424 271.83 295.581 273.528 295.406 275.207C295.23 276.887 294.725 278.516 293.92 280Z" fill="#F7931A"/>
<path fill-rule="evenodd" clip-rule="evenodd" d="M286.74 273.36C287.2 272.28 286.5 271.46 285.43 270.76L286.21 269.33L285.34 268.86L284.59 270.25L283.89 269.88L284.65 268.49L283.78 268.02L283.01 269.44L282.45 269.15L281.26 268.51L280.76 269.43L281.39 269.77C281.514 269.819 281.613 269.915 281.667 270.036C281.721 270.157 281.726 270.295 281.68 270.42L280.8 272H280.89H280.8L279.57 274.28C279.519 274.359 279.439 274.414 279.347 274.435C279.256 274.455 279.16 274.439 279.08 274.39L278.45 274.04L277.72 274.99L278.85 275.6L279.23 275.81L279.47 275.94L278.69 277.38L279.55 277.85L280.32 276.42L281.01 276.81L280.24 278.23L281.11 278.69L281.89 277.26C283.39 277.96 284.61 278.15 285.48 276.85C285.635 276.675 285.751 276.469 285.822 276.246C285.893 276.023 285.916 275.788 285.891 275.555C285.865 275.323 285.792 275.098 285.674 274.896C285.557 274.693 285.399 274.518 285.21 274.38C285.547 274.4 285.88 274.306 286.158 274.114C286.435 273.922 286.64 273.642 286.74 273.32V273.36ZM283.86 275.79C283.33 276.79 281.78 275.91 281.08 275.52L280.91 275.43L281.91 273.52L282.12 273.63C282.86 274.01 284.37 274.78 283.82 275.79H283.86ZM282.56 272.72C283.15 273.05 284.43 273.72 284.92 272.88C285.41 272.04 284.15 271.32 283.54 271L283.36 270.91L282.42 272.64L282.56 272.72Z" fill="white"/>
<path opacity="0.5" d="M418.42 430.29C414.73 437.43 408.17 442.81 400.84 445.97C393.52 449.31 385.54 450.88 377.59 451.72C369.609 452.46 361.579 452.507 353.59 451.86C345.599 451.241 337.65 450.169 329.78 448.65C321.91 447.16 314.11 445.29 306.4 443.12C298.69 440.95 291.08 438.43 283.55 435.72C276.02 433.01 268.55 429.97 261.24 426.79C253.93 423.61 246.69 420.1 239.54 416.5C232.39 412.9 225.4 408.96 218.54 404.87C211.68 400.78 204.84 396.5 198.24 392C191.64 387.5 185.18 382.72 178.9 377.75C172.62 372.78 166.58 367.5 160.77 361.98C154.951 356.47 149.446 350.637 144.28 344.51C139.097 338.387 134.45 331.829 130.39 324.91C126.39 317.96 123.06 310.56 121.5 302.68C119.94 294.8 120.34 286.41 123.99 279.24C120.43 286.46 119.99 294.88 121.79 302.62C123.43 310.44 126.88 317.75 130.9 324.62C135.01 331.47 139.694 337.96 144.9 344.02C150.088 350.086 155.613 355.855 161.45 361.3C167.28 366.76 173.35 371.95 179.59 376.93C185.83 381.91 192.31 386.58 198.9 391.09C205.49 395.6 212.27 399.82 219.13 403.91C225.99 408 233.02 411.78 240.13 415.47C247.24 419.16 254.44 422.56 261.75 425.77C269.06 428.98 276.45 432.01 283.96 434.77C291.47 437.53 299.05 439.99 306.73 442.2C314.41 444.41 322.17 446.27 330 447.82C337.826 449.389 345.736 450.511 353.69 451.18C361.642 451.865 369.638 451.865 377.59 451.18C385.51 450.44 393.46 448.97 400.78 445.74C408.05 442.65 414.64 437.39 418.42 430.29Z" fill="#FDFEFF"/>
<g opacity="0.4">
<path d="M300.42 279.36C305.72 281.49 310.88 283.79 316.04 286.07L331.53 292.85L347 299.56C352.19 301.79 357.39 304.01 362.56 306.44C356.952 305.414 351.422 304 346.01 302.21C340.579 300.481 335.239 298.479 330.01 296.21C324.79 293.94 319.69 291.4 314.72 288.63C309.749 285.868 304.971 282.771 300.42 279.36Z" fill="white"/>
</g>
<g opacity="0.4">
<path d="M259.35 285C263.28 287.16 267.17 289.36 271.12 291.46C275.07 293.56 278.97 295.73 282.94 297.79C290.88 301.89 298.84 305.95 306.94 309.79C315.04 313.63 323.13 317.34 331.3 320.95C335.39 322.75 339.51 324.49 343.64 326.2C347.77 327.91 351.91 329.61 356.04 331.33C351.77 330 347.55 328.51 343.32 327.03C339.09 325.55 334.93 323.88 330.77 322.23C322.44 318.91 314.24 315.28 306.16 311.42C298.08 307.56 290.11 303.42 282.31 299.02C278.41 296.8 274.543 294.54 270.71 292.24C266.87 289.81 263.07 287.46 259.35 285Z" fill="white"/>
</g>
<g opacity="0.4">
<path d="M254.63 298.22C258.55 300.38 262.44 302.58 266.39 304.69C270.34 306.8 274.25 308.95 278.21 311.01C286.15 315.11 294.11 319.17 302.21 323.01C310.31 326.85 318.4 330.56 326.58 334.17C330.67 335.97 334.78 337.71 338.91 339.42C343.04 341.13 347.18 342.83 351.32 344.55C347.04 343.22 342.82 341.73 338.59 340.25C334.36 338.77 330.21 337.1 326.04 335.45C317.71 332.14 309.52 328.5 301.43 324.64C293.34 320.78 285.43 316.64 277.58 312.24C273.69 310.03 269.81 307.77 265.98 305.46C262.15 303.15 258.34 300.73 254.63 298.22Z" fill="white"/>
</g>
<path d="M426.78 328.75L422.14 332.42L421.14 327.22L423.21 329.84L426.8 328.75H426.78ZM421.55 326.2L426.55 321.74L427.24 327.74L423.67 328.84L421.59 326.22L421.55 326.2ZM429 315.8C423.48 314.31 417 318.08 414.49 324.22C411.98 330.36 414.43 336.56 419.95 338.06C425.47 339.56 431.95 335.77 434.47 329.62C436.99 323.47 434.47 317.29 429 315.8Z" fill="white"/>
<path d="M426.49 321.74L424.94 325.53L427.18 327.72L426.49 321.74Z" fill="#5353FA"/>
<path d="M421.53 326.2L423.61 328.82L421.53 326.2ZM426.53 321.74L421.53 326.2L424.94 325.53L426.49 321.74" fill="#5353FA"/>
<path d="M426.78 328.75L423.19 329.84L422.14 332.42L426.78 328.75Z" fill="#5353FA"/>
<path d="M421.12 327.22L422.14 332.42L423.19 329.84L421.12 327.22Z" fill="#5353FA"/>
<path d="M424.94 325.53L423.61 328.82L427.18 327.72L424.94 325.53Z" fill="#5353FA"/>
<path d="M424.94 325.53L421.53 326.19L423.61 328.82L424.94 325.53Z" fill="#5353FA"/>
<g opacity="0.4">
<path d="M441.47 325.2C445.21 324.68 448.89 324.37 452.55 323.97C456.21 323.57 459.83 323.19 463.45 322.74C467.07 322.29 470.7 321.8 474.33 321.27C477.96 320.74 481.62 320.18 485.38 319.78C482.067 321.581 478.566 323.013 474.94 324.05C467.701 326.168 460.166 327.097 452.63 326.8C448.863 326.678 445.12 326.141 441.47 325.2Z" fill="white"/>
</g>
<g opacity="0.4">
<path d="M403.28 344.28C409.376 345.631 415.552 346.589 421.77 347.15C424.87 347.4 427.98 347.58 431.08 347.61C434.18 347.64 437.3 347.61 440.39 347.4C452.843 346.636 465.128 344.139 476.89 339.98C471.217 342.704 465.279 344.838 459.17 346.35C456.12 347.14 453.02 347.73 449.91 348.23C446.8 348.73 443.65 349.01 440.5 349.23C434.2 349.596 427.879 349.375 421.62 348.57C415.378 347.761 409.233 346.324 403.28 344.28Z" fill="white"/>
</g>
<g opacity="0.4">
<path d="M395.66 356C401.757 357.343 407.932 358.298 414.15 358.86C417.25 359.11 420.36 359.29 423.46 359.32C426.56 359.35 429.68 359.32 432.77 359.11C445.223 358.346 457.508 355.849 469.27 351.69C463.597 354.414 457.659 356.548 451.55 358.06C448.5 358.85 445.4 359.44 442.29 359.94C439.18 360.44 436.03 360.72 432.88 360.94C426.58 361.312 420.26 361.098 414 360.3C407.757 359.488 401.613 358.048 395.66 356Z" fill="white"/>
</g>
<path d="M332.75 365.1C330.68 366.19 328.56 367.17 326.42 368.1C324.28 369.03 322.08 369.83 319.87 370.6C315.435 372.097 310.905 373.296 306.31 374.19C301.712 375.075 297.057 375.633 292.38 375.86C290.047 375.973 287.713 376.007 285.38 375.96C283.05 375.88 280.72 375.77 278.38 375.51C280.71 375.51 283.04 375.51 285.38 375.37C287.72 375.23 290.02 375.15 292.33 374.93C296.943 374.518 301.532 373.874 306.08 373C310.641 372.154 315.151 371.056 319.59 369.71C321.81 369.05 324.02 368.32 326.21 367.54C328.4 366.76 330.57 366 332.75 365.1Z" fill="#FDFEFF"/>
<path d="M246.82 188.63C248.405 188.63 249.69 187.345 249.69 185.76C249.69 184.175 248.405 182.89 246.82 182.89C245.235 182.89 243.95 184.175 243.95 185.76C243.95 187.345 245.235 188.63 246.82 188.63Z" fill="#04B300"/>
<path d="M279.45 212.84C280.698 212.84 281.71 211.828 281.71 210.58C281.71 209.332 280.698 208.32 279.45 208.32C278.202 208.32 277.19 209.332 277.19 210.58C277.19 211.828 278.202 212.84 279.45 212.84Z" fill="#FF0F00"/>
<path d="M281.87 177.51C282.538 177.51 283.08 176.968 283.08 176.3C283.08 175.632 282.538 175.09 281.87 175.09C281.202 175.09 280.66 175.632 280.66 176.3C280.66 176.968 281.202 177.51 281.87 177.51Z" fill="#D47F2F"/>
<path d="M313.83 174.27C314.498 174.27 315.04 173.728 315.04 173.06C315.04 172.392 314.498 171.85 313.83 171.85C313.162 171.85 312.62 172.392 312.62 173.06C312.62 173.728 313.162 174.27 313.83 174.27Z" fill="#3267E3"/>
<path d="M265.52 139.24C266.188 139.24 266.73 138.698 266.73 138.03C266.73 137.362 266.188 136.82 265.52 136.82C264.852 136.82 264.31 137.362 264.31 138.03C264.31 138.698 264.852 139.24 265.52 139.24Z" fill="#04B300"/>
</g>
<defs>
<filter id="filter0_b_58_271" x="153.45" y="131.61" width="102.34" height="160.82" filterUnits="userSpaceOnUse" color-interpolation-filters="sRGB">
<feFlood flood-opacity="0" result="BackgroundImageFix"/>
<feGaussianBlur in="BackgroundImage" stdDeviation="5"/>
<feComposite in2="SourceAlpha" operator="in" result="effect1_backgroundBlur_58_271"/>
<feBlend mode="normal" in="SourceGraphic" in2="effect1_backgroundBlur_58_271" result="shape"/>
</filter>
<filter id="filter1_b_58_271" x="232.21" y="227.64" width="157.01" height="141.08" filterUnits="userSpaceOnUse" color-interpolation-filters="sRGB">
<feFlood flood-opacity="0" result="BackgroundImageFix"/>
<feGaussianBlur in="BackgroundImage" stdDeviation="5"/>
<feComposite in2="SourceAlpha" operator="in" result="effect1_backgroundBlur_58_271"/>
<feBlend mode="normal" in="SourceGraphic" in2="effect1_backgroundBlur_58_271" result="shape"/>
</filter>
<filter id="filter2_b_58_271" x="373.25" y="290" width="138.75" height="90.6868" filterUnits="userSpaceOnUse" color-interpolation-filters="sRGB">
<feFlood flood-opacity="0" result="BackgroundImageFix"/>
<feGaussianBlur in="BackgroundImage" stdDeviation="5"/>
<feComposite in2="SourceAlpha" operator="in" result="effect1_backgroundBlur_58_271"/>
<feBlend mode="normal" in="SourceGraphic" in2="effect1_backgroundBlur_58_271" result="shape"/>
</filter>
<radialGradient id="paint0_radial_58_271" cx="0" cy="0" r="1" gradientUnits="userSpaceOnUse" gradientTransform="translate(336.3 158.99) scale(241.308 202.78)">
<stop stop-color="#7A4FE8"/>
<stop offset="0.1" stop-color="#7750E9" stop-opacity="0.95"/>
<stop offset="0.27" stop-color="#6E54ED" stop-opacity="0.8"/>
<stop offset="0.51" stop-color="#6059F2" stop-opacity="0.57"/>
<stop offset="0.79" stop-color="#4D61F9" stop-opacity="0.25"/>
<stop offset="1" stop-color="#3E67FF" stop-opacity="0"/>
</radialGradient>
<radialGradient id="paint1_radial_58_271" cx="0" cy="0" r="1" gradientUnits="userSpaceOnUse" gradientTransform="translate(300.272 357.578) scale(234.514 233.793)">
<stop stop-color="#7A4FE8"/>
<stop offset="0.1" stop-color="#7750E9" stop-opacity="0.95"/>
<stop offset="0.27" stop-color="#6E54ED" stop-opacity="0.8"/>
<stop offset="0.51" stop-color="#6059F2" stop-opacity="0.57"/>
<stop offset="0.79" stop-color="#4D61F9" stop-opacity="0.25"/>
<stop offset="1" stop-color="#3E67FF" stop-opacity="0"/>
</radialGradient>
<linearGradient id="paint2_linear_58_271" x1="309.001" y1="334" x2="123.001" y2="381.5" gradientUnits="userSpaceOnUse">
<stop stop-color="white"/>
<stop offset="1" stop-color="white"/>
</linearGradient>
<linearGradient id="paint3_linear_58_271" x1="69.501" y1="379.5" x2="116.501" y2="403.5" gradientUnits="userSpaceOnUse">
<stop stop-color="#7A4FE8"/>
<stop offset="1" stop-color="#432B80"/>
</linearGradient>
<linearGradient id="paint4_linear_58_271" x1="155.635" y1="410.308" x2="203.364" y2="426.878" gradientUnits="userSpaceOnUse">
<stop stop-color="#7A4FE8"/>
<stop offset="1" stop-color="#432B80"/>
</linearGradient>
<clipPath id="clip0_58_271">
<rect width="600" height="600" fill="white"/>
</clipPath>
</defs>
</svg>
