<svg width="600" height="600" viewBox="0 0 600 600" fill="none" xmlns="http://www.w3.org/2000/svg">
<path opacity="0.15" d="M53.59 328.83C83.87 359.35 126.05 434.24 191.59 439.6C304.74 448.85 366.53 240.93 486.8 249.28C532.23 252.44 554.8 278.04 577.01 304.61C575.78 366.09 576.93 395.29 576.58 449.61C500.28 364.84 463.19 356.61 422.24 360.41C325.92 369.41 292.1 487.7 177.75 505.41C131.06 512.64 87.99 500.41 53.6 484.52L53.59 328.83Z" fill="url(#paint0_radial_102_669)"/>
<path opacity="0.15" d="M24.85 128.11C56.01 154.58 99.42 219.53 166.85 224.18C283.29 232.18 346.85 51.88 470.63 59.12C517.39 61.86 540.63 84.06 563.47 107.12C562.2 160.43 563.39 185.76 563.03 232.87C484.5 159.34 446.34 152.19 404.2 155.5C305.08 163.3 270.28 265.9 152.61 281.26C104.61 287.53 60.24 276.96 24.85 263.14V128.11Z" fill="url(#paint1_radial_102_669)"/>
<path opacity="0.5" d="M295.697 383.086C368.935 326.093 410.433 256.925 388.386 228.594C366.339 200.263 289.096 223.498 215.858 280.492C142.621 337.485 101.123 406.653 123.17 434.984C145.217 463.315 222.46 440.08 295.697 383.086Z" stroke="#FDFEFF" stroke-miterlimit="10"/>
<path d="M325.1 410.15L326.04 429.85L347.26 439.52L348.59 405.61L325.1 410.15Z" fill="#EFC1B8"/>
<path d="M358.13 406.77L369.96 424.77L389.09 404.26L376.28 381.77L358.13 406.77Z" fill="#EFC1B8"/>
<path d="M302.85 391.55C288.66 409.69 263.05 418.68 257.64 412.63C256.52 411.38 256.54 409.79 257.31 407.76C260.18 400 273.91 385.88 277.01 359.85C279.38 340.1 274.24 324.61 282.88 319.36C288.09 316.19 294.79 318.73 296.46 319.36C308.77 324.04 312.57 339.88 313.83 347.7C314.07 349.13 314.21 350.3 314.31 351.07C317.08 373.08 304.5 389.44 302.85 391.55Z" fill="#D6D6D6"/>
<path d="M305.67 289.94C312.11 283.94 317.82 279.03 322.43 275.18C329.27 269.45 332.1 267.45 336.43 266.8C337.15 266.69 344.86 265.8 350.43 270.8C354.81 274.8 355.69 280.49 356.04 284.8C357.77 305.97 351.41 345.8 350.43 351.73L305.67 289.94Z" fill="#D6D6D6"/>
<path d="M238.24 410.66C243.8 417.8 245.19 418.58 246.56 418.99C253.56 421.09 263.76 414.73 264.25 407.99C264.92 398.82 247.25 393.5 245.97 393.12C240.04 391.4 230.14 390.28 228.27 394.01C227.09 396.38 230.8 401.14 238.24 410.66Z" fill="#3B1BAF"/>
<path d="M354.38 417C350.88 416.14 342.08 412.07 335.26 413C330.449 413.631 325.742 414.892 321.26 416.75C321.26 411.81 321.103 406.713 320.79 401.46C319.79 384.2 318.79 368.51 315.57 354.64C317.76 356.93 320.04 359.34 322.43 361.81C332.5 372.36 343.88 384.18 353.16 393.94L354.38 417Z" fill="#D6D6D6"/>
<path d="M445.17 396.91C437.963 399.946 431.002 403.537 424.35 407.65C420.6 409.96 417.3 412.23 415.35 413.65C410.23 417.43 400.03 426.15 389.87 444.1C385.56 441.96 382.11 439.92 379.65 438.4C369.12 431.84 369.01 428.72 368 427.57C367.582 427.095 367.285 426.526 367.134 425.912C366.983 425.297 366.983 424.656 367.133 424.041C367.283 423.427 367.58 422.857 367.997 422.382C368.414 421.906 368.94 421.539 369.53 421.31C372.983 420.002 376.07 417.882 378.53 415.13C381.665 411.574 383.643 407.148 384.2 402.44C384.29 401.722 384.521 401.03 384.881 400.402C385.241 399.775 385.722 399.225 386.296 398.785C386.87 398.345 387.526 398.023 388.225 397.839C388.925 397.654 389.654 397.61 390.37 397.71C395.74 398.481 401.189 398.525 406.57 397.84C407.69 397.7 408.73 397.52 409.71 397.32C410.42 397.19 411.09 397.05 411.71 396.89C421.39 394.61 429.35 389.89 437.03 391.78C437.931 392.005 438.809 392.316 439.65 392.71C441.762 393.711 443.642 395.142 445.17 396.91Z" fill="url(#paint2_linear_102_669)"/>
<path opacity="0.4" d="M445.17 396.91C437.962 399.944 431.001 403.535 424.35 407.65C420.21 410.21 416.97 412.49 415.35 413.65C403.27 422.52 393.89 434.46 388 443L380.61 438.93C383.806 432.949 387.671 427.35 392.13 422.24C397.6 416 402.34 412.39 410.98 405.81C419.62 399.23 424.14 396.87 427.14 395.48C430.35 394.005 433.666 392.771 437.06 391.79C437.961 392.015 438.839 392.326 439.68 392.72C441.78 393.722 443.65 395.149 445.17 396.91Z" fill="white"/>
<path d="M386.82 440.53C385.71 435.77 392.18 431.28 402.6 421.81C415.6 410 413.77 409.48 420.36 405.05C428.13 399.84 441.44 393.33 445.19 397.22C445.469 397.543 445.701 397.903 445.88 398.29C447.22 401.08 445.74 404.29 445.19 405.48C442.28 411.79 428.27 414.7 416.67 424.81C412.81 428.17 409.4 432.13 400.85 439.07C396.85 442.35 392.69 445.43 389.6 444.07C388.902 443.724 388.291 443.227 387.81 442.614C387.329 442.002 386.991 441.29 386.82 440.53Z" fill="#43146D"/>
<path d="M339.24 143.17C339.248 143.345 339.217 143.519 339.15 143.68C337.4 147.6 315.08 139.99 314.73 141.05C314.48 141.77 324.88 145.96 334.8 149.78C335.193 149.933 335.539 150.188 335.8 150.519C336.062 150.85 336.231 151.245 336.289 151.663C336.347 152.081 336.292 152.506 336.131 152.896C335.969 153.286 335.707 153.626 335.37 153.88C334.833 154.278 334.215 154.551 333.559 154.679C332.903 154.807 332.227 154.787 331.58 154.62L310.73 149.23C310.562 149.182 310.382 149.189 310.218 149.249C310.053 149.31 309.912 149.42 309.815 149.566C309.717 149.711 309.668 149.884 309.674 150.059C309.681 150.234 309.742 150.402 309.85 150.54C310.65 151.59 311.63 152.79 312.78 154.08C319 161.18 324.7 164.71 323.84 166.52C323.7 166.8 323.39 167.13 322.33 167.32C318.39 168.05 315.1 165.01 311.08 162.04C308.71 160.169 306.038 158.715 303.18 157.74C300.36 156.89 295.85 156.3 289.35 158.61C283.387 168.239 278.007 178.217 273.24 188.49C266.549 202.932 261.073 217.908 256.87 233.26C256.36 235.06 255.87 236.84 255.46 238.57L253.34 235.66L251.34 232.93C246.893 226.81 242.437 220.7 237.97 214.6C239.12 210.94 240.43 207.06 241.97 203.03C249.896 181.712 260.95 161.693 274.77 143.63L273.57 137.88C274.678 134.065 276.82 130.632 279.76 127.96C282.67 125.44 285.46 124.64 289.16 120.81C289.9 120.03 290.53 119.29 291.07 118.62C291.78 117.73 292.31 116.94 292.71 116.33C293.519 115.573 294.581 115.142 295.689 115.122C296.797 115.102 297.873 115.493 298.71 116.22C299.128 116.66 299.382 117.23 299.427 117.835C299.473 118.44 299.308 119.043 298.96 119.54L293.27 127.54C302.246 125.98 311.424 125.98 320.4 127.54C334.31 130.03 336.11 131.73 336.4 133.06C336.545 133.641 336.478 134.254 336.21 134.79C333.89 138.79 317.83 133.56 317.76 133.85C317.69 134.14 339.35 138.54 339.24 143.17Z" fill="#F2B2AF"/>
<path opacity="0.08" d="M311.08 162C308.71 160.129 306.038 158.674 303.18 157.7C300.36 156.85 295.85 156.26 289.35 158.57C283.387 168.199 278.007 178.177 273.24 188.45C266.549 202.892 261.073 217.868 256.87 233.22C255.57 234.12 254.39 234.92 253.34 235.62C249.93 237.84 247.74 238.94 247.34 238.56C246.94 238.18 248.98 235.93 251.34 232.89C254.68 228.46 258.61 222.26 256.49 217.14C254.78 213.03 249.57 210.65 250.09 209.76C250.61 208.87 255.15 212.49 258.46 210.99C263.92 208.52 258.28 195.51 266.09 186.61C268.82 183.5 270.9 183.5 273.23 179.47C275.43 175.68 274.86 173.47 277.66 169.38C280.12 165.75 281.31 166.38 282.35 163.96C285.07 157.71 278.83 149.23 279.35 148.96C279.67 148.8 280.79 151.81 283.51 153.61C286.98 155.91 291.1 154.95 293.24 154.73C299.71 154.08 306.76 158.13 311.08 162Z" fill="black"/>
<path d="M349.34 431.12C348.939 430.642 348.419 430.277 347.833 430.063C347.247 429.849 346.615 429.793 346 429.9C342.86 430.41 340.68 435.43 342 439.06C342.25 439.74 342.84 441.42 344 441.6C346.66 442 351.53 434.17 349.34 431.12Z" fill="#B99EFF"/>
<path d="M325.17 423.1C321.735 425.952 319.114 429.661 317.57 433.85C316.635 436.46 316.145 439.208 316.12 441.98C326.65 455.5 339.04 466.98 349.57 480.45C349.693 480.609 349.848 480.739 350.026 480.834C350.203 480.928 350.398 480.983 350.599 480.997C350.799 481.01 351 480.981 351.188 480.91C351.376 480.84 351.547 480.731 351.69 480.59L355.11 477.21L356.49 475.83C357.436 474.915 358.124 473.767 358.486 472.501C358.847 471.235 358.869 469.897 358.55 468.62C358.2 467.21 357.82 465.78 357.41 464.32C357.14 463.32 356.86 462.32 356.56 461.37C355.72 458.55 354.77 455.63 353.72 452.64C351.59 446.64 350.52 440.72 348.22 435.85C345.47 435.54 339.02 435.09 333.64 431.53C330.28 429.316 327.399 426.45 325.17 423.1Z" fill="url(#paint3_linear_102_669)"/>
<path d="M149.45 222.7C148.77 224.55 156.45 226.7 162.3 236C164.355 239.278 165.855 242.873 166.74 246.64L166.96 239.54L168.07 246.75C168.78 243.38 169.45 240.61 169.73 240.65C170.33 240.74 167.21 253.79 169.95 254.95C172.29 255.95 179.89 248.71 179.71 240.54C179.58 234.74 175.57 230.74 173.94 229.13C165.06 220.28 150.33 220.25 149.45 222.7Z" fill="#7A4020"/>
<path d="M161.69 227.72C163.99 229.72 170.83 233.72 171.23 233.97L171.54 234.15C171.68 234.24 171.86 234.36 172.05 234.51C175.05 236.88 175.33 240.95 175.4 241.96C175.547 244.743 174.778 247.496 173.21 249.8C173.13 249.928 173.043 250.051 172.95 250.17C171.758 251.907 170.18 253.344 168.34 254.37C172.294 258.68 177.338 261.841 182.94 263.52C189.56 265.44 194.88 264.61 199.7 263.85C204 263.17 216.2 261.25 216.7 256.78C216.84 255.66 216.2 254.78 214.98 253.57C212.61 251.28 207.98 248.11 202.45 241C201.55 239.85 200.83 238.85 200.33 238.14C201.09 238.229 201.855 238.266 202.62 238.25C204.921 238.275 207.192 237.718 209.22 236.63C209.899 236.246 210.527 235.779 211.09 235.24C212.36 234.02 214.58 231.24 214.47 223.86C214.22 208.63 204.29 190.96 200.47 184.5L194.47 184.12L192.42 184.84C168.04 193.45 165.17 199.3 165.37 202.3C165.44 203.3 167.18 206.3 170.68 212.41C170.68 212.41 173.55 217.41 175.86 221.99C176.01 222.28 176.39 223.05 176.48 223.32C174.788 221.067 172.842 219.017 170.68 217.21C168.7 215.627 166.513 214.322 164.18 213.33C161.87 212.39 159.62 211.99 158.35 213.02C155.74 215.22 157.29 223.85 161.69 227.72Z" fill="#F2B2AF"/>
<path opacity="0.08" d="M182.87 229.72C182.65 230 195.49 238.39 197.14 245.39C197.401 246.782 198.045 248.074 199 249.12C200.49 250.68 201.92 250.35 204 251.37C207.88 253.27 207.81 256.69 209.91 257.12C211.03 257.36 212.67 256.72 215.05 253.6C212.68 251.32 208.05 248.15 202.52 241.03C201.62 239.88 200.9 238.89 200.4 238.18C201.157 238.269 201.918 238.306 202.68 238.29C199.46 237.985 196.303 237.207 193.31 235.98C187.17 233.46 183 229.54 182.87 229.72Z" fill="black"/>
<path opacity="0.08" d="M161.69 227.72C163.99 229.72 170.83 233.72 171.23 233.97L171.54 234.15C171.68 234.24 171.86 234.36 172.05 234.51C175.05 236.88 175.33 240.95 175.4 241.96C175.547 244.743 174.778 247.496 173.21 249.8C173.13 249.928 173.043 250.051 172.95 250.17C173.374 250.093 173.776 249.926 174.13 249.68C177.3 247.38 175.84 236.95 171.13 230.13C166.86 223.94 160.45 221.49 161.13 217.35C161.45 215.4 163.13 214.35 164.22 213.35C161.91 212.41 159.66 212.01 158.39 213.04C155.74 215.22 157.29 223.85 161.69 227.72Z" fill="black"/>
<path opacity="0.08" d="M201.21 202.48C205.67 208.69 211.62 214.19 210.32 216.09C209.48 217.33 206.19 216.09 205.56 217.35C204.93 218.61 207.43 220.24 208.92 222.72C212.19 228.16 208.92 234.26 209.27 236.67C209.952 236.287 210.58 235.816 211.14 235.27C212.41 234.06 214.63 231.27 214.52 223.89C214.27 208.67 204.34 191 200.52 184.54L194.52 184.16L192.52 184.88C193.15 190.1 198.39 198.53 201.21 202.48Z" fill="black"/>
<path d="M206.53 178.88C206.77 183.25 196.4 188.4 189.8 190.32C187.5 190.99 184.11 191.72 178.34 193.66C171.67 195.9 170.79 196.75 170.22 197.58C167.88 200.99 169.77 206.08 172.22 212.66C174.79 219.58 177.94 224.66 177.59 224.86C177.24 225.06 175.28 220.8 170.74 217.25C167.85 214.99 161.74 211.35 158.97 213.45C156.53 215.31 157.79 220.79 158.17 222.45C159.7 229.06 164.03 232.45 163.59 232.93C162.93 233.63 151.59 228.62 146.44 217.77C140.93 206.09 144.38 191.28 152.78 181.77C163.14 170 177.82 170 182.28 170C193.19 169.92 206.27 174.07 206.53 178.88Z" fill="#7A4020"/>
<path opacity="0.25" d="M195.848 213.944C198.562 212.617 199.306 208.564 197.51 204.893C195.714 201.222 192.058 199.322 189.344 200.65C186.631 201.978 185.887 206.03 187.683 209.701C189.479 213.372 193.135 215.272 195.848 213.944Z" fill="white"/>
<path d="M187.85 209.94C188.594 211.467 189.769 212.743 191.23 213.61C191.919 214.039 192.706 214.288 193.517 214.333C194.328 214.379 195.137 214.219 195.87 213.87C196.519 213.453 197.053 212.88 197.425 212.205C197.797 211.529 197.995 210.771 198 210C198.063 208.423 197.729 206.856 197.031 205.441C196.332 204.026 195.29 202.809 194 201.9C193.384 201.431 192.662 201.122 191.897 201.002C191.133 200.882 190.35 200.953 189.62 201.21C188.902 201.573 188.285 202.11 187.828 202.772C187.37 203.434 187.086 204.2 187 205C186.784 206.695 187.08 208.415 187.85 209.94ZM187.85 209.94C187.09 208.409 186.746 206.706 186.85 205C186.869 204.111 187.111 203.24 187.553 202.468C187.995 201.696 188.623 201.047 189.38 200.58C190.218 200.177 191.144 199.993 192.072 200.043C193 200.094 193.901 200.378 194.69 200.87C196.257 201.812 197.518 203.188 198.32 204.831C199.122 206.475 199.431 208.315 199.21 210.13C199.116 211.05 198.792 211.932 198.268 212.694C197.743 213.456 197.036 214.073 196.21 214.49C195.383 214.796 194.493 214.891 193.62 214.767C192.747 214.644 191.919 214.304 191.21 213.78C189.769 212.821 188.609 211.496 187.85 209.94Z" fill="#0C2340"/>
<path opacity="0.25" d="M211.067 207.569C213.781 206.241 214.525 202.189 212.729 198.518C210.932 194.847 207.277 192.947 204.563 194.275C201.849 195.602 201.106 199.655 202.902 203.326C204.698 206.997 208.353 208.897 211.067 207.569Z" fill="white"/>
<path d="M188.11 210.58L170.09 217.02L187.6 209.3L188.11 210.58Z" fill="#0C2340"/>
<path d="M203.1 203.14C202.77 203.537 202.374 203.876 201.93 204.14C201.521 204.399 201.085 204.613 200.63 204.78C200.175 204.951 199.702 205.072 199.22 205.14C198.711 205.23 198.189 205.23 197.68 205.14C198.01 204.743 198.406 204.404 198.85 204.14C199.258 203.879 199.694 203.665 200.15 203.5C200.605 203.329 201.078 203.208 201.56 203.14C202.069 203.05 202.591 203.05 203.1 203.14Z" fill="#0C2340"/>
<g opacity="0.4">
<path opacity="0.4" d="M151.52 179.31C148.871 181.677 146.583 184.419 144.73 187.45C144.25 188.2 143.86 188.98 143.44 189.75C143.02 190.52 142.67 191.32 142.37 192.15C141.711 193.767 141.199 195.441 140.84 197.15C140.11 200.578 139.979 204.107 140.45 207.58C140.929 211.099 141.94 214.525 143.45 217.74C141.434 214.715 140.05 211.313 139.38 207.74C139.043 205.943 138.876 204.118 138.88 202.29C138.925 200.46 139.126 198.636 139.48 196.84C141.052 189.655 145.355 183.362 151.48 179.29L151.52 179.31Z" fill="#FDFEFF"/>
</g>
<path d="M202.47 203.37C203.214 204.897 204.389 206.173 205.85 207.04C206.539 207.469 207.326 207.718 208.137 207.763C208.948 207.809 209.757 207.649 210.49 207.3C211.139 206.88 211.675 206.306 212.048 205.629C212.422 204.952 212.622 204.193 212.63 203.42C212.695 201.843 212.363 200.275 211.664 198.859C210.965 197.444 209.922 196.227 208.63 195.32C208.014 194.851 207.292 194.542 206.527 194.422C205.763 194.302 204.98 194.373 204.25 194.63C203.524 194.994 202.9 195.534 202.437 196.202C201.974 196.869 201.686 197.642 201.6 198.45C201.401 200.14 201.703 201.851 202.47 203.37ZM202.47 203.37C201.712 201.839 201.367 200.136 201.47 198.43C201.489 197.539 201.73 196.667 202.172 195.893C202.614 195.12 203.242 194.469 204 194C204.839 193.602 205.764 193.42 206.692 193.47C207.619 193.521 208.519 193.803 209.31 194.29C210.875 195.234 212.134 196.61 212.936 198.253C213.738 199.896 214.048 201.735 213.83 203.55C213.735 204.471 213.411 205.354 212.887 206.117C212.362 206.88 211.655 207.5 210.83 207.92C210.002 208.222 209.112 208.314 208.239 208.189C207.367 208.063 206.539 207.723 205.83 207.2C204.389 206.245 203.229 204.923 202.47 203.37Z" fill="#0C2340"/>
<path opacity="0.4" d="M317.57 433.85C317.085 435.315 316.718 436.817 316.47 438.34C316.27 439.544 316.153 440.76 316.12 441.98C326.65 455.5 339.04 466.98 349.57 480.45C349.693 480.609 349.848 480.739 350.026 480.834C350.203 480.928 350.398 480.983 350.599 480.997C350.799 481.01 351 480.981 351.188 480.91C351.376 480.84 351.547 480.731 351.69 480.59L355.11 477.21L317.57 433.85Z" fill="white"/>
<path d="M386 389.251C383.731 389.867 379.914 391.146 375.797 393.813C374.009 394.96 372.16 396.372 370.36 398.122C362.894 405.328 360.661 413.717 359.989 417C354.144 406.873 348.682 399.173 344.877 394.127C333.702 379.317 325.696 372.86 306.659 351.544C300.214 344.338 295.088 338.376 291.836 334.586C296.337 380.536 281.441 412.522 264.084 415.527C251.469 417.7 238.518 404.375 232 396.445C233.032 384.483 234.533 373.439 236.309 363.3C236.321 363.288 236.321 363.264 236.321 363.264C239.43 345.461 243.427 330.554 247.088 318.847C260.423 276.312 272.234 267.247 281.777 264.302C284.694 263.457 289.027 262.624 294.08 263.18C314.125 265.401 326.441 287.621 335.215 303.143C347.986 325.739 363.89 352.932 386 389.251Z" fill="white"/>
<path opacity="0.6" d="M327.49 432.34L326.49 435.34C327.885 435.884 329.241 436.522 330.55 437.25C333.46 438.83 340.03 442.42 343.24 449.13C344.39 451.56 344.18 452.42 346.08 456.27C347.46 459.08 348.19 460.53 349.61 461.78C351.807 463.557 354.577 464.471 357.4 464.35C357.13 463.35 356.85 462.35 356.55 461.4C354.894 461.206 353.304 460.639 351.9 459.74C347.46 456.85 348.55 452.5 343.97 445.54C339.942 439.574 334.189 434.98 327.48 432.37L327.49 432.34Z" fill="white"/>
<path opacity="0.06" d="M385.87 388.46C382.265 389.444 378.831 390.975 375.69 393C370.81 388.001 366.608 382.383 363.19 376.29C354.98 361.38 359.72 354.19 351.19 344.86C339.51 332.09 326.19 340.65 315.19 328.29C305.59 317.46 311.89 306.39 300.9 292.87C298.76 290.24 290.44 280.04 282.05 279.74C262.82 279.05 247.17 330.57 236.45 362.68C239.06 347.763 242.651 333.034 247.2 318.59C260.5 276.37 272.29 267.36 281.82 264.45C285.798 263.283 289.966 262.902 294.09 263.33C314.09 265.54 326.39 287.59 335.16 303.01C347.93 325.43 363.8 352.41 385.87 388.46Z" fill="black"/>
<path opacity="0.3" d="M335.26 413C330.449 413.631 325.742 414.892 321.26 416.75C321.26 411.81 321.103 406.713 320.79 401.46C319.79 384.2 318.79 368.51 315.57 354.64C317.76 356.93 320.04 359.34 322.43 361.81C321.76 364.92 321.01 368.47 323.36 372.72C326.48 378.37 331.79 380.81 331.49 386.09C331.3 389.32 329.05 389.94 329.14 393.51C329.25 397.99 332.2 400.39 333.84 403.46C335.228 406.435 335.721 409.75 335.26 413Z" fill="white"/>
<path d="M160.67 316.65C160.306 321.368 159.103 325.984 157.12 330.28C156.123 332.415 154.931 334.453 153.56 336.37C152.83 337.37 152.07 338.32 151.32 339.19C150.447 340.159 149.377 340.932 148.183 341.457C146.988 341.982 145.695 342.247 144.391 342.235C143.086 342.223 141.799 341.933 140.614 341.386C139.43 340.838 138.375 340.046 137.52 339.06C136.265 337.64 135.099 336.144 134.03 334.58C132.35 332.16 128.71 326.34 123.18 303.23C121.94 298 121.01 293.68 120.42 290.79C115.363 288.487 111.106 284.731 108.19 280C106.593 277.249 105.454 274.257 104.82 271.14C102.74 261.43 105.1 251.14 110.7 248.66C114.98 246.79 120.11 249.94 121.21 250.66C122.488 251.443 123.641 252.414 124.63 253.54C125.326 253.298 126.069 253.222 126.8 253.317C127.531 253.413 128.229 253.677 128.84 254.09L129.09 254.27C130.352 255.139 131.327 256.364 131.891 257.788C132.456 259.213 132.584 260.772 132.26 262.27L130.86 268.71C131.13 270.04 131.39 271.38 131.66 272.71C132.386 276.283 132.781 279.915 132.84 283.56C135.029 286.024 137.012 288.662 138.77 291.45C140.807 294.698 142.522 298.138 143.89 301.72C143.465 299.309 143.465 296.841 143.89 294.43C144.32 292.107 145.152 289.877 146.35 287.84C151.11 297.42 155.883 307.023 160.67 316.65Z" fill="#F2B2AF"/>
<path d="M236.53 210C240.439 211.345 244.172 213.155 247.65 215.39C252.277 218.375 256.39 222.09 259.83 226.39C261.549 228.53 263.103 230.796 264.48 233.17C254.703 244.94 246.907 258.224 241.4 272.5C247.036 280.83 251.325 289.996 254.11 299.66C253.37 301.33 252.61 303.08 251.87 304.89C247.034 316.695 243.438 328.971 241.14 341.52C236.791 365.578 237.192 390.255 242.32 414.16C242.55 415.28 242.79 416.35 243.03 417.39C231.6 411.7 216.8 401.96 207.8 385.12C206.514 382.724 205.372 380.253 204.38 377.72C199.17 364.55 189.38 342.09 169.43 301.25C168.591 309.384 165.179 317.039 159.69 323.1C158.6 321.8 157.43 320.35 156.25 318.75C152.824 314.122 149.917 309.132 147.58 303.87C145.408 298.977 143.733 293.878 142.58 288.65C145.617 273.719 154.407 260.583 167.05 252.08C175.05 262.32 187.45 263.78 197.69 260.63C209.69 256.93 205.69 244.09 202.49 241.06C205.373 239.908 208.179 238.572 210.89 237.06C215.773 234.451 220.289 231.206 224.32 227.41C229.47 222.444 233.615 216.533 236.53 210Z" fill="#7A4FE8"/>
<path opacity="0.3" d="M302.85 391.55C288.66 409.69 263.05 418.68 257.64 412.63C256.52 411.38 256.54 409.79 257.31 407.76C266.09 402.95 278.7 398.25 291.31 389.46C294.07 387.53 298.11 384.51 300.46 379.26C302.66 374.31 301.14 372.37 302.74 365.34C303.8 360.72 305.66 352.55 311.89 348.71C312.509 348.331 313.154 347.997 313.82 347.71C314.06 349.14 314.2 350.31 314.3 351.08C317.08 373.08 304.5 389.44 302.85 391.55Z" fill="white"/>
<path d="M296.61 368.07C296.635 371.273 296.404 374.473 295.92 377.64C294.98 383.992 293.068 390.16 290.25 395.93C288.843 398.809 287.197 401.565 285.33 404.17C286.935 401.419 288.393 398.585 289.7 395.68C292.269 389.87 294.158 383.783 295.33 377.54C295.92 374.41 296.32 371.25 296.61 368.07Z" fill="#181330"/>
<path opacity="0.6" d="M409.74 397.34C409.504 399.607 408.539 401.737 406.99 403.41C405.7 404.78 404.2 405.41 401.35 406.72C397.43 408.43 396.57 408.2 394.1 409.25C387.26 412.17 383.38 418.59 381.68 421.42C380.909 422.71 380.218 424.046 379.61 425.42L376.68 424.31C379.573 417.717 384.408 412.163 390.54 408.39C397.68 404.11 401.98 405.39 405.05 401.07C405.741 400.104 406.265 399.029 406.6 397.89C407.72 397.72 408.76 397.54 409.74 397.34Z" fill="white"/>
<path opacity="0.12" d="M169.76 276.36C169.85 277.68 169.93 279.13 169.95 280.71C169.81 279.16 169.76 277.7 169.76 276.36Z" fill="black"/>
<path opacity="0.1" d="M243 417.37C231.57 411.68 216.77 401.94 207.77 385.1C206.484 382.704 205.342 380.233 204.35 377.7C199.14 364.53 189.35 342.07 169.4 301.23C168.561 309.364 165.149 317.019 159.66 323.08C158.57 321.78 157.4 320.33 156.22 318.73C158.65 314.58 162.92 310.73 166.36 301.58C168.844 294.906 170.078 287.831 170 280.71C170.39 286.842 172.512 292.737 176.12 297.71C183.63 307.61 192.27 305.15 197.54 313.63C204.38 324.63 192.75 334.05 198.99 348.38C203.07 357.75 208.99 355.74 218.09 368.05C226.54 379.44 224.27 384.9 231.09 398.15C234.088 403.977 237.877 409.361 242.35 414.15C242.55 415.26 242.79 416.33 243 417.37Z" fill="black"/>
<path opacity="0.1" d="M241.4 272.48C247.036 280.81 251.325 289.976 254.11 299.64C253.37 301.31 252.61 303.06 251.87 304.87C249.41 298.25 246.15 290.09 240.76 286.07C238.594 284.579 236.836 282.567 235.65 280.22C233.82 276.42 234.34 273.03 234.33 270.57C234.33 266.46 232.8 260.64 226 253.36C230.26 256.64 235.82 259.9 240.19 258.09C244.41 256.34 244.84 250.93 247.94 243.9C250.851 237.408 254.875 231.475 259.83 226.37C261.549 228.51 263.103 230.776 264.48 233.15C254.703 244.92 246.907 258.204 241.4 272.48Z" fill="black"/>
<path opacity="0.08" d="M157.12 330.28C156.123 332.415 154.931 334.453 153.56 336.37C152.83 337.37 152.07 338.32 151.32 339.19C150.447 340.159 149.377 340.932 148.183 341.457C146.988 341.982 145.695 342.247 144.391 342.235C143.086 342.223 141.799 341.933 140.614 341.386C139.43 340.838 138.375 340.046 137.52 339.06C136.265 337.64 135.099 336.144 134.03 334.58C132.35 332.16 128.71 326.34 123.18 303.23C121.94 298 121.01 293.68 120.42 290.79C115.363 288.487 111.106 284.731 108.19 280C106.593 277.249 105.454 274.257 104.82 271.14C106.48 278.91 111.92 285.05 118.97 286.95C123.545 288.084 128.374 287.537 132.58 285.41C130.75 288.335 127.999 290.569 124.76 291.76C130.76 297.69 132.1 302.54 132.07 306.07C132.07 310.15 129.97 313.28 131.87 317.25C132.97 319.6 134.29 320.08 136.63 322.64C142.38 328.98 141.32 333.86 144.29 335.47C146.23 336.49 149.82 336.11 157.12 330.28Z" fill="black"/>
<path opacity="0.08" d="M107.61 268.57C108.842 269.428 109.912 270.498 110.77 271.73C111.656 273.004 112.297 274.432 112.66 275.94C112.79 277.76 112.91 279.57 113.04 281.39C113.997 272.033 118.573 263.421 125.79 257.39L121.08 258.5L111.92 253.18L118.73 259.74L110.59 258.37L117 262.59C115.592 262.853 114.162 262.981 112.73 262.97C111.353 262.955 109.98 262.811 108.63 262.54C109.834 263.108 110.869 263.981 111.632 265.072C112.395 266.163 112.86 267.434 112.98 268.76C112.261 268.541 111.52 268.4 110.77 268.34C109.711 268.254 108.645 268.332 107.61 268.57Z" fill="black"/>
<path d="M214.31 188.06C215.641 188.06 216.72 186.981 216.72 185.65C216.72 184.319 215.641 183.24 214.31 183.24C212.979 183.24 211.9 184.319 211.9 185.65C211.9 186.981 212.979 188.06 214.31 188.06Z" fill="#04B300"/>
<path d="M241.66 208.36C242.709 208.36 243.56 207.509 243.56 206.46C243.56 205.411 242.709 204.56 241.66 204.56C240.611 204.56 239.76 205.411 239.76 206.46C239.76 207.509 240.611 208.36 241.66 208.36Z" fill="#FF0F00"/>
<path d="M243.69 178.73C244.248 178.73 244.7 178.278 244.7 177.72C244.7 177.162 244.248 176.71 243.69 176.71C243.132 176.71 242.68 177.162 242.68 177.72C242.68 178.278 243.132 178.73 243.69 178.73Z" fill="#F48C3B"/>
<path d="M270.5 176.01C271.058 176.01 271.51 175.558 271.51 175C271.51 174.442 271.058 173.99 270.5 173.99C269.942 173.99 269.49 174.442 269.49 175C269.49 175.558 269.942 176.01 270.5 176.01Z" fill="#3267E3"/>
<path d="M229.98 146.64C230.538 146.64 230.99 146.188 230.99 145.63C230.99 145.072 230.538 144.62 229.98 144.62C229.422 144.62 228.97 145.072 228.97 145.63C228.97 146.188 229.422 146.64 229.98 146.64Z" fill="#3F40D9"/>
<path opacity="0.5" d="M123.87 434.65C101.87 406.32 143.33 337.15 216.57 280.16C289.81 223.17 367.05 200 389.1 228.28" stroke="#FDFEFF" stroke-miterlimit="10"/>
<path d="M401.35 447.3C402.67 445.87 404.07 444.51 405.45 443.13C406.83 441.75 408.3 440.47 409.75 439.13C412.66 436.52 415.69 434.06 418.75 431.69C421.81 429.32 425.05 427.07 428.34 424.96C429.98 423.907 431.647 422.88 433.34 421.88C435.04 420.88 436.72 419.88 438.46 419.04L433.66 422.37C432.05 423.47 430.46 424.58 428.88 425.72C425.73 428 422.59 430.28 419.51 432.64C416.43 435 413.37 437.4 410.34 439.83C408.82 441.05 407.34 442.28 405.83 443.54L401.35 447.3Z" fill="#FDFEFF"/>
<path d="M116 297.33C116.54 300.56 117.12 303.78 117.82 306.97C118.52 310.16 119.27 313.33 120.21 316.45C121.15 319.57 122.1 322.69 123.21 325.77C124.32 328.85 125.51 331.88 126.76 334.91C125.178 332.035 123.772 329.066 122.55 326.02C121.31 323.02 120.28 319.85 119.34 316.7C118.4 313.55 117.7 310.34 117.14 307.1C116.565 303.869 116.184 300.607 116 297.33Z" fill="#FDFEFF"/>
<g opacity="0.5">
<path opacity="0.5" d="M177.69 265C179.672 265.909 181.743 266.609 183.87 267.09L184.66 267.28L185.46 267.41C186 267.49 186.53 267.59 187.06 267.65C188.134 267.75 189.212 267.79 190.29 267.77C191.37 267.77 192.43 267.61 193.5 267.52C194.554 267.349 195.596 267.111 196.62 266.81C198.668 266.23 200.609 265.326 202.37 264.13C204.12 262.945 205.605 261.409 206.73 259.62C207.834 257.815 208.518 255.785 208.73 253.68C208.951 251.539 208.816 249.377 208.33 247.28C207.889 245.144 207.201 243.067 206.28 241.09C208.643 244.882 209.817 249.295 209.65 253.76C209.51 256.039 208.824 258.251 207.65 260.21C206.461 262.154 204.877 263.827 203 265.12C199.223 267.61 194.761 268.855 190.24 268.68C185.81 268.555 181.487 267.287 177.69 265Z" fill="white"/>
</g>
<path d="M283.26 79.08C284.72 81.48 297.49 101.55 322.78 104.28C350.26 107.28 367.78 87.08 369.17 85.43C365.61 119.703 362.053 153.973 358.5 188.24C349.755 194.884 338.911 198.158 327.951 197.464C316.991 196.77 306.647 192.154 298.81 184.46C298.314 166.246 296.708 148.079 294 130.06C291.412 112.873 287.826 95.8506 283.26 79.08Z" fill="white"/>
<path d="M275.24 142.77L274.05 137C275.156 133.185 277.299 129.751 280.24 127.08C283.14 124.56 285.93 123.76 289.64 119.93C290.38 119.16 291.01 118.41 291.54 117.74C292.129 117.008 292.676 116.243 293.18 115.45C295.39 113.67 297.96 114.08 299.18 115.34C299.603 115.779 299.859 116.352 299.904 116.96C299.95 117.568 299.782 118.173 299.43 118.67L293.74 126.67" fill="#F2B2AF"/>
<g opacity="0.2">
<path opacity="0.2" d="M295.77 104.72C300.274 108.335 305.311 111.233 310.7 113.31C313.361 114.306 316.11 115.049 318.91 115.53C321.7 116.044 324.533 116.285 327.37 116.25H329.49L331.61 116.06C333.03 115.98 334.42 115.69 335.82 115.47C336.524 115.366 337.222 115.223 337.91 115.04C338.6 114.88 339.3 114.74 339.99 114.55C341.35 114.12 342.74 113.78 344.07 113.27C346.786 112.327 349.433 111.194 351.99 109.88C354.578 108.575 357.08 107.105 359.48 105.48C357.364 107.513 355.049 109.329 352.57 110.9C350.095 112.507 347.477 113.883 344.75 115.01C339.259 117.364 333.355 118.605 327.38 118.66C321.426 118.707 315.531 117.49 310.082 115.091C304.633 112.691 299.755 109.163 295.77 104.74V104.72Z" fill="black"/>
</g>
<g opacity="0.2">
<path opacity="0.2" d="M298.31 125.55C303.475 127.916 308.898 129.671 314.47 130.78C317.244 131.323 320.05 131.687 322.87 131.87C325.713 132.055 328.563 132.095 331.41 131.99C319.959 134.163 308.111 131.858 298.31 125.55Z" fill="black"/>
</g>
<g opacity="0.6">
<path opacity="0.3" d="M308.5 148.44C308.815 148.587 309.154 148.679 309.5 148.71C309.598 148.729 309.7 148.724 309.796 148.696C309.891 148.667 309.979 148.616 310.051 148.546C310.122 148.476 310.176 148.39 310.207 148.295C310.239 148.2 310.246 148.099 310.23 148C310.225 147.851 310.191 147.705 310.129 147.569C310.067 147.433 309.979 147.311 309.87 147.21C309.525 146.884 309.146 146.595 308.74 146.35L307.86 145.77C307.212 145.359 306.62 144.865 306.1 144.3C305.568 143.668 305.277 142.867 305.28 142.04C305.244 141.737 305.3 141.429 305.441 141.158C305.581 140.887 305.801 140.665 306.07 140.52C306.463 140.411 306.874 140.383 307.278 140.438C307.682 140.493 308.071 140.63 308.42 140.84C309.28 141.198 310.046 141.749 310.66 142.45C311.277 143.116 311.632 143.983 311.66 144.89C311.087 144.69 310.527 144.48 309.98 144.26C309.965 144.002 309.899 143.75 309.786 143.519C309.673 143.287 309.514 143.08 309.32 142.91C309.029 142.637 308.69 142.42 308.32 142.27C307.996 142.096 307.625 142.03 307.26 142.08C306.99 142.15 306.86 142.34 306.86 142.68C306.872 143.007 307.012 143.316 307.25 143.54C307.579 143.851 307.937 144.129 308.32 144.37L309.75 145.31C310.277 145.63 310.758 146.02 311.18 146.47C311.667 147.022 311.934 147.734 311.93 148.47C311.961 148.798 311.893 149.128 311.737 149.418C311.58 149.708 311.341 149.945 311.05 150.1C310.648 150.245 310.219 150.301 309.793 150.267C309.367 150.232 308.954 150.107 308.58 149.9C307.586 149.502 306.718 148.842 306.07 147.99C305.49 147.269 305.17 146.375 305.16 145.45L306.78 146.24C306.814 146.59 306.915 146.93 307.08 147.24C307.411 147.784 307.909 148.205 308.5 148.44Z" fill="#FF0000"/>
<path opacity="0.3" d="M319.19 149.21C317.79 148.94 316.39 148.61 315.01 148.21V150.41C316.59 150.85 318.18 151.22 319.78 151.51V153.05C317.578 152.648 315.404 152.107 313.27 151.43V142.88C315.337 143.53 317.441 144.057 319.57 144.46V146C318.04 145.72 316.52 145.36 315.01 144.94V146.76C316.39 147.14 317.79 147.47 319.19 147.76V149.21Z" fill="#FF0000"/>
<path opacity="0.3" d="M327.38 153.26C327.033 153.544 326.631 153.755 326.199 153.879C325.768 154.003 325.315 154.037 324.87 153.98C324.291 153.953 323.724 153.804 323.207 153.542C322.69 153.28 322.234 152.911 321.87 152.46C321.124 151.476 320.742 150.264 320.79 149.03C320.735 148.43 320.816 147.825 321.027 147.26C321.238 146.696 321.574 146.186 322.01 145.77C322.387 145.464 322.823 145.24 323.292 145.111C323.76 144.981 324.249 144.951 324.73 145.02C325.358 145.022 325.977 145.167 326.54 145.445C327.103 145.722 327.595 146.124 327.98 146.62C328.331 147.085 328.543 147.64 328.59 148.22C327.97 148.22 327.36 148.22 326.75 148.17C326.672 147.807 326.515 147.466 326.29 147.17C326.099 146.967 325.87 146.805 325.616 146.692C325.362 146.578 325.088 146.516 324.81 146.51C324.515 146.467 324.213 146.503 323.936 146.613C323.658 146.724 323.415 146.905 323.23 147.14C322.805 147.773 322.604 148.53 322.66 149.29C322.61 150.079 322.821 150.862 323.26 151.52C323.441 151.767 323.674 151.973 323.941 152.123C324.208 152.273 324.505 152.364 324.81 152.39C325.078 152.436 325.354 152.414 325.611 152.324C325.868 152.235 326.098 152.082 326.28 151.88C326.513 151.588 326.674 151.246 326.75 150.88C327.35 150.88 327.96 150.88 328.57 150.88C328.481 151.793 328.057 152.641 327.38 153.26Z" fill="#FF0000"/>
<path opacity="0.3" d="M335.2 150.32V145.07C335.82 145 336.44 144.92 337.05 144.83V150.09C337.085 150.841 336.938 151.589 336.62 152.27C336.302 152.801 335.85 153.239 335.31 153.541C334.769 153.843 334.159 153.998 333.54 153.99C332.959 154.114 332.354 154.062 331.802 153.841C331.25 153.62 330.776 153.241 330.44 152.75C330.114 152.093 329.962 151.363 330 150.63V145.38H331.87V150.63C331.842 151.067 331.914 151.505 332.08 151.91C332.31 152.38 332.79 152.59 333.54 152.54C333.837 152.55 334.131 152.474 334.386 152.322C334.642 152.169 334.848 151.946 334.98 151.68C335.161 151.251 335.236 150.784 335.2 150.32Z" fill="#FF0000"/>
<path opacity="0.3" d="M342.46 149C341.85 149.16 341.23 149.3 340.6 149.44V152.79L338.83 153.14V144.59C340.25 144.33 341.67 144.02 343.07 143.65C343.517 143.515 343.984 143.458 344.45 143.48C344.752 143.513 345.037 143.635 345.27 143.83C345.455 143.995 345.604 144.196 345.71 144.42C345.822 144.686 345.876 144.972 345.87 145.26C345.862 145.711 345.756 146.154 345.56 146.56C345.346 147.03 344.998 147.427 344.56 147.7C344.722 147.703 344.882 147.742 345.028 147.815C345.173 147.888 345.3 147.992 345.4 148.12C345.593 148.51 345.676 148.946 345.64 149.38V149.96C345.632 150.221 345.649 150.482 345.69 150.74C345.701 150.827 345.738 150.91 345.794 150.977C345.851 151.044 345.926 151.094 346.01 151.12V151.33C345.36 151.55 344.71 151.75 344.01 151.93C343.96 151.76 343.92 151.62 343.9 151.51C343.853 151.273 343.826 151.032 343.82 150.79V150C343.82 149.46 343.71 149.12 343.52 149C343.179 148.869 342.801 148.869 342.46 149ZM343.55 147.16C343.724 147.034 343.864 146.867 343.957 146.673C344.05 146.479 344.092 146.265 344.08 146.05C344.08 145.53 343.91 145.23 343.57 145.15C343.278 145.108 342.98 145.136 342.7 145.23C342 145.41 341.3 145.57 340.6 145.72V148C341.267 147.853 341.933 147.693 342.6 147.52C342.941 147.453 343.264 147.317 343.55 147.12V147.16Z" fill="#FF0000"/>
<path opacity="0.3" d="M353.13 144.65C351.82 145.29 350.49 145.89 349.13 146.42V148.62C350.67 148.007 352.183 147.323 353.67 146.57V148.11C351.645 149.136 349.557 150.034 347.42 150.8V142.25C349.489 141.514 351.509 140.649 353.47 139.66V141.17C352.05 141.89 350.603 142.557 349.13 143.17V144.99C350.48 144.45 351.81 143.86 353.13 143.21V144.65Z" fill="#FF0000"/>
</g>
<path d="M358.41 177.81C357.431 177.884 356.507 178.291 355.791 178.962C355.074 179.633 354.608 180.528 354.47 181.5L354.24 183.95L362.03 183.87L362.26 181.42C362.301 180.94 362.239 180.457 362.076 180.004C361.913 179.551 361.654 179.138 361.317 178.794C360.98 178.45 360.572 178.183 360.122 178.012C359.672 177.84 359.191 177.768 358.71 177.8H358.41V177.81ZM351.65 184L351.87 181.56C352.094 179.938 352.868 178.442 354.061 177.321C355.255 176.2 356.797 175.522 358.43 175.4H358.95C359.751 175.35 360.554 175.473 361.304 175.761C362.053 176.049 362.731 176.495 363.292 177.07C363.853 177.644 364.284 178.333 364.554 179.089C364.825 179.845 364.929 180.65 364.86 181.45L364.62 183.9C364.941 183.879 365.264 183.927 365.565 184.042C365.866 184.156 366.139 184.335 366.365 184.564C366.591 184.794 366.764 185.07 366.874 185.373C366.984 185.676 367.027 185.999 367 186.32L366.42 192.43C366.326 193.078 366.015 193.675 365.537 194.122C365.059 194.569 364.443 194.84 363.79 194.89H363.59L350.59 195.03C350.27 195.05 349.949 195.001 349.649 194.885C349.35 194.77 349.079 194.591 348.855 194.361C348.631 194.131 348.459 193.856 348.351 193.554C348.243 193.252 348.202 192.93 348.23 192.61L348.81 186.49C348.896 185.838 349.205 185.236 349.684 184.786C350.164 184.336 350.784 184.065 351.44 184.02H351.64L351.65 184ZM358 165.46C346.91 166.37 337.41 175.13 336.41 185.72C335.36 196.82 344.07 205.72 355.86 205.61C356.42 205.61 356.97 205.61 357.52 205.53C368.61 204.63 378.11 195.87 379.11 185.28C380.16 174.18 371.46 165.28 359.66 165.39C359.11 165.39 358.55 165.39 358 165.46Z" fill="url(#paint4_linear_102_669)"/>
<path d="M362 183.87L354.21 183.95L354.44 181.5C354.578 180.528 355.044 179.633 355.761 178.962C356.477 178.291 357.401 177.884 358.38 177.81H358.68C359.161 177.778 359.642 177.85 360.092 178.022C360.542 178.193 360.95 178.46 361.287 178.804C361.624 179.148 361.883 179.561 362.046 180.014C362.209 180.467 362.271 180.95 362.23 181.43L362 183.88V183.87ZM358.4 175.38C356.767 175.502 355.225 176.18 354.031 177.301C352.838 178.422 352.064 179.918 351.84 181.54L351.62 183.98H351.42C350.764 184.025 350.144 184.296 349.664 184.746C349.185 185.196 348.876 185.798 348.79 186.45L348.21 192.57C348.18 192.893 348.221 193.219 348.33 193.525C348.439 193.83 348.613 194.109 348.841 194.34C349.068 194.572 349.344 194.75 349.647 194.864C349.951 194.978 350.276 195.025 350.6 195L363.6 194.86H363.8C364.453 194.81 365.069 194.539 365.547 194.092C366.025 193.645 366.336 193.048 366.43 192.4L367.01 186.29C367.037 185.969 366.994 185.646 366.884 185.343C366.774 185.04 366.601 184.764 366.375 184.534C366.149 184.305 365.876 184.126 365.575 184.012C365.274 183.897 364.952 183.849 364.63 183.87L364.87 181.42C364.939 180.62 364.835 179.815 364.564 179.059C364.294 178.303 363.863 177.614 363.302 177.04C362.741 176.465 362.063 176.019 361.314 175.731C360.564 175.443 359.761 175.32 358.96 175.37H358.44" fill="white"/>
<path d="M357.56 209.61C356.89 209.67 356.22 209.7 355.56 209.71C352.286 209.809 349.026 209.239 345.979 208.035C342.932 206.832 340.163 205.02 337.84 202.71C335.625 200.456 333.938 197.739 332.9 194.754C331.863 191.77 331.5 188.592 331.84 185.45C333.06 172.56 344.66 161.86 358.17 160.76C358.83 160.7 359.51 160.67 360.17 160.67C363.447 160.564 366.71 161.13 369.76 162.334C372.809 163.538 375.58 165.354 377.9 167.67C380.112 169.926 381.797 172.644 382.834 175.628C383.871 178.612 384.235 181.789 383.9 184.93C383.162 191.707 379.846 197.94 374.64 202.34C369.876 206.531 363.892 209.082 357.57 209.62L357.56 209.61ZM358.17 160.14C344.32 161.28 332.43 172.26 331.17 185.46C330.82 188.68 331.188 191.938 332.248 194.998C333.308 198.059 335.033 200.846 337.3 203.16C339.681 205.53 342.52 207.389 345.645 208.624C348.769 209.858 352.112 210.442 355.47 210.34C356.17 210.34 356.88 210.29 357.57 210.24C364.045 209.687 370.171 207.072 375.05 202.78C380.39 198.266 383.788 191.871 384.54 184.92C384.89 181.702 384.522 178.446 383.462 175.387C382.402 172.328 380.676 169.542 378.41 167.23C376.032 164.853 373.194 162.986 370.07 161.743C366.946 160.5 363.601 159.907 360.24 160C359.54 160 358.85 160 358.16 160.09" fill="#4BEA5A"/>
<defs>
<radialGradient id="paint0_radial_102_669" cx="0" cy="0" r="1" gradientUnits="userSpaceOnUse" gradientTransform="translate(316.158 378.289) scale(207.004 206.378)">
<stop stop-color="#7A4FE8"/>
<stop offset="0.1" stop-color="#7750E9" stop-opacity="0.95"/>
<stop offset="0.27" stop-color="#6E54ED" stop-opacity="0.8"/>
<stop offset="0.51" stop-color="#6059F2" stop-opacity="0.57"/>
<stop offset="0.79" stop-color="#4D61F9" stop-opacity="0.25"/>
<stop offset="1" stop-color="#3E67FF" stop-opacity="0"/>
</radialGradient>
<radialGradient id="paint1_radial_102_669" cx="0" cy="0" r="1" gradientUnits="userSpaceOnUse" gradientTransform="translate(295.043 171.011) scale(213.015 178.993)">
<stop stop-color="#7A4FE8"/>
<stop offset="0.1" stop-color="#7750E9" stop-opacity="0.95"/>
<stop offset="0.27" stop-color="#6E54ED" stop-opacity="0.8"/>
<stop offset="0.51" stop-color="#6059F2" stop-opacity="0.57"/>
<stop offset="0.79" stop-color="#4D61F9" stop-opacity="0.25"/>
<stop offset="1" stop-color="#3E67FF" stop-opacity="0"/>
</radialGradient>
<linearGradient id="paint2_linear_102_669" x1="381.786" y1="393.305" x2="447.589" y2="418.6" gradientUnits="userSpaceOnUse">
<stop stop-color="#7A4FE8"/>
<stop offset="1" stop-color="#432B80"/>
</linearGradient>
<linearGradient id="paint3_linear_102_669" x1="324.179" y1="425.253" x2="363.948" y2="432.856" gradientUnits="userSpaceOnUse">
<stop stop-color="#7A4FE8"/>
<stop offset="1" stop-color="#432B80"/>
</linearGradient>
<linearGradient id="paint4_linear_102_669" x1="357.76" y1="165.389" x2="357.76" y2="205.611" gradientUnits="userSpaceOnUse">
<stop stop-color="#4BEA5A"/>
<stop offset="1" stop-color="#39B345"/>
</linearGradient>
</defs>
</svg>
