<svg width="321" height="50" viewBox="0 0 321 50" fill="none" xmlns="http://www.w3.org/2000/svg">
<path d="M62.0106 39C61.2631 39 60.7347 38.8469 60.4253 38.5412C60.1418 38.2353 60 37.7509 60 37.0882V14.95C60 14.2873 60.1546 13.8029 60.4639 13.4971C60.7733 13.1657 61.2887 13 62.0106 13H71.4833C75.0919 13 77.7468 13.752 79.4482 15.2559C81.1494 16.7598 82 19.0029 82 21.9853C82 24.9421 81.1494 27.1725 79.4482 28.6764C77.7726 30.155 75.1177 30.8942 71.4833 30.8942H67.8102V37.0882C67.8102 37.7509 67.6556 38.2353 67.3462 38.5412C67.0368 38.8469 66.5084 39 65.7609 39H62.0106ZM70.8648 25.35C71.9216 25.35 72.7336 25.0696 73.3006 24.5088C73.8933 23.948 74.1899 23.1069 74.1899 21.9853C74.1899 20.8382 73.8933 19.9843 73.3006 19.4235C72.7336 18.8627 71.9216 18.5823 70.8648 18.5823H67.8102V25.35H70.8648Z" fill="white"/>
<path d="M90.8749 40C88.491 40 86.5761 39.2157 85.1304 37.6472C83.71 36.0523 83 33.8171 83 30.9411C83 28.7451 83.4819 26.8235 84.4455 25.1765C85.4348 23.5294 86.8171 22.2615 88.5924 21.3726C90.3932 20.4575 92.4601 20 94.7934 20C96.7211 20 98.4204 20.2222 99.8913 20.6667C101.388 21.085 102.757 21.6994 104 22.5098V38.1962C104 38.6929 103.911 39.0197 103.734 39.1765C103.556 39.3335 103.201 39.4119 102.669 39.4119H98.788C98.509 39.4119 98.2935 39.3727 98.1414 39.294C97.9891 39.1897 97.8625 39.0327 97.761 38.8235L97.2662 37.6472C96.5308 38.4575 95.6432 39.0459 94.6033 39.4119C93.5889 39.804 92.3461 40 90.8749 40ZM93.7284 34.6666C94.7174 34.6666 95.4909 34.4182 96.0488 33.9217C96.6068 33.425 96.8858 32.719 96.8858 31.8038V25.6863C96.4041 25.451 95.7953 25.3334 95.0598 25.3334C93.7155 25.3334 92.6376 25.817 91.8261 26.7843C91.0398 27.7516 90.6468 29.1111 90.6468 30.8627C90.6468 33.3987 91.6738 34.6666 93.7284 34.6666Z" fill="white"/>
<path d="M110.124 39C109.349 39 108.801 38.8463 108.481 38.5394C108.16 38.2323 108 37.7461 108 37.0807V21.7657C108 21.3051 108.08 20.998 108.24 20.8444C108.427 20.6653 108.801 20.5758 109.363 20.5758H113.491C113.811 20.5758 114.051 20.6269 114.212 20.7293C114.399 20.8061 114.506 20.9596 114.532 21.1899L114.733 22.3414C115.481 21.6249 116.456 21.062 117.658 20.6525C118.887 20.2175 120.25 20 121.746 20C123.91 20 125.66 20.5886 126.996 21.7657C128.332 22.9172 129 24.6316 129 26.9091V37.0807C129 37.7461 128.84 38.2323 128.519 38.5394C128.225 38.8463 127.691 39 126.916 39H123.029C122.254 39 121.693 38.8463 121.345 38.5394C121.025 38.2323 120.865 37.7461 120.865 37.0807V27.408C120.865 26.6403 120.691 26.0903 120.344 25.7576C119.996 25.4249 119.448 25.2586 118.7 25.2586C117.899 25.2586 117.257 25.4633 116.777 25.8726C116.322 26.2821 116.095 26.8451 116.095 27.5617V37.0807C116.095 37.7461 115.935 38.2323 115.615 38.5394C115.321 38.8463 114.786 39 114.011 39H110.124Z" fill="white"/>
<path d="M141.362 40C137.73 40 134.929 39.1503 132.957 37.451C130.986 35.7518 130 33.2812 130 30.0392C130 28.0524 130.454 26.3007 131.362 24.7843C132.27 23.268 133.58 22.0915 135.292 21.2549C137.03 20.4183 139.079 20 141.44 20C143.229 20 144.734 20.1699 145.953 20.5098C147.198 20.8497 148.301 21.3725 149.261 22.0785C149.546 22.2615 149.689 22.4967 149.689 22.7843C149.689 22.9935 149.585 23.268 149.377 23.6078L147.782 26.3921C147.6 26.7583 147.38 26.9413 147.121 26.9413C146.965 26.9413 146.718 26.8367 146.381 26.6275C145.681 26.1832 145.02 25.8562 144.397 25.6471C143.8 25.4379 143.048 25.3334 142.14 25.3334C140.843 25.3334 139.793 25.7517 138.988 26.5883C138.21 27.4248 137.821 28.5751 137.821 30.0392C137.821 31.5295 138.223 32.6798 139.027 33.4901C139.831 34.2745 140.934 34.6666 142.335 34.6666C143.165 34.6666 143.917 34.549 144.592 34.3136C145.266 34.0785 145.953 33.7517 146.654 33.3333C147.017 33.1242 147.276 33.0196 147.432 33.0196C147.665 33.0196 147.873 33.2025 148.054 33.5687L149.805 36.5883C149.935 36.8497 150 37.0588 150 37.2156C150 37.451 149.844 37.6732 149.533 37.8824C148.444 38.5883 147.25 39.1111 145.953 39.4511C144.682 39.817 143.152 40 141.362 40Z" fill="white"/>
<path d="M159.875 40C157.491 40 155.576 39.2157 154.131 37.6472C152.71 36.0523 152 33.8171 152 30.9411C152 28.7451 152.482 26.8235 153.446 25.1765C154.435 23.5294 155.817 22.2615 157.592 21.3726C159.393 20.4575 161.46 20 163.794 20C165.721 20 167.42 20.2222 168.891 20.6667C170.387 21.085 171.757 21.6994 173 22.5098V38.1962C173 38.6929 172.911 39.0197 172.734 39.1765C172.556 39.3335 172.201 39.4119 171.668 39.4119H167.788C167.509 39.4119 167.293 39.3727 167.141 39.294C166.989 39.1897 166.862 39.0327 166.761 38.8235L166.266 37.6472C165.531 38.4575 164.643 39.0459 163.603 39.4119C162.589 39.804 161.346 40 159.875 40ZM162.728 34.6666C163.717 34.6666 164.491 34.4182 165.049 33.9217C165.607 33.425 165.886 32.719 165.886 31.8038V25.6863C165.404 25.451 164.795 25.3334 164.06 25.3334C162.716 25.3334 161.638 25.817 160.826 26.7843C160.04 27.7516 159.647 29.1111 159.647 30.8627C159.647 33.3987 160.674 34.6666 162.728 34.6666Z" fill="white"/>
<path d="M197.732 37.547C197.911 37.7509 198 37.9804 198 38.2353C198 38.4645 197.924 38.6558 197.77 38.8087C197.617 38.9362 197.413 39 197.158 39H191.229C190.873 39 190.605 38.9744 190.426 38.9236C190.273 38.8469 190.107 38.7067 189.929 38.503L184.727 31.4294V37.0882C184.727 37.7509 184.574 38.2353 184.268 38.5412C183.962 38.8469 183.439 39 182.699 39H178.989C178.25 39 177.727 38.8469 177.421 38.5412C177.14 38.2353 177 37.7509 177 37.0882V14.95C177 14.2873 177.153 13.8029 177.459 13.4971C177.765 13.1657 178.275 13 178.989 13H182.699C183.439 13 183.962 13.1657 184.268 13.4971C184.574 13.8029 184.727 14.2873 184.727 14.95V27.7588L189.776 21.1823C189.929 20.9784 190.095 20.8382 190.273 20.7617C190.452 20.6853 190.72 20.6471 191.077 20.6471H197.006C197.261 20.6471 197.452 20.7235 197.579 20.8765C197.732 21.0039 197.809 21.1823 197.809 21.4118C197.809 21.6667 197.719 21.8961 197.541 22.1L191 29.5942L197.732 37.547Z" fill="white"/>
<path d="M210.151 40C208.005 40 206.089 39.634 204.403 38.9021C202.743 38.17 201.427 37.0718 200.456 35.608C199.485 34.1439 199 32.353 199 30.2354C199 26.9151 199.92 24.3791 201.759 22.6275C203.598 20.8758 206.243 20 209.691 20C213.064 20 215.619 20.8628 217.356 22.5883C219.119 24.2876 220 26.6537 220 29.6862C220 30.9935 219.438 31.6471 218.314 31.6471H206.281C206.281 32.7712 206.69 33.6342 207.507 34.2353C208.35 34.8366 209.615 35.1372 211.301 35.1372C212.348 35.1372 213.217 35.0458 213.907 34.8628C214.622 34.6536 215.338 34.3531 216.053 33.9609C216.359 33.8301 216.564 33.7647 216.666 33.7647C216.896 33.7647 217.087 33.9217 217.241 34.2353L218.544 36.7451C218.672 37.0067 218.735 37.2026 218.735 37.3334C218.735 37.5686 218.582 37.791 218.275 38C217.228 38.7059 216.04 39.2157 214.712 39.5294C213.383 39.8432 211.863 40 210.151 40ZM213.102 27.7648C213.102 26.7713 212.821 25.9999 212.259 25.451C211.697 24.902 210.854 24.6275 209.73 24.6275C208.606 24.6275 207.75 24.915 207.162 25.4902C206.575 26.0394 206.281 26.7975 206.281 27.7648H213.102Z" fill="white"/>
<path d="M233.158 40C231.054 40 229.062 39.7766 227.184 39.3297C225.306 38.8563 223.791 38.1991 222.639 37.3578C222.213 37.0686 222 36.7661 222 36.4508C222 36.2405 222.075 36.017 222.225 35.7803L224.066 32.7043C224.267 32.3888 224.467 32.2311 224.667 32.2311C224.792 32.2311 225.005 32.323 225.306 32.507C226.233 33.0593 227.284 33.5062 228.462 33.8478C229.639 34.1897 230.803 34.3607 231.955 34.3607C233.132 34.3607 233.996 34.1767 234.547 33.8084C235.123 33.4404 235.411 32.8489 235.411 32.0338C235.411 31.2451 235.098 30.6273 234.472 30.1804C233.871 29.7333 232.732 29.1682 231.054 28.4846C228.524 27.4855 226.546 26.3681 225.118 25.1324C223.715 23.8704 223.014 22.1615 223.014 20.0056C223.014 17.4028 223.903 15.4179 225.682 14.0507C227.46 12.6836 229.826 12 232.782 12C234.835 12 236.589 12.1972 238.041 12.5915C239.519 12.9596 240.771 13.538 241.798 14.3268C242.224 14.6686 242.437 14.984 242.437 15.2733C242.437 15.4573 242.361 15.6676 242.211 15.9042L240.37 18.9803C240.145 19.2958 239.945 19.4535 239.769 19.4535C239.644 19.4535 239.431 19.3615 239.131 19.1775C237.678 18.1784 235.95 17.6789 233.946 17.6789C232.869 17.6789 232.043 17.8629 231.467 18.231C230.891 18.5991 230.603 19.2038 230.603 20.0451C230.603 20.6235 230.753 21.0967 231.054 21.4648C231.354 21.8329 231.755 22.1615 232.256 22.4507C232.782 22.7136 233.583 23.0554 234.66 23.4761L235.374 23.7521C237.227 24.5146 238.68 25.2507 239.732 25.9607C240.809 26.644 241.623 27.4986 242.174 28.5241C242.725 29.5229 243 30.7849 243 32.31C243 34.6499 242.161 36.5166 240.483 37.9099C238.83 39.3034 236.388 40 233.158 40Z" fill="white"/>
<path d="M251.411 39C251.025 39 250.729 38.934 250.523 38.802C250.317 38.6702 250.162 38.4061 250.059 38.0103L245.077 20.9104C245.026 20.7521 245 20.6333 245 20.5542C245 20.1847 245.257 20 245.772 20H250.87C251.206 20 251.449 20.066 251.604 20.1979C251.759 20.3034 251.862 20.4882 251.912 20.7521L253.997 29.7376L256.624 22.4937C256.754 22.1771 256.882 21.966 257.01 21.8604C257.165 21.7284 257.424 21.6625 257.784 21.6625H260.216C260.576 21.6625 260.822 21.7284 260.95 21.8604C261.105 21.966 261.246 22.1771 261.376 22.4937L263.962 29.7376L266.088 20.7521C266.163 20.4882 266.266 20.3034 266.396 20.1979C266.524 20.066 266.757 20 267.09 20H272.228C272.742 20 273 20.1847 273 20.5542C273 20.6333 272.975 20.7521 272.922 20.9104L267.902 38.0103C267.799 38.4061 267.644 38.6702 267.439 38.802C267.258 38.934 266.975 39 266.589 39H262.805C262.444 39 262.173 38.934 261.992 38.802C261.812 38.6437 261.659 38.3799 261.529 38.0103L258.98 30.8457L256.431 38.0103C256.328 38.3799 256.173 38.6437 255.967 38.802C255.787 38.934 255.519 39 255.158 39H251.411Z" fill="white"/>
<path d="M282.876 40C280.491 40 278.577 39.2157 277.131 37.6472C275.711 36.0523 275 33.8171 275 30.9411C275 28.7451 275.481 26.8235 276.447 25.1765C277.434 23.5294 278.817 22.2615 280.592 21.3726C282.394 20.4575 284.461 20 286.794 20C288.722 20 290.42 20.2222 291.892 20.6667C293.388 21.085 294.758 21.6994 296 22.5098V38.1962C296 38.6929 295.911 39.0197 295.733 39.1765C295.556 39.3335 295.203 39.4119 294.669 39.4119H290.788C290.509 39.4119 290.295 39.3727 290.141 39.294C289.988 39.1897 289.862 39.0327 289.761 38.8235L289.267 37.6472C288.532 38.4575 287.643 39.0459 286.604 39.4119C285.589 39.804 284.347 40 282.876 40ZM285.73 34.6666C286.717 34.6666 287.492 34.4182 288.05 33.9217C288.608 33.425 288.887 32.719 288.887 31.8038V25.6863C288.403 25.451 287.796 25.3334 287.06 25.3334C285.715 25.3334 284.638 25.817 283.826 26.7843C283.041 27.7516 282.646 29.1111 282.646 30.8627C282.646 33.3987 283.676 34.6666 285.73 34.6666Z" fill="white"/>
<path d="M301.96 47C301.231 47 300.717 46.8451 300.413 46.5352C300.137 46.2252 300 45.7345 300 45.0631V22.8666C301.13 22.0402 302.552 21.3558 304.26 20.8135C305.97 20.2712 307.754 20 309.613 20C317.205 20 321 23.3056 321 29.9167C321 32.9125 320.195 35.3012 318.588 37.0833C316.978 38.8651 314.705 39.756 311.764 39.756C310.934 39.756 310.129 39.6527 309.349 39.4461C308.595 39.2397 307.966 38.9556 307.465 38.5939V45.0631C307.465 45.7345 307.313 46.2252 307.012 46.5352C306.711 46.8451 306.195 47 305.466 47H301.96ZM310.142 34.5264C311.223 34.5264 312.028 34.1134 312.554 33.2868C313.107 32.4346 313.383 31.2984 313.383 29.878C313.383 28.1995 313.058 27.0243 312.405 26.3528C311.776 25.6557 310.795 25.307 309.464 25.307C308.607 25.307 307.93 25.4232 307.428 25.6557V31.815C307.428 32.6931 307.665 33.3645 308.143 33.8293C308.622 34.2941 309.288 34.5264 310.142 34.5264Z" fill="white"/>
<path fill-rule="evenodd" clip-rule="evenodd" d="M24.4819 50C17.2346 49.9945 11.3967 48.2309 7.31773 45.0634C3.18983 41.8578 1 37.3086 1 32.161C1 27.2012 3.18503 23.6248 5.65738 21.2073C7.59494 19.3128 9.73306 18.0995 11.2219 17.4015C10.8852 16.3538 10.4651 14.9821 10.0893 13.5653C9.58649 11.6695 9.09317 9.44514 9.09317 7.81516C9.09317 5.88587 9.50796 3.94833 10.6264 2.44278C11.808 0.852125 13.5869 0 15.7269 0C17.3995 0 18.8194 0.62914 19.9311 1.71447C20.9937 2.75189 21.701 4.12961 22.1893 5.56582C23.0473 8.08947 23.3814 11.26 23.4751 14.4241H25.525C25.6188 11.26 25.9527 8.08947 26.8109 5.56582C27.2993 4.12961 28.0063 2.75189 29.0691 1.71447C30.1808 0.62914 31.6006 0 33.2731 0C35.4133 0 37.1921 0.852125 38.3738 2.44278C39.4922 3.94833 39.907 5.88587 39.907 7.81516C39.907 9.44514 39.4135 11.6695 38.9108 13.5653C38.5349 14.9821 38.1149 16.3538 37.7782 17.4015C39.267 18.0995 41.4053 19.3128 43.3427 21.2073C45.8151 23.6248 48 27.2012 48 32.161C48 37.3086 45.8104 41.8578 41.6823 45.0634C37.6035 48.2309 31.7654 49.9945 24.5182 50H24.4819Z" fill="#633001"/>
<path d="M15.9993 2C12.7835 2 11.3032 4.40668 11.3032 7.73505C11.3032 10.3806 13.0232 15.679 13.7289 17.7416C13.8876 18.2055 13.6382 18.7138 13.1833 18.8937C10.606 19.9131 3 23.6458 3 32.1944C3 41.1993 10.7294 47.9891 24.983 48C24.9887 48 24.9944 47.9997 25.0001 47.9997C25.0057 47.9997 25.0114 48 25.0171 48C39.2706 47.9891 47 41.1993 47 32.1944C47 23.6458 39.3941 19.9131 36.8168 18.8937C36.3619 18.7138 36.1126 18.2055 36.2713 17.7416C36.977 15.679 38.697 10.3806 38.697 7.73505C38.697 4.40668 37.2167 2 34.0009 2C29.3719 2 28.2179 8.57788 28.1356 15.6375C28.1303 16.1088 27.7503 16.4912 27.2806 16.4912H22.7196C22.2498 16.4912 21.8699 16.1088 21.8645 15.6375C21.7822 8.57788 20.6283 2 15.9993 2Z" fill="#D1884F"/>
<path d="M25 45.0345C14.5353 45.0345 3.0181 39.3537 3.00005 32C3.00003 32.0112 3 32.0227 3 32.0342C3 41.1378 10.7357 48 25 48C39.2644 48 47 41.1378 47 32.0342C47 32.0227 47 32.0112 47 32C46.9819 39.3537 35.4647 45.0345 25 45.0345Z" fill="#FEDC90"/>
<path d="M18 29.5C18 31.8014 16.8807 33 15.5 33C14.1193 33 13 31.8014 13 29.5C13 27.1986 14.1193 26 15.5 26C16.8807 26 18 27.1986 18 29.5Z" fill="#633001"/>
<path d="M35 29.5C35 31.8014 33.8807 33 32.5 33C31.1193 33 30 31.8014 30 29.5C30 27.1986 31.1193 26 32.5 26C33.8807 26 35 27.1986 35 29.5Z" fill="#633001"/>
</svg>
