<svg width="336" height="50" viewBox="0 0 336 50" fill="none" xmlns="http://www.w3.org/2000/svg">
<path d="M56.7067 39.4219L47.4622 49.3177C47.2622 49.5327 47.0201 49.7042 46.7508 49.8216C46.4815 49.939 46.1909 49.9997 45.8971 50H2.0741C1.86509 49.9999 1.66065 49.939 1.4858 49.8246C1.31096 49.7103 1.17332 49.5475 1.08972 49.3563C1.00611 49.165 0.980185 48.9536 1.01511 48.7479C1.05003 48.5421 1.14428 48.351 1.28633 48.1979L10.5205 38.3021C10.7204 38.0872 10.9625 37.9157 11.2318 37.7983C11.5011 37.6809 11.7917 37.6202 12.0856 37.6198H55.9085C56.1193 37.6155 56.3269 37.6735 56.5048 37.7867C56.6827 37.8998 56.8236 38.0629 56.9086 38.2555C56.9942 38.4482 57.0203 38.6617 56.9843 38.8693C56.9483 39.0768 56.8518 39.2691 56.7067 39.4219ZM47.4622 19.4897C47.2615 19.2757 47.0191 19.1049 46.7501 18.9876C46.481 18.8703 46.1907 18.809 45.8971 18.8075H2.0741C1.86509 18.8076 1.66065 18.8685 1.4858 18.9829C1.31096 19.0972 1.17332 19.26 1.08972 19.4512C1.00611 19.6425 0.980185 19.8539 1.01511 20.0596C1.05003 20.2653 1.14428 20.4565 1.28633 20.6095L10.5205 30.5105C10.7212 30.7245 10.9635 30.8953 11.2326 31.0127C11.5017 31.13 11.7919 31.1913 12.0856 31.1928H55.9085C56.1172 31.1917 56.3207 31.13 56.4949 31.0153C56.6692 30.9005 56.8059 30.7377 56.8888 30.5467C56.9718 30.3557 56.9973 30.1446 56.9618 29.9394C56.9269 29.7341 56.833 29.5435 56.6911 29.3908L47.4622 19.4897ZM2.0741 12.3804H45.8971C46.1909 12.3801 46.4815 12.3193 46.7508 12.2019C47.0201 12.0846 47.2622 11.913 47.4622 11.6981L56.7067 1.8023C56.8518 1.64945 56.9483 1.45715 56.9843 1.24961C57.0203 1.04206 56.9942 0.828537 56.9086 0.635903C56.8236 0.443269 56.6827 0.280132 56.5048 0.167022C56.3269 0.0539109 56.1193 -0.0041213 55.9085 0.000227709H12.0856C11.7917 0.000536478 11.5011 0.0612785 11.2318 0.178667C10.9625 0.296054 10.7204 0.46757 10.5205 0.682517L1.28633 10.5783C1.14428 10.7314 1.05003 10.9225 1.01511 11.1282C0.980185 11.334 1.00611 11.5454 1.08972 11.7366C1.17332 11.9279 1.31096 12.0906 1.4858 12.2049C1.66065 12.3193 1.86509 12.3803 2.0741 12.3804Z" fill="url(#paint0_linear_59_1423)"/>
<path d="M110.256 21.6H86.8219V13.8001H116.347V6.00011H86.7437C85.7321 5.99458 84.7298 6.19042 83.7933 6.57647C82.8567 6.96256 82.0041 7.53128 81.2856 8.25019C80.5665 8.9691 79.9944 9.82415 79.6023 10.7664C79.2101 11.7087 79.0052 12.7199 79 13.7421V21.6475C79.0042 22.6706 79.2075 23.6829 79.5992 24.6264C79.9908 25.5699 80.5623 26.4261 81.2814 27.1462C82.001 27.8662 82.8536 28.4359 83.7907 28.8226C84.7277 29.2094 85.7315 29.4056 86.7437 29.4H110.209V37.1999H79.558V44.9999H110.256C111.268 45.0055 112.27 44.8096 113.207 44.4235C114.143 44.0374 114.996 43.4687 115.714 42.7498C116.434 42.0309 117.006 41.1759 117.398 40.2336C117.79 39.2913 117.995 38.2801 118 37.2579V29.3525C117.996 28.3294 117.792 27.3172 117.401 26.3736C117.009 25.4301 116.438 24.5739 115.719 23.8538C114.999 23.1338 114.146 22.5642 113.209 22.1774C112.272 21.7907 111.268 21.5945 110.256 21.6Z" fill="white"/>
<path d="M155.263 6.00026H131.758C130.746 5.99193 129.742 6.18572 128.803 6.57055C127.866 6.95538 127.012 7.52361 126.291 8.24283C125.57 8.96201 124.997 9.81794 124.604 10.7616C124.21 11.7053 124.005 12.7182 124 13.7422V37.2578C124.005 38.2818 124.21 39.2947 124.604 40.2384C124.997 41.1821 125.57 42.038 126.291 42.7572C127.012 43.4764 127.866 44.0446 128.803 44.4295C129.742 44.8143 130.746 45.0081 131.758 44.9997H155.263C156.273 45.0053 157.275 44.8094 158.211 44.4234C159.146 44.0373 159.998 43.4686 160.716 42.7497C161.435 42.0308 162.006 41.1757 162.398 40.2335C162.79 39.2912 162.995 38.28 163 37.2578V13.7422C162.995 12.72 162.79 11.7088 162.398 10.7665C162.006 9.82426 161.435 8.96922 160.716 8.25032C159.998 7.53141 159.146 6.9627 158.211 6.57661C157.275 6.19056 156.273 5.99472 155.263 6.00026ZM155.205 37.1998H131.816V13.8002H155.195L155.205 37.1998Z" fill="white"/>
<path d="M237.302 6.00058H214.646C213.647 5.99504 212.658 6.19088 211.733 6.57692C210.808 6.96302 209.966 7.53173 209.257 8.25063C208.547 8.96954 207.982 9.82457 207.595 10.7668C207.208 11.7091 207.005 12.7203 207 13.7425V45H214.724V32.1882H237.276V45H245V13.7425C244.995 12.7158 244.791 11.7003 244.401 10.7546C244.01 9.80882 243.441 8.95146 242.725 8.23182C242.01 7.51223 241.162 6.94463 240.231 6.56169C239.301 6.17876 238.305 5.98809 237.302 6.00058ZM237.246 24.3883H214.693V13.8005H237.246V24.3883Z" fill="white"/>
<path d="M328.343 6.00011H305.657C304.656 5.99458 303.665 6.19042 302.739 6.57647C301.813 6.96257 300.971 7.53128 300.26 8.2502C299.549 8.96911 298.983 9.82416 298.596 10.7664C298.208 11.7087 298.005 12.7199 298 13.7421V45H305.734V32.188H328.266V45H336V13.7421C335.995 12.7199 335.792 11.7087 335.404 10.7664C335.017 9.82416 334.451 8.96911 333.74 8.2502C333.029 7.53128 332.187 6.96257 331.261 6.57647C330.335 6.19042 329.344 5.99458 328.343 6.00011ZM328.266 24.388H305.683V13.8001H328.266V24.388Z" fill="white"/>
<path d="M283.169 37.2H280.042L268.866 9.26763C268.483 8.30396 267.824 7.47806 266.974 6.89591C266.123 6.3137 265.12 6.00175 264.093 6.00007H257.158C256.484 5.99659 255.816 6.12745 255.192 6.38511C254.568 6.64283 254.001 7.02229 253.521 7.50188C253.043 7.98153 252.662 8.55182 252.401 9.18035C252.14 9.80883 252.004 10.4832 252 11.1649V45H259.816V13.8001H262.942L274.113 41.7324C274.502 42.6943 275.167 43.5168 276.021 44.095C276.874 44.6733 277.879 44.981 278.907 44.9789H285.842C286.516 44.9824 287.184 44.8516 287.808 44.5939C288.432 44.3362 288.999 43.9567 289.479 43.4771C289.957 42.9975 290.338 42.4272 290.599 41.7987C290.86 41.1702 290.996 40.4958 291 39.8141V6.00007H283.169V37.2Z" fill="white"/>
<path d="M177.763 6H170V37.2577C170.005 38.2822 170.21 39.2955 170.6 40.2395C170.991 41.1836 171.561 42.0397 172.277 42.759C172.993 43.4783 173.843 44.0464 174.775 44.4309C175.707 44.8155 176.705 45.0087 177.711 44.9997H201V37.1998H177.763V6Z" fill="white"/>
<defs>
<linearGradient id="paint0_linear_59_1423" x1="5.72601" y1="51.1928" x2="51.5916" y2="-0.601883" gradientUnits="userSpaceOnUse">
<stop offset="0.08" stop-color="#9945FF"/>
<stop offset="0.3" stop-color="#8752F3"/>
<stop offset="0.5" stop-color="#5497D5"/>
<stop offset="0.6" stop-color="#43B4CA"/>
<stop offset="0.72" stop-color="#28E0B9"/>
<stop offset="0.97" stop-color="#19FB9B"/>
</linearGradient>
</defs>
</svg>
